<svg width="282" height="142" viewBox="0 0 282 142" fill="none" xmlns="http://www.w3.org/2000/svg">
<path d="M14 54.0224V95M264 54V94.9776" stroke="#00A7FF" stroke-width="2.40614"/>
<path d="M18.8125 45.2413L29.6401 34.4136H39.2647M247.157 28.3984L264 45.2414M264 92.1611H256.782L239.939 110.207" stroke="#0CFEFF" stroke-width="2.40614"/>
<path opacity="0.5" d="M40.4688 23.5898H123.002M156.001 23.5898H230.002M230.002 117.429H156.001M123.002 117.429H40.4688" stroke="#00A7FF" stroke-width="2.40614"/>
<path d="M35.0185 28V34.0294H27.4804L19 44.8824V101.559L27.4804 110H241.155L254.346 91.9118H260V44.8824L246.808 28H35.0185Z" fill="url(#paint0_linear_410_1649)"/>
<g filter="url(#filter0_f_410_1649)">
<path d="M112.138 131.492L118.153 124.273H58L60.4061 127.883H90.4829L91.6859 131.492H112.138Z" fill="#00A7FF"/>
<path d="M166.276 131.492L160.261 124.273H220.414L218.008 127.883H187.931L186.728 131.492H166.276Z" fill="#00A7FF"/>
</g>
<g filter="url(#filter1_f_410_1649)">
<path d="M112.138 129.086L113.341 125.477H60.4062V126.68H92.8891L94.0922 129.086H112.138Z" fill="white"/>
</g>
<g filter="url(#filter2_f_410_1649)">
<path d="M166.276 130.289L163.87 125.477H218.008V126.68H187.931L185.525 130.289H166.276Z" fill="white"/>
</g>
<path d="M112.138 131.492L118.153 124.273H58L60.4061 127.883H90.4829L91.6859 131.492H112.138Z" fill="#00A7FF"/>
<path d="M166.276 131.492L160.261 124.273H220.414L218.008 127.883H187.931L186.728 131.492H166.276Z" fill="#00A7FF"/>
<g filter="url(#filter3_f_410_1649)">
<circle cx="139.795" cy="18.7945" r="4.79452" fill="#0CFEFF"/>
</g>
<circle cx="139.795" cy="18.7945" r="4.79452" fill="#0CFEFF"/>
<g filter="url(#filter4_f_410_1649)">
<circle cx="139.794" cy="18.794" r="3.19635" fill="white"/>
</g>
<g filter="url(#filter5_f_410_1649)">
<circle cx="263.795" cy="31.7945" r="4.79452" fill="#0CFEFF"/>
</g>
<circle cx="263.795" cy="31.7945" r="4.79452" fill="#0CFEFF"/>
<g filter="url(#filter6_f_410_1649)">
<circle cx="263.794" cy="31.794" r="3.19635" fill="white"/>
</g>
<g filter="url(#filter7_f_410_1649)">
<circle cx="18.7945" cy="32.2203" r="4.79452" fill="#0CFEFF"/>
</g>
<circle cx="18.7945" cy="32.2203" r="4.79452" fill="#0CFEFF"/>
<g filter="url(#filter8_f_410_1649)">
<circle cx="18.794" cy="32.2198" r="3.19635" fill="white"/>
</g>
<g filter="url(#filter9_f_410_1649)">
<circle cx="31.2616" cy="117.562" r="1.91781" fill="#0CFEFF"/>
</g>
<circle cx="31.2616" cy="117.562" r="1.91781" fill="#0CFEFF"/>
<g filter="url(#filter10_f_410_1649)">
<circle cx="31.2629" cy="117.564" r="1.27854" fill="white"/>
</g>
<g filter="url(#filter11_f_410_1649)">
<circle cx="139.918" cy="117.562" r="1.91781" fill="#0CFEFF"/>
</g>
<circle cx="139.918" cy="117.562" r="1.91781" fill="#0CFEFF"/>
<g filter="url(#filter12_f_410_1649)">
<circle cx="139.919" cy="117.564" r="1.27854" fill="white"/>
</g>
<g filter="url(#filter13_f_410_1649)">
<circle cx="236.918" cy="116.918" r="1.91781" fill="#0CFEFF"/>
</g>
<circle cx="236.918" cy="116.918" r="1.91781" fill="#0CFEFF"/>
<g filter="url(#filter14_f_410_1649)">
<circle cx="236.919" cy="116.919" r="1.27854" fill="white"/>
</g>
<path d="M58.04 83.44C55.96 83.44 54.16 82.9067 52.64 81.84C51.1467 80.7733 50 79.28 49.2 77.36C48.4 75.44 48 73.2 48 70.64C48 68 48.3333 65.84 49 64.16C49.6933 62.4533 50.56 61.1333 51.6 60.2C52.6667 59.24 53.7733 58.5867 54.92 58.24C56.0667 57.8667 57.0933 57.68 58 57.68C59.6267 57.68 61.1467 58.0667 62.56 58.84C64 59.5867 65.0933 60.6533 65.84 62.04L63.2 64.64L62.96 64.92L62.68 64.64C62.6533 64.4267 62.6 64.2267 62.52 64.04C62.4667 63.8267 62.3067 63.5467 62.04 63.2C61.5867 62.6667 61.0533 62.24 60.44 61.92C59.8533 61.6 59.08 61.44 58.12 61.44C57.1333 61.44 56.2 61.72 55.32 62.28C54.4667 62.84 53.7733 63.7733 53.24 65.08C52.7333 66.36 52.48 68.08 52.48 70.24C52.48 73.44 52.9867 75.8267 54 77.4C55.04 78.9733 56.3867 79.76 58.04 79.76C58.7067 79.76 59.36 79.68 60 79.52C60.6667 79.3333 61.28 79 61.84 78.52V73.92H57.72V70.16H65.92V80.84C64.72 81.8 63.4533 82.48 62.12 82.88C60.7867 83.2533 59.4267 83.44 58.04 83.44ZM73.04 83V58.08H89.28V61.76H77.44V68.16H87.16V71.88H77.44V79.32H89.16V83H73.04ZM102.64 83V61.88H95.92V58.08H114.04V61.88H106.96V83H102.64ZM144.68 83V58.08H151.12C153.307 58.08 155 58.3867 156.2 59C157.427 59.5867 158.453 60.4267 159.28 61.52C160.107 62.64 160.747 63.9733 161.2 65.52C161.68 67.0667 161.92 68.8 161.92 70.72C161.867 73.2267 161.453 75.4133 160.68 77.28C159.907 79.12 158.693 80.5333 157.04 81.52C155.413 82.5067 153.28 83 150.64 83H144.68ZM149.08 79.48H150.52C152.227 79.48 153.587 79.12 154.6 78.4C155.64 77.68 156.387 76.6667 156.84 75.36C157.293 74.0533 157.507 72.52 157.48 70.76C157.48 68.92 157.28 67.32 156.88 65.96C156.507 64.6 155.84 63.5467 154.88 62.8C153.92 62.0533 152.613 61.68 150.96 61.68H149.08V79.48ZM181.96 83L180.24 77.2H173.72L171.96 83H167.48L175.92 57.92H178.08L186.52 83H181.96ZM177 66.28L174.68 73.96H179.28L177 66.28ZM198.64 83V61.88H191.92V58.08H210.04V61.88H202.96V83H198.64ZM229.96 83L228.24 77.2H221.72L219.96 83H215.48L223.92 57.92H226.08L234.52 83H229.96ZM225 66.28L222.68 73.96H227.28L225 66.28Z" fill="#89D2FF"/>
<defs>
<filter id="filter0_f_410_1649" x="48.3754" y="114.649" width="181.663" height="26.4679" filterUnits="userSpaceOnUse" color-interpolation-filters="sRGB">
<feFlood flood-opacity="0" result="BackgroundImageFix"/>
<feBlend mode="normal" in="SourceGraphic" in2="BackgroundImageFix" result="shape"/>
<feGaussianBlur stdDeviation="4.81228" result="effect1_foregroundBlur_410_1649"/>
</filter>
<filter id="filter1_f_410_1649" x="50.7817" y="115.852" width="72.1827" height="22.8585" filterUnits="userSpaceOnUse" color-interpolation-filters="sRGB">
<feFlood flood-opacity="0" result="BackgroundImageFix"/>
<feBlend mode="normal" in="SourceGraphic" in2="BackgroundImageFix" result="shape"/>
<feGaussianBlur stdDeviation="4.81228" result="effect1_foregroundBlur_410_1649"/>
</filter>
<filter id="filter2_f_410_1649" x="153.898" y="115.504" width="74.0819" height="24.7577" filterUnits="userSpaceOnUse" color-interpolation-filters="sRGB">
<feFlood flood-opacity="0" result="BackgroundImageFix"/>
<feBlend mode="normal" in="SourceGraphic" in2="BackgroundImageFix" result="shape"/>
<feGaussianBlur stdDeviation="4.9863" result="effect1_foregroundBlur_410_1649"/>
</filter>
<filter id="filter3_f_410_1649" x="121.895" y="0.894979" width="35.7999" height="35.7999" filterUnits="userSpaceOnUse" color-interpolation-filters="sRGB">
<feFlood flood-opacity="0" result="BackgroundImageFix"/>
<feBlend mode="normal" in="SourceGraphic" in2="BackgroundImageFix" result="shape"/>
<feGaussianBlur stdDeviation="6.55251" result="effect1_foregroundBlur_410_1649"/>
</filter>
<filter id="filter4_f_410_1649" x="130.205" y="9.20496" width="19.1799" height="19.1799" filterUnits="userSpaceOnUse" color-interpolation-filters="sRGB">
<feFlood flood-opacity="0" result="BackgroundImageFix"/>
<feBlend mode="normal" in="SourceGraphic" in2="BackgroundImageFix" result="shape"/>
<feGaussianBlur stdDeviation="3.19635" result="effect1_foregroundBlur_410_1649"/>
</filter>
<filter id="filter5_f_410_1649" x="245.895" y="13.895" width="35.7999" height="35.7999" filterUnits="userSpaceOnUse" color-interpolation-filters="sRGB">
<feFlood flood-opacity="0" result="BackgroundImageFix"/>
<feBlend mode="normal" in="SourceGraphic" in2="BackgroundImageFix" result="shape"/>
<feGaussianBlur stdDeviation="6.55251" result="effect1_foregroundBlur_410_1649"/>
</filter>
<filter id="filter6_f_410_1649" x="254.205" y="22.205" width="19.1799" height="19.1799" filterUnits="userSpaceOnUse" color-interpolation-filters="sRGB">
<feFlood flood-opacity="0" result="BackgroundImageFix"/>
<feBlend mode="normal" in="SourceGraphic" in2="BackgroundImageFix" result="shape"/>
<feGaussianBlur stdDeviation="3.19635" result="effect1_foregroundBlur_410_1649"/>
</filter>
<filter id="filter7_f_410_1649" x="0.894979" y="14.3208" width="35.7999" height="35.7999" filterUnits="userSpaceOnUse" color-interpolation-filters="sRGB">
<feFlood flood-opacity="0" result="BackgroundImageFix"/>
<feBlend mode="normal" in="SourceGraphic" in2="BackgroundImageFix" result="shape"/>
<feGaussianBlur stdDeviation="6.55251" result="effect1_foregroundBlur_410_1649"/>
</filter>
<filter id="filter8_f_410_1649" x="9.20496" y="22.6307" width="19.1799" height="19.1799" filterUnits="userSpaceOnUse" color-interpolation-filters="sRGB">
<feFlood flood-opacity="0" result="BackgroundImageFix"/>
<feBlend mode="normal" in="SourceGraphic" in2="BackgroundImageFix" result="shape"/>
<feGaussianBlur stdDeviation="3.19635" result="effect1_foregroundBlur_410_1649"/>
</filter>
<filter id="filter9_f_410_1649" x="21.4807" y="107.782" width="19.562" height="19.562" filterUnits="userSpaceOnUse" color-interpolation-filters="sRGB">
<feFlood flood-opacity="0" result="BackgroundImageFix"/>
<feBlend mode="normal" in="SourceGraphic" in2="BackgroundImageFix" result="shape"/>
<feGaussianBlur stdDeviation="3.93151" result="effect1_foregroundBlur_410_1649"/>
</filter>
<filter id="filter10_f_410_1649" x="26.1488" y="112.45" width="10.2298" height="10.2298" filterUnits="userSpaceOnUse" color-interpolation-filters="sRGB">
<feFlood flood-opacity="0" result="BackgroundImageFix"/>
<feBlend mode="normal" in="SourceGraphic" in2="BackgroundImageFix" result="shape"/>
<feGaussianBlur stdDeviation="1.91781" result="effect1_foregroundBlur_410_1649"/>
</filter>
<filter id="filter11_f_410_1649" x="130.137" y="107.782" width="19.562" height="19.562" filterUnits="userSpaceOnUse" color-interpolation-filters="sRGB">
<feFlood flood-opacity="0" result="BackgroundImageFix"/>
<feBlend mode="normal" in="SourceGraphic" in2="BackgroundImageFix" result="shape"/>
<feGaussianBlur stdDeviation="3.93151" result="effect1_foregroundBlur_410_1649"/>
</filter>
<filter id="filter12_f_410_1649" x="134.805" y="112.45" width="10.2298" height="10.2298" filterUnits="userSpaceOnUse" color-interpolation-filters="sRGB">
<feFlood flood-opacity="0" result="BackgroundImageFix"/>
<feBlend mode="normal" in="SourceGraphic" in2="BackgroundImageFix" result="shape"/>
<feGaussianBlur stdDeviation="1.91781" result="effect1_foregroundBlur_410_1649"/>
</filter>
<filter id="filter13_f_410_1649" x="227.137" y="107.137" width="19.562" height="19.562" filterUnits="userSpaceOnUse" color-interpolation-filters="sRGB">
<feFlood flood-opacity="0" result="BackgroundImageFix"/>
<feBlend mode="normal" in="SourceGraphic" in2="BackgroundImageFix" result="shape"/>
<feGaussianBlur stdDeviation="3.93151" result="effect1_foregroundBlur_410_1649"/>
</filter>
<filter id="filter14_f_410_1649" x="231.805" y="111.805" width="10.2298" height="10.2298" filterUnits="userSpaceOnUse" color-interpolation-filters="sRGB">
<feFlood flood-opacity="0" result="BackgroundImageFix"/>
<feBlend mode="normal" in="SourceGraphic" in2="BackgroundImageFix" result="shape"/>
<feGaussianBlur stdDeviation="1.91781" result="effect1_foregroundBlur_410_1649"/>
</filter>
<linearGradient id="paint0_linear_410_1649" x1="144.049" y1="-191.291" x2="112.673" y2="121.14" gradientUnits="userSpaceOnUse">
<stop offset="0.698828" stop-color="#004970"/>
<stop offset="1" stop-color="#0CFEFF" stop-opacity="0"/>
</linearGradient>
</defs>
</svg>
