<svg width="282" height="142" viewBox="0 0 282 142" fill="none" xmlns="http://www.w3.org/2000/svg">
<path d="M14 54.0224V95M264 54V94.9776" stroke="#00A7FF" stroke-width="2.40614"/>
<path d="M18.8125 45.2413L29.6401 34.4136H39.2647M247.157 28.3984L264 45.2414M264 92.1611H256.782L239.939 110.207" stroke="#0CFEFF" stroke-width="2.40614"/>
<path opacity="0.5" d="M40.4688 23.5898H123.002M156.001 23.5898H230.002M230.002 117.429H156.001M123.002 117.429H40.4688" stroke="#00A7FF" stroke-width="2.40614"/>
<path d="M35.0185 28V34.0294H27.4804L19 44.8824V101.559L27.4804 110H241.155L254.346 91.9118H260V44.8824L246.808 28H35.0185Z" fill="url(#paint0_linear_379_1637)"/>
<g filter="url(#filter0_f_379_1637)">
<path d="M112.138 131.492L118.153 124.273H58L60.4061 127.883H90.4829L91.6859 131.492H112.138Z" fill="#00A7FF"/>
<path d="M166.276 131.492L160.261 124.273H220.414L218.008 127.883H187.931L186.728 131.492H166.276Z" fill="#00A7FF"/>
</g>
<g filter="url(#filter1_f_379_1637)">
<path d="M112.138 129.086L113.341 125.477H60.4062V126.68H92.8891L94.0922 129.086H112.138Z" fill="white"/>
</g>
<g filter="url(#filter2_f_379_1637)">
<path d="M166.276 130.289L163.87 125.477H218.008V126.68H187.931L185.525 130.289H166.276Z" fill="white"/>
</g>
<path d="M112.138 131.492L118.153 124.273H58L60.4061 127.883H90.4829L91.6859 131.492H112.138Z" fill="#00A7FF"/>
<path d="M166.276 131.492L160.261 124.273H220.414L218.008 127.883H187.931L186.728 131.492H166.276Z" fill="#00A7FF"/>
<g filter="url(#filter3_f_379_1637)">
<circle cx="139.795" cy="18.7945" r="4.79452" fill="#0CFEFF"/>
</g>
<circle cx="139.795" cy="18.7945" r="4.79452" fill="#0CFEFF"/>
<g filter="url(#filter4_f_379_1637)">
<circle cx="139.794" cy="18.794" r="3.19635" fill="white"/>
</g>
<g filter="url(#filter5_f_379_1637)">
<circle cx="263.795" cy="31.7945" r="4.79452" fill="#0CFEFF"/>
</g>
<circle cx="263.795" cy="31.7945" r="4.79452" fill="#0CFEFF"/>
<g filter="url(#filter6_f_379_1637)">
<circle cx="263.794" cy="31.794" r="3.19635" fill="white"/>
</g>
<g filter="url(#filter7_f_379_1637)">
<circle cx="18.7945" cy="32.2203" r="4.79452" fill="#0CFEFF"/>
</g>
<circle cx="18.7945" cy="32.2203" r="4.79452" fill="#0CFEFF"/>
<g filter="url(#filter8_f_379_1637)">
<circle cx="18.794" cy="32.2198" r="3.19635" fill="white"/>
</g>
<g filter="url(#filter9_f_379_1637)">
<circle cx="31.2616" cy="117.562" r="1.91781" fill="#0CFEFF"/>
</g>
<circle cx="31.2616" cy="117.562" r="1.91781" fill="#0CFEFF"/>
<g filter="url(#filter10_f_379_1637)">
<circle cx="31.2629" cy="117.564" r="1.27854" fill="white"/>
</g>
<g filter="url(#filter11_f_379_1637)">
<circle cx="139.918" cy="117.562" r="1.91781" fill="#0CFEFF"/>
</g>
<circle cx="139.918" cy="117.562" r="1.91781" fill="#0CFEFF"/>
<g filter="url(#filter12_f_379_1637)">
<circle cx="139.919" cy="117.564" r="1.27854" fill="white"/>
</g>
<g filter="url(#filter13_f_379_1637)">
<circle cx="236.918" cy="116.918" r="1.91781" fill="#0CFEFF"/>
</g>
<circle cx="236.918" cy="116.918" r="1.91781" fill="#0CFEFF"/>
<g filter="url(#filter14_f_379_1637)">
<circle cx="236.919" cy="116.919" r="1.27854" fill="white"/>
</g>
<path d="M30.05 81V65.425H34.075C35.4417 65.425 36.5 65.6167 37.25 66C38.0167 66.3667 38.6583 66.8917 39.175 67.575C39.6917 68.275 40.0917 69.1083 40.375 70.075C40.675 71.0417 40.825 72.125 40.825 73.325C40.7917 74.8917 40.5333 76.2583 40.05 77.425C39.5667 78.575 38.8083 79.4583 37.775 80.075C36.7583 80.6917 35.425 81 33.775 81H30.05ZM32.8 78.8H33.7C34.7667 78.8 35.6167 78.575 36.25 78.125C36.9 77.675 37.3667 77.0417 37.65 76.225C37.9333 75.4083 38.0667 74.45 38.05 73.35C38.05 72.2 37.925 71.2 37.675 70.35C37.4417 69.5 37.025 68.8417 36.425 68.375C35.825 67.9083 35.0083 67.675 33.975 67.675H32.8V78.8ZM50.3 81.3C48.3833 81.3 46.9333 80.6 45.95 79.2C44.9667 77.8 44.475 75.8083 44.475 73.225C44.475 70.7083 44.9667 68.7417 45.95 67.325C46.9333 65.9083 48.3833 65.2 50.3 65.2C52.1833 65.2 53.6167 65.9083 54.6 67.325C55.6 68.7417 56.1 70.7083 56.1 73.225C56.1 75.8083 55.6 77.8 54.6 79.2C53.6167 80.6 52.1833 81.3 50.3 81.3ZM50.3 79C51.2333 79 51.9667 78.525 52.5 77.575C53.0333 76.6083 53.3 75.15 53.3 73.2C53.3 71.3833 53.0333 69.9833 52.5 69C51.9667 68 51.2333 67.5 50.3 67.5C49.3333 67.5 48.5833 68 48.05 69C47.5333 69.9833 47.275 71.3833 47.275 73.2C47.275 75.15 47.5333 76.6083 48.05 77.575C48.5833 78.525 49.3333 79 50.3 79ZM61.3 81L59.25 65.425H61.7L62.75 75.2L64.75 66.65H66.25L68.25 75.175L69.075 65.425H71.375L69.35 81H67.575L65.375 71.4L63.125 81H61.3ZM74.925 65.425H77.875L83.15 75.675L83 65.425H85.75V65.65C85.6667 65.75 85.6083 65.8667 85.575 66C85.5583 66.1167 85.55 66.3083 85.55 66.575V81H82.925L77.475 70.075V81H74.925V65.425ZM90.425 65.425H93.5V65.65C93.4 65.75 93.3333 65.8667 93.3 66C93.2833 66.1167 93.275 66.3083 93.275 66.575V78.7H100.425V81H90.425V65.425ZM110.3 81.3C108.383 81.3 106.933 80.6 105.95 79.2C104.967 77.8 104.475 75.8083 104.475 73.225C104.475 70.7083 104.967 68.7417 105.95 67.325C106.933 65.9083 108.383 65.2 110.3 65.2C112.183 65.2 113.617 65.9083 114.6 67.325C115.6 68.7417 116.1 70.7083 116.1 73.225C116.1 75.8083 115.6 77.8 114.6 79.2C113.617 80.6 112.183 81.3 110.3 81.3ZM110.3 79C111.233 79 111.967 78.525 112.5 77.575C113.033 76.6083 113.3 75.15 113.3 73.2C113.3 71.3833 113.033 69.9833 112.5 69C111.967 68 111.233 67.5 110.3 67.5C109.333 67.5 108.583 68 108.05 69C107.533 69.9833 107.275 71.3833 107.275 73.2C107.275 75.15 107.533 76.6083 108.05 77.575C108.583 78.525 109.333 79 110.3 79ZM128.35 81L127.275 77.375H123.2L122.1 81H119.3L124.575 65.325H125.925L131.2 81H128.35ZM125.25 70.55L123.8 75.35H126.675L125.25 70.55ZM135.05 81V65.425H139.075C140.442 65.425 141.5 65.6167 142.25 66C143.017 66.3667 143.658 66.8917 144.175 67.575C144.692 68.275 145.092 69.1083 145.375 70.075C145.675 71.0417 145.825 72.125 145.825 73.325C145.792 74.8917 145.533 76.2583 145.05 77.425C144.567 78.575 143.808 79.4583 142.775 80.075C141.758 80.6917 140.425 81 138.775 81H135.05ZM137.8 78.8H138.7C139.767 78.8 140.617 78.575 141.25 78.125C141.9 77.675 142.367 77.0417 142.65 76.225C142.933 75.4083 143.067 74.45 143.05 73.35C143.05 72.2 142.925 71.2 142.675 70.35C142.442 69.5 142.025 68.8417 141.425 68.375C140.825 67.9083 140.008 67.675 138.975 67.675H137.8V78.8ZM165.125 81V65.425H170.05C171.95 65.425 173.342 65.8417 174.225 66.675C175.108 67.5083 175.55 68.6167 175.55 70C175.55 70.5667 175.425 71.1417 175.175 71.725C174.942 72.2917 174.6 72.8 174.15 73.25C173.717 73.7 173.208 74.0333 172.625 74.25L175.975 81H173L169.85 74.525H167.975V81H165.125ZM167.975 72.175H170.25C171.05 72.175 171.65 71.9917 172.05 71.625C172.45 71.2417 172.65 70.725 172.65 70.075C172.65 69.475 172.45 68.9583 172.05 68.525C171.65 68.0917 171.05 67.875 170.25 67.875H167.975V72.175ZM180.275 81V65.425H190.425V67.725H183.025V71.725H189.1V74.05H183.025V78.7H190.35V81H180.275ZM195.2 81V65.425H200.5C201.7 65.425 202.692 65.6333 203.475 66.05C204.258 66.4667 204.833 67.025 205.2 67.725C205.583 68.4083 205.775 69.1667 205.775 70C205.775 70.8167 205.592 71.5667 205.225 72.25C204.858 72.9167 204.292 73.4583 203.525 73.875C202.758 74.275 201.792 74.475 200.625 74.475H198.075V81H195.2ZM198.075 72.125H200.425C201.225 72.125 201.833 71.925 202.25 71.525C202.667 71.125 202.875 70.6167 202.875 70C202.875 69.3833 202.667 68.875 202.25 68.475C201.833 68.075 201.233 67.875 200.45 67.875H198.075V72.125ZM215.3 81.3C213.383 81.3 211.933 80.6 210.95 79.2C209.967 77.8 209.475 75.8083 209.475 73.225C209.475 70.7083 209.967 68.7417 210.95 67.325C211.933 65.9083 213.383 65.2 215.3 65.2C217.183 65.2 218.617 65.9083 219.6 67.325C220.6 68.7417 221.1 70.7083 221.1 73.225C221.1 75.8083 220.6 77.8 219.6 79.2C218.617 80.6 217.183 81.3 215.3 81.3ZM215.3 79C216.233 79 216.967 78.525 217.5 77.575C218.033 76.6083 218.3 75.15 218.3 73.2C218.3 71.3833 218.033 69.9833 217.5 69C216.967 68 216.233 67.5 215.3 67.5C214.333 67.5 213.583 68 213.05 69C212.533 69.9833 212.275 71.3833 212.275 73.2C212.275 75.15 212.533 76.6083 213.05 77.575C213.583 78.525 214.333 79 215.3 79ZM225.125 81V65.425H230.05C231.95 65.425 233.342 65.8417 234.225 66.675C235.108 67.5083 235.55 68.6167 235.55 70C235.55 70.5667 235.425 71.1417 235.175 71.725C234.942 72.2917 234.6 72.8 234.15 73.25C233.717 73.7 233.208 74.0333 232.625 74.25L235.975 81H233L229.85 74.525H227.975V81H225.125ZM227.975 72.175H230.25C231.05 72.175 231.65 71.9917 232.05 71.625C232.45 71.2417 232.65 70.725 232.65 70.075C232.65 69.475 232.45 68.9583 232.05 68.525C231.65 68.0917 231.05 67.875 230.25 67.875H227.975V72.175ZM243.775 81V67.8H239.575V65.425H250.9V67.8H246.475V81H243.775Z" fill="#89D2FF"/>
<defs>
<filter id="filter0_f_379_1637" x="48.3754" y="114.649" width="181.663" height="26.4679" filterUnits="userSpaceOnUse" color-interpolation-filters="sRGB">
<feFlood flood-opacity="0" result="BackgroundImageFix"/>
<feBlend mode="normal" in="SourceGraphic" in2="BackgroundImageFix" result="shape"/>
<feGaussianBlur stdDeviation="4.81228" result="effect1_foregroundBlur_379_1637"/>
</filter>
<filter id="filter1_f_379_1637" x="50.7817" y="115.852" width="72.1827" height="22.8585" filterUnits="userSpaceOnUse" color-interpolation-filters="sRGB">
<feFlood flood-opacity="0" result="BackgroundImageFix"/>
<feBlend mode="normal" in="SourceGraphic" in2="BackgroundImageFix" result="shape"/>
<feGaussianBlur stdDeviation="4.81228" result="effect1_foregroundBlur_379_1637"/>
</filter>
<filter id="filter2_f_379_1637" x="153.898" y="115.504" width="74.0819" height="24.7577" filterUnits="userSpaceOnUse" color-interpolation-filters="sRGB">
<feFlood flood-opacity="0" result="BackgroundImageFix"/>
<feBlend mode="normal" in="SourceGraphic" in2="BackgroundImageFix" result="shape"/>
<feGaussianBlur stdDeviation="4.9863" result="effect1_foregroundBlur_379_1637"/>
</filter>
<filter id="filter3_f_379_1637" x="121.895" y="0.894979" width="35.7999" height="35.7999" filterUnits="userSpaceOnUse" color-interpolation-filters="sRGB">
<feFlood flood-opacity="0" result="BackgroundImageFix"/>
<feBlend mode="normal" in="SourceGraphic" in2="BackgroundImageFix" result="shape"/>
<feGaussianBlur stdDeviation="6.55251" result="effect1_foregroundBlur_379_1637"/>
</filter>
<filter id="filter4_f_379_1637" x="130.205" y="9.20496" width="19.1799" height="19.1799" filterUnits="userSpaceOnUse" color-interpolation-filters="sRGB">
<feFlood flood-opacity="0" result="BackgroundImageFix"/>
<feBlend mode="normal" in="SourceGraphic" in2="BackgroundImageFix" result="shape"/>
<feGaussianBlur stdDeviation="3.19635" result="effect1_foregroundBlur_379_1637"/>
</filter>
<filter id="filter5_f_379_1637" x="245.895" y="13.895" width="35.7999" height="35.7999" filterUnits="userSpaceOnUse" color-interpolation-filters="sRGB">
<feFlood flood-opacity="0" result="BackgroundImageFix"/>
<feBlend mode="normal" in="SourceGraphic" in2="BackgroundImageFix" result="shape"/>
<feGaussianBlur stdDeviation="6.55251" result="effect1_foregroundBlur_379_1637"/>
</filter>
<filter id="filter6_f_379_1637" x="254.205" y="22.205" width="19.1799" height="19.1799" filterUnits="userSpaceOnUse" color-interpolation-filters="sRGB">
<feFlood flood-opacity="0" result="BackgroundImageFix"/>
<feBlend mode="normal" in="SourceGraphic" in2="BackgroundImageFix" result="shape"/>
<feGaussianBlur stdDeviation="3.19635" result="effect1_foregroundBlur_379_1637"/>
</filter>
<filter id="filter7_f_379_1637" x="0.894979" y="14.3208" width="35.7999" height="35.7999" filterUnits="userSpaceOnUse" color-interpolation-filters="sRGB">
<feFlood flood-opacity="0" result="BackgroundImageFix"/>
<feBlend mode="normal" in="SourceGraphic" in2="BackgroundImageFix" result="shape"/>
<feGaussianBlur stdDeviation="6.55251" result="effect1_foregroundBlur_379_1637"/>
</filter>
<filter id="filter8_f_379_1637" x="9.20496" y="22.6307" width="19.1799" height="19.1799" filterUnits="userSpaceOnUse" color-interpolation-filters="sRGB">
<feFlood flood-opacity="0" result="BackgroundImageFix"/>
<feBlend mode="normal" in="SourceGraphic" in2="BackgroundImageFix" result="shape"/>
<feGaussianBlur stdDeviation="3.19635" result="effect1_foregroundBlur_379_1637"/>
</filter>
<filter id="filter9_f_379_1637" x="21.4807" y="107.782" width="19.562" height="19.562" filterUnits="userSpaceOnUse" color-interpolation-filters="sRGB">
<feFlood flood-opacity="0" result="BackgroundImageFix"/>
<feBlend mode="normal" in="SourceGraphic" in2="BackgroundImageFix" result="shape"/>
<feGaussianBlur stdDeviation="3.93151" result="effect1_foregroundBlur_379_1637"/>
</filter>
<filter id="filter10_f_379_1637" x="26.1488" y="112.45" width="10.2298" height="10.2298" filterUnits="userSpaceOnUse" color-interpolation-filters="sRGB">
<feFlood flood-opacity="0" result="BackgroundImageFix"/>
<feBlend mode="normal" in="SourceGraphic" in2="BackgroundImageFix" result="shape"/>
<feGaussianBlur stdDeviation="1.91781" result="effect1_foregroundBlur_379_1637"/>
</filter>
<filter id="filter11_f_379_1637" x="130.137" y="107.782" width="19.562" height="19.562" filterUnits="userSpaceOnUse" color-interpolation-filters="sRGB">
<feFlood flood-opacity="0" result="BackgroundImageFix"/>
<feBlend mode="normal" in="SourceGraphic" in2="BackgroundImageFix" result="shape"/>
<feGaussianBlur stdDeviation="3.93151" result="effect1_foregroundBlur_379_1637"/>
</filter>
<filter id="filter12_f_379_1637" x="134.805" y="112.45" width="10.2298" height="10.2298" filterUnits="userSpaceOnUse" color-interpolation-filters="sRGB">
<feFlood flood-opacity="0" result="BackgroundImageFix"/>
<feBlend mode="normal" in="SourceGraphic" in2="BackgroundImageFix" result="shape"/>
<feGaussianBlur stdDeviation="1.91781" result="effect1_foregroundBlur_379_1637"/>
</filter>
<filter id="filter13_f_379_1637" x="227.137" y="107.137" width="19.562" height="19.562" filterUnits="userSpaceOnUse" color-interpolation-filters="sRGB">
<feFlood flood-opacity="0" result="BackgroundImageFix"/>
<feBlend mode="normal" in="SourceGraphic" in2="BackgroundImageFix" result="shape"/>
<feGaussianBlur stdDeviation="3.93151" result="effect1_foregroundBlur_379_1637"/>
</filter>
<filter id="filter14_f_379_1637" x="231.805" y="111.805" width="10.2298" height="10.2298" filterUnits="userSpaceOnUse" color-interpolation-filters="sRGB">
<feFlood flood-opacity="0" result="BackgroundImageFix"/>
<feBlend mode="normal" in="SourceGraphic" in2="BackgroundImageFix" result="shape"/>
<feGaussianBlur stdDeviation="1.91781" result="effect1_foregroundBlur_379_1637"/>
</filter>
<linearGradient id="paint0_linear_379_1637" x1="144.049" y1="-191.291" x2="112.673" y2="121.14" gradientUnits="userSpaceOnUse">
<stop offset="0.698828" stop-color="#004970"/>
<stop offset="1" stop-color="#0CFEFF" stop-opacity="0"/>
</linearGradient>
</defs>
</svg>
