<svg width="73" height="74" viewBox="0 0 73 74" fill="none" xmlns="http://www.w3.org/2000/svg">
<path d="M62.5788 10.8828L54.4697 18.9919L54.8076 19.3297L56.328 17.8093L63.2545 10.8828H62.5788Z" fill="#0CFEFF"/>
<path d="M62.9166 61.9022L56.328 55.1446L54.8955 53.7931C54.7054 54.0118 54.5075 54.2365 54.3008 54.4689L61.5651 61.7332L62.9166 61.9022Z" fill="#0CFEFF"/>
<path d="M56.328 17.8093L54.8076 19.3297C56.9526 21.9582 57.971 23.5709 59.3689 26.763L61.0583 30.3107V31.6622L59.3689 33.5205V39.9402L61.0583 41.7985V43.15L59.5379 46.5288C58.1582 49.6603 57.0198 51.3489 54.8955 53.7931L56.328 55.1446C58.9735 52.2432 60.1796 50.4025 61.5651 46.5288L64.4371 43.15V40.2781H65.1128V32.8448H64.4371V29.9728L61.5651 26.763C60.3904 23.6228 59.1707 21.6335 56.328 17.8093Z" fill="#0CFEFF"/>
<path d="M9.53452 11.3906L17.6436 19.4997L17.3057 19.8375L15.7852 18.3171L8.85877 11.3906H9.53452Z" fill="#0CFEFF"/>
<path d="M9.19665 62.41L15.7852 55.6525L17.2178 54.301C17.4078 54.5196 17.6058 54.7444 17.8125 54.9767L10.5482 62.2411L9.19665 62.41Z" fill="#0CFEFF"/>
<path d="M15.7852 18.3171L17.3057 19.8375C15.1606 22.466 14.1423 24.0787 12.7444 27.2708L11.055 30.8185V32.17L12.7444 34.0284V40.448L11.055 42.3063V43.6578L12.5754 47.0366C13.955 50.1681 15.0934 51.8567 17.2178 54.301L15.7852 55.6525C13.1397 52.751 11.9336 50.9103 10.5482 47.0366L7.6762 43.6578V40.7859H7.00045V33.3526H7.6762V30.4807L10.5482 27.2708C11.7229 24.1306 12.9426 22.1413 15.7852 18.3171Z" fill="#0CFEFF"/>
<path d="M49.0712 36.9028C49.0712 44.087 43.2472 49.911 36.0629 49.911C28.8787 49.911 23.0547 44.087 23.0547 36.9028C23.0547 29.7185 28.8787 23.8945 36.0629 23.8945C43.2472 23.8945 49.0712 29.7185 49.0712 36.9028ZM26.8457 36.9028C26.8457 41.9933 30.9724 46.12 36.0629 46.12C41.1535 46.12 45.2802 41.9933 45.2802 36.9028C45.2802 31.8122 41.1535 27.6855 36.0629 27.6855C30.9724 27.6855 26.8457 31.8122 26.8457 36.9028Z" fill="white"/>
<path d="M39.9522 36.9937C39.9522 39.0936 38.2499 40.7959 36.1499 40.7959C34.05 40.7959 32.3477 39.0936 32.3477 36.9937C32.3477 34.8937 34.05 33.1914 36.1499 33.1914C38.2499 33.1914 39.9522 34.8937 39.9522 36.9937ZM33.4558 36.9937C33.4558 38.4816 34.662 39.6878 36.1499 39.6878C37.6379 39.6878 38.8441 38.4816 38.8441 36.9937C38.8441 35.5057 37.6379 34.2995 36.1499 34.2995C34.662 34.2995 33.4558 35.5057 33.4558 36.9937Z" fill="#0CFEFF"/>
<rect x="35.7266" y="26.4297" width="1.01363" height="3.37877" fill="#0CFEFF"/>
<rect x="35.7266" y="44.1758" width="1.01363" height="3.37877" fill="#0CFEFF"/>
<rect x="45.8672" y="36.5703" width="1.01363" height="3.37877" transform="rotate(90 45.8672 36.5703)" fill="#0CFEFF"/>
<rect x="28.9688" y="36.5703" width="1.01363" height="3.37877" transform="rotate(90 28.9688 36.5703)" fill="#0CFEFF"/>
<path d="M54.0868 15.1498C48.9313 10.9094 42.4462 8.62194 35.7712 8.68939C29.0962 8.75684 22.6586 11.1749 17.5898 15.5186L18.2289 16.2643C23.1223 12.0709 29.3371 9.73656 35.7811 9.67145C42.2251 9.60633 48.4858 11.8147 53.4629 15.9083L54.0868 15.1498Z" fill="white"/>
<path d="M35.7712 8.68939C37.4968 8.67195 39.2098 8.8119 40.8903 9.1023L39.0988 6.99996L32.6791 6.99996L30.8208 9.17526C32.4442 8.87045 34.1003 8.70627 35.7712 8.68939Z" fill="white"/>
<path d="M17.8116 58.7955C22.9671 63.0359 29.4523 65.3234 36.1273 65.2559C42.8022 65.1885 49.2398 62.7704 54.3086 58.4268L53.6695 57.681C48.7762 61.8744 42.5613 64.2088 36.1173 64.2739C29.6733 64.339 23.4126 62.1307 18.4355 58.037L17.8116 58.7955Z" fill="white"/>
<path d="M36.1273 65.2559C34.4016 65.2734 32.6887 65.1334 31.0081 64.843L32.7996 66.9453L39.2193 66.9453L41.0776 64.7701C39.4542 65.0749 37.7982 65.239 36.1273 65.2559Z" fill="white"/>
<path d="M58.2896 35.3299C58.2396 34.6914 58.1622 34.0553 58.0575 33.4235L55.2968 33.881C55.3884 34.4336 55.4561 34.9898 55.4998 35.5482L58.2896 35.3299Z" fill="#00FF94"/>
<path d="M58.3482 37.7137C58.3667 37.0735 58.3576 36.4328 58.321 35.7934L55.5273 35.9535C55.5593 36.5127 55.5673 37.073 55.5511 37.6329L58.3482 37.7137Z" fill="#00FF94"/>
<path d="M58.1169 40.3364C58.2107 39.7029 58.2772 39.0656 58.3162 38.4263L55.5231 38.256C55.489 38.8151 55.4309 39.3724 55.3488 39.9265L58.1169 40.3364Z" fill="#00FF94"/>
<path d="M57.5595 42.9816C57.7293 42.3641 57.8724 41.7395 57.9885 41.1096L55.2365 40.6026C55.135 41.1535 55.0099 41.6997 54.8614 42.2397L57.5595 42.9816Z" fill="#00FF94"/>
<path d="M56.6901 45.5302C56.9331 44.9376 57.1505 44.3349 57.3416 43.7236L54.6708 42.8886C54.5036 43.4232 54.3136 43.9503 54.1011 44.4685L56.6901 45.5302Z" fill="#00FF94"/>
<path d="M55.2721 48.387C55.5972 47.8351 55.8983 47.2695 56.1747 46.6917L53.6503 45.4843C53.4086 45.9896 53.1453 46.4842 52.861 46.9668L55.2721 48.387Z" fill="#00FF94"/>
<path d="M53.8443 50.5201C54.2306 50.0092 54.5947 49.482 54.9356 48.9398L52.5667 47.4502C52.2686 47.9244 51.9501 48.3855 51.6123 48.8322L53.8443 50.5201Z" fill="#00FF94"/>
<path d="M52.0095 52.6522C52.457 52.194 52.8846 51.7168 53.2911 51.2219L51.1286 49.4459C50.7731 49.8788 50.3992 50.2961 50.0078 50.6968L52.0095 52.6522Z" fill="#00FF94"/>
<path d="M50.2249 54.2907C50.7195 53.8838 51.1963 53.4558 51.6541 53.0079L49.697 51.0078C49.2967 51.3996 48.8796 51.7739 48.4471 52.1297L50.2249 54.2907Z" fill="#00FF94"/>
<path d="M48.04 55.8765C48.5801 55.5324 49.1052 55.1651 49.6138 54.7758L47.9127 52.5539C47.4679 52.8944 47.0088 53.2155 46.5364 53.5165L48.04 55.8765Z" fill="#00FF94"/>
<path d="M45.5543 57.2461C46.1337 56.9733 46.7012 56.6757 47.2551 56.3541L45.85 53.9342C45.3656 54.2154 44.8693 54.4757 44.3626 54.7142L45.5543 57.2461Z" fill="#00FF94"/>
<path d="M42.9816 58.2671C43.5905 58.0682 44.1904 57.8432 44.7799 57.5927L43.6854 55.0174C43.1699 55.2364 42.6452 55.4332 42.1128 55.6071L42.9816 58.2671Z" fill="#00FF94"/>
<path d="M40.4393 58.9345C41.0673 58.8087 41.6895 58.6559 42.3043 58.4765L41.5205 55.7902C40.9828 55.9471 40.4386 56.0807 39.8894 56.1908L40.4393 58.9345Z" fill="#00FF94"/>
<path d="M37.7396 59.3057C38.3782 59.2574 39.0145 59.1816 39.6466 59.0786L39.1962 56.3167C38.6434 56.4069 38.087 56.4732 37.5285 56.5154L37.7396 59.3057Z" fill="#00FF94"/>
<path d="M34.9338 59.3409C35.5734 59.3732 36.2142 59.3779 36.8542 59.355L36.7543 56.5585C36.1945 56.5785 35.6342 56.5744 35.0748 56.5462L34.9338 59.3409Z" fill="#00FF94"/>
<path d="M32.2745 59.046C32.9057 59.1546 33.5412 59.2361 34.1794 59.29L34.4151 56.5017C33.857 56.4545 33.3012 56.3833 32.7492 56.2883L32.2745 59.046Z" fill="#00FF94"/>
<path d="M29.5936 58.4118C30.2066 58.5975 30.8273 58.7566 31.4539 58.8889L32.0316 56.1508C31.4836 56.0352 30.9408 55.896 30.4048 55.7337L29.5936 58.4118Z" fill="#00FF94"/>
<path d="M26.972 57.4344C27.5569 57.6954 28.1528 57.931 28.758 58.1406L29.674 55.4965C29.1447 55.3132 28.6236 55.1071 28.1121 54.8789L26.972 57.4344Z" fill="#00FF94"/>
<path d="M24.5772 56.187C25.1262 56.5167 25.6893 56.8226 26.2647 57.1039L27.4935 54.5898C26.9903 54.3439 26.498 54.0764 26.0178 53.788L24.5772 56.187Z" fill="#00FF94"/>
<path d="M22.3297 54.6429C22.8344 55.0371 23.3559 55.4095 23.8927 55.7589L25.4192 53.4136C24.9498 53.1081 24.4937 52.7824 24.0524 52.4376L22.3297 54.6429Z" fill="#00FF94"/>
<path d="M20.2893 52.8378C20.7422 53.2906 21.2143 53.7238 21.7045 54.136L23.5056 51.9944C23.077 51.6339 22.664 51.2551 22.268 50.8591L20.2893 52.8378Z" fill="#00FF94"/>
<path d="M18.52 50.8431C18.9156 51.3468 19.3327 51.8332 19.7702 52.301L21.814 50.3896C21.4314 49.9806 21.0667 49.5552 20.7207 49.1147L18.52 50.8431Z" fill="#00FF94"/>
<path d="M16.9914 48.6349C17.3236 49.1825 17.6792 49.7155 18.0572 50.2325L20.316 48.5807C19.9854 48.1286 19.6744 47.6625 19.3839 47.1836L16.9914 48.6349Z" fill="#00FF94"/>
<path d="M15.7469 46.2758C16.0114 46.8591 16.3008 47.4308 16.6144 47.9892L19.0542 46.619C18.78 46.1306 18.5269 45.6307 18.2956 45.1205L15.7469 46.2758Z" fill="#00FF94"/>
<path d="M14.7827 43.7522C14.9746 44.3632 15.1928 44.9657 15.4366 45.5579L18.0242 44.4927C17.811 43.9748 17.6202 43.4479 17.4524 42.9136L14.7827 43.7522Z" fill="#00FF94"/>
<path d="M14.1337 41.1463C14.2508 41.776 14.3949 42.4003 14.5658 43.0176L17.2627 42.2712C17.1133 41.7314 16.9872 41.1854 16.8848 40.6347L14.1337 41.1463Z" fill="#00FF94"/>
<path d="M13.806 38.5343C13.848 39.1733 13.9176 39.8103 14.0145 40.4434L16.7806 40.02C16.6959 39.4664 16.635 38.9093 16.5982 38.3504L13.806 38.5343Z" fill="#00FF94"/>
<path d="M13.7938 35.8026C13.7574 36.4421 13.7486 37.0828 13.7674 37.723L16.5645 37.6409C16.5481 37.0811 16.5558 36.5208 16.5876 35.9616L13.7938 35.8026Z" fill="#00FF94"/>
<path d="M14.0685 33.3599C13.962 33.9915 13.8827 34.6273 13.8309 35.2657L16.62 35.492C16.6653 34.9337 16.7346 34.3777 16.8278 33.8254L14.0685 33.3599Z" fill="#00FF94"/>
<path d="M14.7315 30.5519C14.5443 31.1644 14.3836 31.7847 14.2498 32.4111L16.9863 32.9956C17.1034 32.4479 17.2439 31.9054 17.4076 31.3698L14.7315 30.5519Z" fill="#00FF94"/>
<path d="M15.6695 28.0359C15.41 28.6214 15.1759 29.2179 14.9678 29.8236L17.6143 30.7329C17.7962 30.2032 18.001 29.6815 18.2279 29.1695L15.6695 28.0359Z" fill="#00FF94"/>
<path d="M16.8192 25.7926C16.4953 26.3451 16.1954 26.9114 15.9203 27.4897L18.4472 28.6918C18.6878 28.1861 18.9501 27.6909 19.2334 27.2077L16.8192 25.7926Z" fill="#00FF94"/>
<path d="M18.3524 23.5118C17.9631 24.0203 17.5958 24.5453 17.2516 25.0855L19.6115 26.5893C19.9124 26.1169 20.2337 25.6578 20.5742 25.2131L18.3524 23.5118Z" fill="#00FF94"/>
<path d="M20.0772 21.516C19.6305 21.9749 19.2038 22.4529 18.7982 22.9486L20.964 24.7206C21.3187 24.2871 21.6919 23.8691 22.0825 23.4677L20.0772 21.516Z" fill="#00FF94"/>
<path d="M21.9856 19.7702C21.4887 20.1744 21.0095 20.5998 20.5493 21.0452L22.4954 23.056C22.8979 22.6665 23.3169 22.2945 23.7514 21.941L21.9856 19.7702Z" fill="#00FF94"/>
<path d="M24.126 18.2301C23.585 18.5727 23.0589 18.9386 22.5493 19.3265L24.2444 21.553C24.6901 21.2137 25.1501 20.8938 25.6233 20.5941L24.126 18.2301Z" fill="#00FF94"/>
<path d="M26.6173 16.8664C26.037 17.1375 25.4687 17.4335 24.914 17.7535L26.3124 20.1774C26.7975 19.8975 27.2945 19.6386 27.8019 19.4015L26.6173 16.8664Z" fill="#00FF94"/>
<path d="M29.1233 15.8751C28.5146 16.0743 27.9147 16.2996 27.3254 16.5504L28.4212 19.1252C28.9365 18.9059 29.4611 18.7088 29.9934 18.5347L29.1233 15.8751Z" fill="#00FF94"/>
<path d="M31.6368 15.2121C31.009 15.3391 30.3871 15.4931 29.7726 15.6736L30.5612 18.3584C31.0986 18.2006 31.6426 18.0659 32.1915 17.9549L31.6368 15.2121Z" fill="#00FF94"/>
<path d="M34.361 14.8342C33.7224 14.8829 33.0861 14.9591 32.4541 15.0626L32.9063 17.8241C33.459 17.7336 34.0154 17.667 34.5739 17.6244L34.361 14.8342Z" fill="#00FF94"/>
<path d="M36.9194 14.7862C36.2794 14.7614 35.6387 14.7643 34.9989 14.7947L35.1318 17.5898C35.6913 17.5632 36.2516 17.5607 36.8113 17.5824L36.9194 14.7862Z" fill="#00FF94"/>
<path d="M39.2574 15.0003C38.6235 14.9084 37.986 14.8438 37.3466 14.8068L37.1849 17.6004C37.744 17.6328 38.3015 17.6893 38.8558 17.7696L39.2574 15.0003Z" fill="#00FF94"/>
<path d="M41.9621 15.5654C41.3445 15.3958 40.7198 15.2529 40.0899 15.1371L39.5839 17.8893C40.1348 17.9906 40.681 18.1155 41.2211 18.2638L41.9621 15.5654Z" fill="#00FF94"/>
<path d="M44.4341 16.4025C43.8405 16.1619 43.2369 15.9471 42.6248 15.7584L41.8007 18.4326C42.336 18.5976 42.8639 18.7855 43.383 18.9959L44.4341 16.4025Z" fill="#00FF94"/>
<path d="M46.9553 17.6136C46.3965 17.3007 45.8245 17.0119 45.2408 16.7481L44.0885 19.2982C44.5989 19.5288 45.0991 19.7813 45.5878 20.055L46.9553 17.6136Z" fill="#00FF94"/>
<path d="M49.2007 19.0543C48.6833 18.6768 48.1499 18.3218 47.6019 17.9903L46.1533 20.3844C46.6325 20.6744 47.099 20.9848 47.5515 21.3149L49.2007 19.0543Z" fill="#00FF94"/>
<path d="M51.1634 20.6651C50.6922 20.2312 50.2026 19.8179 49.6959 19.4262L47.9845 21.6402C48.4277 21.9827 48.8558 22.3442 49.2678 22.7236L51.1634 20.6651Z" fill="#00FF94"/>
<path d="M53.0703 22.6523C52.6562 22.1636 52.2213 21.6931 51.7667 21.2419L49.7955 23.228C50.193 23.6226 50.5734 24.0341 50.9355 24.4614L53.0703 22.6523Z" fill="#00FF94"/>
<path d="M54.6889 24.8153C54.3369 24.2802 53.9621 23.7606 53.5654 23.2577L51.3685 24.9909C51.7154 25.4306 52.0432 25.8851 52.3509 26.353L54.6889 24.8153Z" fill="#00FF94"/>
<path d="M56.0689 27.2289C55.7862 26.6542 55.479 26.0919 55.148 25.5436L52.7524 26.9899C53.0419 27.4694 53.3106 27.9611 53.5578 28.4637L56.0689 27.2289Z" fill="#00FF94"/>
<path d="M57.0891 29.6557C56.8762 29.0517 56.6373 28.4571 56.3732 27.8736L53.8239 29.0275C54.0549 29.5378 54.2638 30.0578 54.45 30.586L57.0891 29.6557Z" fill="#00FF94"/>
<path d="M57.8644 32.4056C57.7304 31.7793 57.5696 31.159 57.3822 30.5466L54.7063 31.3651C54.8701 31.9007 55.0108 32.4431 55.128 32.9908L57.8644 32.4056Z" fill="#00FF94"/>
</svg>
