<svg width="282" height="142" viewBox="0 0 282 142" fill="none" xmlns="http://www.w3.org/2000/svg">
<path d="M14 54.0224V95M264 54V94.9776" stroke="#00A7FF" stroke-width="2.40614"/>
<path d="M18.8125 45.2413L29.6401 34.4136H39.2647M247.157 28.3984L264 45.2414M264 92.1611H256.782L239.939 110.207" stroke="#0CFEFF" stroke-width="2.40614"/>
<path opacity="0.5" d="M40.4688 23.5898H123.002M156.001 23.5898H230.002M230.002 117.429H156.001M123.002 117.429H40.4688" stroke="#00A7FF" stroke-width="2.40614"/>
<path d="M35.0185 28V34.0294H27.4804L19 44.8824V101.559L27.4804 110H241.155L254.346 91.9118H260V44.8824L246.808 28H35.0185Z" fill="url(#paint0_linear_405_1554)"/>
<g filter="url(#filter0_f_405_1554)">
<path d="M112.138 131.492L118.153 124.273H58L60.4061 127.883H90.4829L91.6859 131.492H112.138Z" fill="#00A7FF"/>
<path d="M166.276 131.492L160.261 124.273H220.414L218.008 127.883H187.931L186.728 131.492H166.276Z" fill="#00A7FF"/>
</g>
<g filter="url(#filter1_f_405_1554)">
<path d="M112.138 129.086L113.341 125.477H60.4062V126.68H92.8891L94.0922 129.086H112.138Z" fill="white"/>
</g>
<g filter="url(#filter2_f_405_1554)">
<path d="M166.276 130.289L163.87 125.477H218.008V126.68H187.931L185.525 130.289H166.276Z" fill="white"/>
</g>
<path d="M112.138 131.492L118.153 124.273H58L60.4061 127.883H90.4829L91.6859 131.492H112.138Z" fill="#00A7FF"/>
<path d="M166.276 131.492L160.261 124.273H220.414L218.008 127.883H187.931L186.728 131.492H166.276Z" fill="#00A7FF"/>
<g filter="url(#filter3_f_405_1554)">
<circle cx="139.795" cy="18.7945" r="4.79452" fill="#0CFEFF"/>
</g>
<circle cx="139.795" cy="18.7945" r="4.79452" fill="#0CFEFF"/>
<g filter="url(#filter4_f_405_1554)">
<circle cx="139.794" cy="18.794" r="3.19635" fill="white"/>
</g>
<g filter="url(#filter5_f_405_1554)">
<circle cx="263.795" cy="31.7945" r="4.79452" fill="#0CFEFF"/>
</g>
<circle cx="263.795" cy="31.7945" r="4.79452" fill="#0CFEFF"/>
<g filter="url(#filter6_f_405_1554)">
<circle cx="263.794" cy="31.794" r="3.19635" fill="white"/>
</g>
<g filter="url(#filter7_f_405_1554)">
<circle cx="18.7945" cy="32.2203" r="4.79452" fill="#0CFEFF"/>
</g>
<circle cx="18.7945" cy="32.2203" r="4.79452" fill="#0CFEFF"/>
<g filter="url(#filter8_f_405_1554)">
<circle cx="18.794" cy="32.2198" r="3.19635" fill="white"/>
</g>
<g filter="url(#filter9_f_405_1554)">
<circle cx="31.2616" cy="117.562" r="1.91781" fill="#0CFEFF"/>
</g>
<circle cx="31.2616" cy="117.562" r="1.91781" fill="#0CFEFF"/>
<g filter="url(#filter10_f_405_1554)">
<circle cx="31.2629" cy="117.564" r="1.27854" fill="white"/>
</g>
<g filter="url(#filter11_f_405_1554)">
<circle cx="139.918" cy="117.562" r="1.91781" fill="#0CFEFF"/>
</g>
<circle cx="139.918" cy="117.562" r="1.91781" fill="#0CFEFF"/>
<g filter="url(#filter12_f_405_1554)">
<circle cx="139.919" cy="117.564" r="1.27854" fill="white"/>
</g>
<g filter="url(#filter13_f_405_1554)">
<circle cx="236.918" cy="116.918" r="1.91781" fill="#0CFEFF"/>
</g>
<circle cx="236.918" cy="116.918" r="1.91781" fill="#0CFEFF"/>
<g filter="url(#filter14_f_405_1554)">
<circle cx="236.919" cy="116.919" r="1.27854" fill="white"/>
</g>
<path d="M86.223 61.703H91.02V62.054C90.864 62.21 90.76 62.392 90.708 62.6C90.682 62.782 90.669 63.081 90.669 63.497V82.412H101.823V86H86.223V61.703ZM117.228 86.468C114.238 86.468 111.976 85.376 110.442 83.192C108.908 81.008 108.141 77.901 108.141 73.871C108.141 69.945 108.908 66.877 110.442 64.667C111.976 62.457 114.238 61.352 117.228 61.352C120.166 61.352 122.402 62.457 123.936 64.667C125.496 66.877 126.276 69.945 126.276 73.871C126.276 77.901 125.496 81.008 123.936 83.192C122.402 85.376 120.166 86.468 117.228 86.468ZM117.228 82.88C118.684 82.88 119.828 82.139 120.66 80.657C121.492 79.149 121.908 76.874 121.908 73.832C121.908 70.998 121.492 68.814 120.66 67.28C119.828 65.72 118.684 64.94 117.228 64.94C115.72 64.94 114.55 65.72 113.718 67.28C112.912 68.814 112.509 70.998 112.509 73.832C112.509 76.874 112.912 79.149 113.718 80.657C114.55 82.139 115.72 82.88 117.228 82.88ZM141.564 86.429C139.536 86.429 137.781 85.909 136.299 84.869C134.843 83.829 133.725 82.373 132.945 80.501C132.165 78.629 131.775 76.445 131.775 73.949C131.775 71.375 132.1 69.269 132.75 67.631C133.426 65.967 134.271 64.68 135.285 63.77C136.325 62.834 137.404 62.197 138.522 61.859C139.64 61.495 140.641 61.313 141.525 61.313C143.111 61.313 144.593 61.69 145.971 62.444C147.375 63.172 148.441 64.212 149.169 65.564L146.595 68.099L146.361 68.372L146.088 68.099C146.062 67.891 146.01 67.696 145.932 67.514C145.88 67.306 145.724 67.033 145.464 66.695C145.022 66.175 144.502 65.759 143.904 65.447C143.332 65.135 142.578 64.979 141.642 64.979C140.68 64.979 139.77 65.252 138.912 65.798C138.08 66.344 137.404 67.254 136.884 68.528C136.39 69.776 136.143 71.453 136.143 73.559C136.143 76.679 136.637 79.006 137.625 80.54C138.639 82.074 139.952 82.841 141.564 82.841C142.214 82.841 142.851 82.763 143.475 82.607C144.125 82.425 144.723 82.1 145.269 81.632V77.147H141.252V73.481H149.247V83.894C148.077 84.83 146.842 85.493 145.542 85.883C144.242 86.247 142.916 86.429 141.564 86.429ZM156.93 86V82.451H161.688V65.252H157.203V61.703H170.619V65.252H165.861V82.451H170.814V86H156.93ZM179.043 61.703H183.645L191.874 77.693L191.64 61.703H195.93V62.054C195.8 62.21 195.709 62.392 195.657 62.6C195.631 62.782 195.618 63.081 195.618 63.497V86H191.523L183.021 68.957V86H179.043V61.703Z" fill="#89D2FF"/>
<defs>
<filter id="filter0_f_405_1554" x="48.3754" y="114.649" width="181.663" height="26.4679" filterUnits="userSpaceOnUse" color-interpolation-filters="sRGB">
<feFlood flood-opacity="0" result="BackgroundImageFix"/>
<feBlend mode="normal" in="SourceGraphic" in2="BackgroundImageFix" result="shape"/>
<feGaussianBlur stdDeviation="4.81228" result="effect1_foregroundBlur_405_1554"/>
</filter>
<filter id="filter1_f_405_1554" x="50.7817" y="115.852" width="72.1827" height="22.8585" filterUnits="userSpaceOnUse" color-interpolation-filters="sRGB">
<feFlood flood-opacity="0" result="BackgroundImageFix"/>
<feBlend mode="normal" in="SourceGraphic" in2="BackgroundImageFix" result="shape"/>
<feGaussianBlur stdDeviation="4.81228" result="effect1_foregroundBlur_405_1554"/>
</filter>
<filter id="filter2_f_405_1554" x="153.898" y="115.504" width="74.0819" height="24.7577" filterUnits="userSpaceOnUse" color-interpolation-filters="sRGB">
<feFlood flood-opacity="0" result="BackgroundImageFix"/>
<feBlend mode="normal" in="SourceGraphic" in2="BackgroundImageFix" result="shape"/>
<feGaussianBlur stdDeviation="4.9863" result="effect1_foregroundBlur_405_1554"/>
</filter>
<filter id="filter3_f_405_1554" x="121.895" y="0.894979" width="35.7999" height="35.7999" filterUnits="userSpaceOnUse" color-interpolation-filters="sRGB">
<feFlood flood-opacity="0" result="BackgroundImageFix"/>
<feBlend mode="normal" in="SourceGraphic" in2="BackgroundImageFix" result="shape"/>
<feGaussianBlur stdDeviation="6.55251" result="effect1_foregroundBlur_405_1554"/>
</filter>
<filter id="filter4_f_405_1554" x="130.205" y="9.20496" width="19.1799" height="19.1799" filterUnits="userSpaceOnUse" color-interpolation-filters="sRGB">
<feFlood flood-opacity="0" result="BackgroundImageFix"/>
<feBlend mode="normal" in="SourceGraphic" in2="BackgroundImageFix" result="shape"/>
<feGaussianBlur stdDeviation="3.19635" result="effect1_foregroundBlur_405_1554"/>
</filter>
<filter id="filter5_f_405_1554" x="245.895" y="13.895" width="35.7999" height="35.7999" filterUnits="userSpaceOnUse" color-interpolation-filters="sRGB">
<feFlood flood-opacity="0" result="BackgroundImageFix"/>
<feBlend mode="normal" in="SourceGraphic" in2="BackgroundImageFix" result="shape"/>
<feGaussianBlur stdDeviation="6.55251" result="effect1_foregroundBlur_405_1554"/>
</filter>
<filter id="filter6_f_405_1554" x="254.205" y="22.205" width="19.1799" height="19.1799" filterUnits="userSpaceOnUse" color-interpolation-filters="sRGB">
<feFlood flood-opacity="0" result="BackgroundImageFix"/>
<feBlend mode="normal" in="SourceGraphic" in2="BackgroundImageFix" result="shape"/>
<feGaussianBlur stdDeviation="3.19635" result="effect1_foregroundBlur_405_1554"/>
</filter>
<filter id="filter7_f_405_1554" x="0.894979" y="14.3208" width="35.7999" height="35.7999" filterUnits="userSpaceOnUse" color-interpolation-filters="sRGB">
<feFlood flood-opacity="0" result="BackgroundImageFix"/>
<feBlend mode="normal" in="SourceGraphic" in2="BackgroundImageFix" result="shape"/>
<feGaussianBlur stdDeviation="6.55251" result="effect1_foregroundBlur_405_1554"/>
</filter>
<filter id="filter8_f_405_1554" x="9.20496" y="22.6307" width="19.1799" height="19.1799" filterUnits="userSpaceOnUse" color-interpolation-filters="sRGB">
<feFlood flood-opacity="0" result="BackgroundImageFix"/>
<feBlend mode="normal" in="SourceGraphic" in2="BackgroundImageFix" result="shape"/>
<feGaussianBlur stdDeviation="3.19635" result="effect1_foregroundBlur_405_1554"/>
</filter>
<filter id="filter9_f_405_1554" x="21.4807" y="107.782" width="19.562" height="19.562" filterUnits="userSpaceOnUse" color-interpolation-filters="sRGB">
<feFlood flood-opacity="0" result="BackgroundImageFix"/>
<feBlend mode="normal" in="SourceGraphic" in2="BackgroundImageFix" result="shape"/>
<feGaussianBlur stdDeviation="3.93151" result="effect1_foregroundBlur_405_1554"/>
</filter>
<filter id="filter10_f_405_1554" x="26.1488" y="112.45" width="10.2298" height="10.2298" filterUnits="userSpaceOnUse" color-interpolation-filters="sRGB">
<feFlood flood-opacity="0" result="BackgroundImageFix"/>
<feBlend mode="normal" in="SourceGraphic" in2="BackgroundImageFix" result="shape"/>
<feGaussianBlur stdDeviation="1.91781" result="effect1_foregroundBlur_405_1554"/>
</filter>
<filter id="filter11_f_405_1554" x="130.137" y="107.782" width="19.562" height="19.562" filterUnits="userSpaceOnUse" color-interpolation-filters="sRGB">
<feFlood flood-opacity="0" result="BackgroundImageFix"/>
<feBlend mode="normal" in="SourceGraphic" in2="BackgroundImageFix" result="shape"/>
<feGaussianBlur stdDeviation="3.93151" result="effect1_foregroundBlur_405_1554"/>
</filter>
<filter id="filter12_f_405_1554" x="134.805" y="112.45" width="10.2298" height="10.2298" filterUnits="userSpaceOnUse" color-interpolation-filters="sRGB">
<feFlood flood-opacity="0" result="BackgroundImageFix"/>
<feBlend mode="normal" in="SourceGraphic" in2="BackgroundImageFix" result="shape"/>
<feGaussianBlur stdDeviation="1.91781" result="effect1_foregroundBlur_405_1554"/>
</filter>
<filter id="filter13_f_405_1554" x="227.137" y="107.137" width="19.562" height="19.562" filterUnits="userSpaceOnUse" color-interpolation-filters="sRGB">
<feFlood flood-opacity="0" result="BackgroundImageFix"/>
<feBlend mode="normal" in="SourceGraphic" in2="BackgroundImageFix" result="shape"/>
<feGaussianBlur stdDeviation="3.93151" result="effect1_foregroundBlur_405_1554"/>
</filter>
<filter id="filter14_f_405_1554" x="231.805" y="111.805" width="10.2298" height="10.2298" filterUnits="userSpaceOnUse" color-interpolation-filters="sRGB">
<feFlood flood-opacity="0" result="BackgroundImageFix"/>
<feBlend mode="normal" in="SourceGraphic" in2="BackgroundImageFix" result="shape"/>
<feGaussianBlur stdDeviation="1.91781" result="effect1_foregroundBlur_405_1554"/>
</filter>
<linearGradient id="paint0_linear_405_1554" x1="144.049" y1="-191.291" x2="112.673" y2="121.14" gradientUnits="userSpaceOnUse">
<stop offset="0.698828" stop-color="#004970"/>
<stop offset="1" stop-color="#0CFEFF" stop-opacity="0"/>
</linearGradient>
</defs>
</svg>
