<svg width="170" height="304" viewBox="0 0 170 304" fill="none" xmlns="http://www.w3.org/2000/svg">
<path d="M160.998 7.49293L18.465 7.49906C12.9424 7.4993 8.46546 11.9764 8.46546 17.4991L8.46546 286.022C8.46546 291.544 12.9423 296.021 18.4649 296.022L160.998 296.029" stroke="#B7EBEE" stroke-width="15"/>
<path d="M167.303 157.303C170.232 154.374 170.232 149.626 167.303 146.697L119.574 98.967C116.645 96.0381 111.896 96.0381 108.967 98.967C106.038 101.896 106.038 106.645 108.967 109.574L151.393 152L108.967 194.426C106.038 197.355 106.038 202.104 108.967 205.033C111.896 207.962 116.645 207.962 119.574 205.033L167.303 157.303ZM62 159.5H162V144.5H62V159.5Z" fill="#B7EBEE"/>
</svg>
