<svg width="1920" height="1080" viewBox="0 0 1920 1080" fill="none" xmlns="http://www.w3.org/2000/svg">
<g clip-path="url(#clip0_372_1366)">
<rect width="1920" height="1080" fill="#022F43"/>
<g filter="url(#filter0_f_372_1366)">
<path fill-rule="evenodd" clip-rule="evenodd" d="M958.5 47L414 550L958.5 1053L1503 550L958.5 47Z" fill="#018C8C"/>
</g>
<g filter="url(#filter1_f_372_1366)">
<path d="M887.419 35.2025C953.81 31.1959 991.335 30.677 1059.22 35.2025C1370.3 35.2555 1390.55 37.6619 1059.22 47.4615C990.517 60.2091 953.119 60.1499 887.419 47.4615C506.203 35.5543 568.272 33.922 887.419 35.2025Z" fill="url(#paint0_linear_372_1366)"/>
</g>
<g filter="url(#filter2_f_372_1366)">
<ellipse cx="980.744" cy="44" rx="67.9002" ry="6" fill="white"/>
</g>
<g filter="url(#filter3_f_372_1366)">
<ellipse cx="980.749" cy="44" rx="78.7025" ry="6" fill="#00FF94"/>
</g>
<path d="M589.177 27.5695C577.43 19.2393 567.668 8.49697 562.811 -2.78271H1363.08C1359.09 5.26262 1351.16 15.2567 1340.74 23.9772C1329.6 33.2986 1315.74 41.0669 1301.03 43.4743H628.683C615.81 42.2692 601.475 36.2905 589.177 27.5695Z" fill="url(#paint1_linear_372_1366)" stroke="url(#paint2_linear_372_1366)" stroke-width="2.43458"/>
<g clip-path="url(#clip1_372_1366)">
<path d="M621.868 18.048H624.82V18.264C624.724 18.36 624.66 18.472 624.628 18.6C624.612 18.712 624.604 18.896 624.604 19.152V30.792H631.468V33H621.868V18.048ZM640.948 33.288C639.108 33.288 637.716 32.616 636.772 31.272C635.828 29.928 635.356 28.016 635.356 25.536C635.356 23.12 635.828 21.232 636.772 19.872C637.716 18.512 639.108 17.832 640.948 17.832C642.756 17.832 644.132 18.512 645.076 19.872C646.036 21.232 646.516 23.12 646.516 25.536C646.516 28.016 646.036 29.928 645.076 31.272C644.132 32.616 642.756 33.288 640.948 33.288ZM640.948 31.08C641.844 31.08 642.548 30.624 643.06 29.712C643.572 28.784 643.828 27.384 643.828 25.512C643.828 23.768 643.572 22.424 643.06 21.48C642.548 20.52 641.844 20.04 640.948 20.04C640.02 20.04 639.3 20.52 638.788 21.48C638.292 22.424 638.044 23.768 638.044 25.512C638.044 27.384 638.292 28.784 638.788 29.712C639.3 30.624 640.02 31.08 640.948 31.08ZM650.188 18.048H653.02L658.084 27.888L657.94 18.048H660.58V18.264C660.5 18.36 660.444 18.472 660.412 18.6C660.396 18.712 660.388 18.896 660.388 19.152V33H657.868L652.636 22.512V33H650.188V18.048ZM670.324 33.264C669.076 33.264 667.996 32.944 667.084 32.304C666.188 31.664 665.5 30.768 665.02 29.616C664.54 28.464 664.3 27.12 664.3 25.584C664.3 24 664.5 22.704 664.9 21.696C665.316 20.672 665.836 19.88 666.46 19.32C667.1 18.744 667.764 18.352 668.452 18.144C669.14 17.92 669.756 17.808 670.3 17.808C671.276 17.808 672.188 18.04 673.036 18.504C673.9 18.952 674.556 19.592 675.004 20.424L673.42 21.984L673.276 22.152L673.108 21.984C673.092 21.856 673.06 21.736 673.012 21.624C672.98 21.496 672.884 21.328 672.724 21.12C672.452 20.8 672.132 20.544 671.764 20.352C671.412 20.16 670.948 20.064 670.372 20.064C669.78 20.064 669.22 20.232 668.692 20.568C668.18 20.904 667.764 21.464 667.444 22.248C667.14 23.016 666.988 24.048 666.988 25.344C666.988 27.264 667.292 28.696 667.9 29.64C668.524 30.584 669.332 31.056 670.324 31.056C670.724 31.056 671.116 31.008 671.5 30.912C671.9 30.8 672.268 30.6 672.604 30.312V27.552H670.132V25.296H675.052V31.704C674.332 32.28 673.572 32.688 672.772 32.928C671.972 33.152 671.156 33.264 670.324 33.264ZM697.084 33V20.328H693.052V18.048H703.924V20.328H699.676V33H697.084ZM708.124 33V18.048H717.868V20.256H710.764V24.096H716.596V26.328H710.764V30.792H717.796V33H708.124ZM722.38 33V18.048H727.108C728.932 18.048 730.268 18.448 731.116 19.248C731.964 20.048 732.388 21.112 732.388 22.44C732.388 22.984 732.268 23.536 732.028 24.096C731.804 24.64 731.476 25.128 731.044 25.56C730.628 25.992 730.14 26.312 729.58 26.52L732.796 33H729.94L726.916 26.784H725.116V33H722.38ZM725.116 24.528H727.3C728.068 24.528 728.644 24.352 729.028 24C729.412 23.632 729.604 23.136 729.604 22.512C729.604 21.936 729.412 21.44 729.028 21.024C728.644 20.608 728.068 20.4 727.3 20.4H725.116V24.528ZM736.468 33V18.048H738.844L741.748 24.912L744.652 18.024H747.028V33H744.676V22.56L742.324 28.056H741.004L738.796 22.584V33H736.468ZM765.652 33V18.048H770.74C771.892 18.048 772.844 18.248 773.596 18.648C774.348 19.048 774.9 19.584 775.252 20.256C775.62 20.912 775.804 21.64 775.804 22.44C775.804 23.224 775.628 23.944 775.276 24.6C774.924 25.24 774.38 25.76 773.644 26.16C772.908 26.544 771.98 26.736 770.86 26.736H768.412V33H765.652ZM768.412 24.48H770.668C771.436 24.48 772.02 24.288 772.42 23.904C772.82 23.52 773.02 23.032 773.02 22.44C773.02 21.848 772.82 21.36 772.42 20.976C772.02 20.592 771.444 20.4 770.692 20.4H768.412V24.48ZM787.876 33L786.844 29.52H782.932L781.876 33H779.188L784.252 17.952H785.548L790.612 33H787.876ZM784.9 22.968L783.508 27.576H786.268L784.9 22.968ZM799.108 33.264C798.116 33.264 797.18 33.12 796.3 32.832C795.436 32.528 794.716 32.072 794.14 31.464L795.46 29.232L795.556 29.04L795.772 29.16C795.804 29.288 795.844 29.416 795.892 29.544C795.956 29.656 796.084 29.8 796.276 29.976C796.676 30.28 797.116 30.528 797.596 30.72C798.092 30.912 798.628 31.008 799.204 31.008C799.956 31.008 800.564 30.848 801.028 30.528C801.508 30.192 801.748 29.704 801.748 29.064C801.748 28.744 801.676 28.448 801.532 28.176C801.388 27.888 801.1 27.6 800.668 27.312C800.252 27.024 799.628 26.688 798.796 26.304C797.772 25.856 796.956 25.408 796.348 24.96C795.756 24.496 795.332 24 795.076 23.472C794.82 22.928 794.692 22.32 794.692 21.648C794.692 20.912 794.892 20.256 795.292 19.68C795.708 19.104 796.276 18.648 796.996 18.312C797.716 17.976 798.54 17.808 799.468 17.808C801.308 17.808 802.82 18.448 804.004 19.728L802.42 21.552L802.276 21.72L802.084 21.576C802.068 21.448 802.036 21.328 801.988 21.216C801.956 21.088 801.852 20.928 801.676 20.736C801.372 20.448 801.044 20.256 800.692 20.16C800.356 20.064 799.956 20.016 799.492 20.016C798.836 20.016 798.316 20.168 797.932 20.472C797.548 20.776 797.356 21.128 797.356 21.528C797.356 21.848 797.428 22.136 797.572 22.392C797.716 22.648 798.004 22.92 798.436 23.208C798.884 23.496 799.564 23.84 800.476 24.24C801.484 24.704 802.276 25.16 802.852 25.608C803.428 26.04 803.828 26.52 804.052 27.048C804.292 27.576 804.412 28.192 804.412 28.896C804.412 29.616 804.228 30.312 803.86 30.984C803.492 31.656 802.916 32.208 802.132 32.64C801.348 33.056 800.34 33.264 799.108 33.264ZM813.508 33.264C812.516 33.264 811.58 33.12 810.7 32.832C809.836 32.528 809.116 32.072 808.54 31.464L809.86 29.232L809.956 29.04L810.172 29.16C810.204 29.288 810.244 29.416 810.292 29.544C810.356 29.656 810.484 29.8 810.676 29.976C811.076 30.28 811.516 30.528 811.996 30.72C812.492 30.912 813.028 31.008 813.604 31.008C814.356 31.008 814.964 30.848 815.428 30.528C815.908 30.192 816.148 29.704 816.148 29.064C816.148 28.744 816.076 28.448 815.932 28.176C815.788 27.888 815.5 27.6 815.068 27.312C814.652 27.024 814.028 26.688 813.196 26.304C812.172 25.856 811.356 25.408 810.748 24.96C810.156 24.496 809.732 24 809.476 23.472C809.22 22.928 809.092 22.32 809.092 21.648C809.092 20.912 809.292 20.256 809.692 19.68C810.108 19.104 810.676 18.648 811.396 18.312C812.116 17.976 812.94 17.808 813.868 17.808C815.708 17.808 817.22 18.448 818.404 19.728L816.82 21.552L816.676 21.72L816.484 21.576C816.468 21.448 816.436 21.328 816.388 21.216C816.356 21.088 816.252 20.928 816.076 20.736C815.772 20.448 815.444 20.256 815.092 20.16C814.756 20.064 814.356 20.016 813.892 20.016C813.236 20.016 812.716 20.168 812.332 20.472C811.948 20.776 811.756 21.128 811.756 21.528C811.756 21.848 811.828 22.136 811.972 22.392C812.116 22.648 812.404 22.92 812.836 23.208C813.284 23.496 813.964 23.84 814.876 24.24C815.884 24.704 816.676 25.16 817.252 25.608C817.828 26.04 818.228 26.52 818.452 27.048C818.692 27.576 818.812 28.192 818.812 28.896C818.812 29.616 818.628 30.312 818.26 30.984C817.892 31.656 817.316 32.208 816.532 32.64C815.748 33.056 814.74 33.264 813.508 33.264ZM823.78 33V30.816H826.708V20.232H823.948V18.048H832.204V20.232H829.276V30.816H832.324V33H823.78ZM841.684 33.048L836.884 18.048H839.572L842.716 28.56L845.644 18.048H848.26L843.508 33.048H841.684ZM852.124 33V18.048H861.868V20.256H854.764V24.096H860.596V26.328H854.764V30.792H861.796V33H852.124ZM885.7 33.312C884.052 33.312 882.78 32.824 881.884 31.848C881.004 30.872 880.564 29.512 880.564 27.768V18.048H883.468V18.264C883.388 18.36 883.332 18.472 883.3 18.6C883.284 18.712 883.276 18.896 883.276 19.152V27.792C883.276 28.816 883.452 29.624 883.804 30.216C884.156 30.808 884.796 31.104 885.724 31.104C886.652 31.104 887.3 30.808 887.668 30.216C888.036 29.624 888.22 28.792 888.22 27.72V18.048H890.86V27.696C890.86 29.616 890.38 31.032 889.42 31.944C888.46 32.856 887.22 33.312 885.7 33.312ZM894.988 18.048H897.82L902.884 27.888L902.74 18.048H905.38V18.264C905.3 18.36 905.244 18.472 905.212 18.6C905.196 18.712 905.188 18.896 905.188 19.152V33H902.668L897.436 22.512V33H894.988V18.048ZM909.508 33V18.048H913.372C914.684 18.048 915.7 18.232 916.42 18.6C917.156 18.952 917.772 19.456 918.268 20.112C918.764 20.784 919.148 21.584 919.42 22.512C919.708 23.44 919.852 24.48 919.852 25.632C919.82 27.136 919.572 28.448 919.108 29.568C918.644 30.672 917.916 31.52 916.924 32.112C915.948 32.704 914.668 33 913.084 33H909.508ZM912.148 30.888H913.012C914.036 30.888 914.852 30.672 915.46 30.24C916.084 29.808 916.532 29.2 916.804 28.416C917.076 27.632 917.204 26.712 917.188 25.656C917.188 24.552 917.068 23.592 916.828 22.776C916.604 21.96 916.204 21.328 915.628 20.88C915.052 20.432 914.268 20.208 913.276 20.208H912.148V30.888ZM924.124 33V18.048H933.868V20.256H926.764V24.096H932.596V26.328H926.764V30.792H933.796V33H924.124ZM938.38 33V18.048H943.108C944.932 18.048 946.268 18.448 947.116 19.248C947.964 20.048 948.388 21.112 948.388 22.44C948.388 22.984 948.268 23.536 948.028 24.096C947.804 24.64 947.476 25.128 947.044 25.56C946.628 25.992 946.14 26.312 945.58 26.52L948.796 33H945.94L942.916 26.784H941.116V33H938.38ZM941.116 24.528H943.3C944.068 24.528 944.644 24.352 945.028 24C945.412 23.632 945.604 23.136 945.604 22.512C945.604 21.936 945.412 21.44 945.028 21.024C944.644 20.608 944.068 20.4 943.3 20.4H941.116V24.528ZM953.908 33L951.94 18.048H954.292L955.3 27.432L957.22 19.224H958.66L960.58 27.408L961.372 18.048H963.58L961.636 33H959.932L957.82 23.784L955.66 33H953.908ZM975.076 33L974.044 29.52H970.132L969.076 33H966.388L971.452 17.952H972.748L977.812 33H975.076ZM972.1 22.968L970.708 27.576H973.468L972.1 22.968ZM985.084 33V20.328H981.052V18.048H991.924V20.328H987.676V33H985.084ZM996.124 33V18.048H1005.87V20.256H998.764V24.096H1004.6V26.328H998.764V30.792H1005.8V33H996.124ZM1010.38 33V18.048H1015.11C1016.93 18.048 1018.27 18.448 1019.12 19.248C1019.96 20.048 1020.39 21.112 1020.39 22.44C1020.39 22.984 1020.27 23.536 1020.03 24.096C1019.8 24.64 1019.48 25.128 1019.04 25.56C1018.63 25.992 1018.14 26.312 1017.58 26.52L1020.8 33H1017.94L1014.92 26.784H1013.12V33H1010.38ZM1013.12 24.528H1015.3C1016.07 24.528 1016.64 24.352 1017.03 24C1017.41 23.632 1017.6 23.136 1017.6 22.512C1017.6 21.936 1017.41 21.44 1017.03 21.024C1016.64 20.608 1016.07 20.4 1015.3 20.4H1013.12V24.528ZM1043.91 33.264C1042.92 33.264 1041.98 33.12 1041.1 32.832C1040.24 32.528 1039.52 32.072 1038.94 31.464L1040.26 29.232L1040.36 29.04L1040.57 29.16C1040.6 29.288 1040.64 29.416 1040.69 29.544C1040.76 29.656 1040.88 29.8 1041.08 29.976C1041.48 30.28 1041.92 30.528 1042.4 30.72C1042.89 30.912 1043.43 31.008 1044 31.008C1044.76 31.008 1045.36 30.848 1045.83 30.528C1046.31 30.192 1046.55 29.704 1046.55 29.064C1046.55 28.744 1046.48 28.448 1046.33 28.176C1046.19 27.888 1045.9 27.6 1045.47 27.312C1045.05 27.024 1044.43 26.688 1043.6 26.304C1042.57 25.856 1041.76 25.408 1041.15 24.96C1040.56 24.496 1040.13 24 1039.88 23.472C1039.62 22.928 1039.49 22.32 1039.49 21.648C1039.49 20.912 1039.69 20.256 1040.09 19.68C1040.51 19.104 1041.08 18.648 1041.8 18.312C1042.52 17.976 1043.34 17.808 1044.27 17.808C1046.11 17.808 1047.62 18.448 1048.8 19.728L1047.22 21.552L1047.08 21.72L1046.88 21.576C1046.87 21.448 1046.84 21.328 1046.79 21.216C1046.76 21.088 1046.65 20.928 1046.48 20.736C1046.17 20.448 1045.84 20.256 1045.49 20.16C1045.16 20.064 1044.76 20.016 1044.29 20.016C1043.64 20.016 1043.12 20.168 1042.73 20.472C1042.35 20.776 1042.16 21.128 1042.16 21.528C1042.16 21.848 1042.23 22.136 1042.37 22.392C1042.52 22.648 1042.8 22.92 1043.24 23.208C1043.68 23.496 1044.36 23.84 1045.28 24.24C1046.28 24.704 1047.08 25.16 1047.65 25.608C1048.23 26.04 1048.63 26.52 1048.85 27.048C1049.09 27.576 1049.21 28.192 1049.21 28.896C1049.21 29.616 1049.03 30.312 1048.66 30.984C1048.29 31.656 1047.72 32.208 1046.93 32.64C1046.15 33.056 1045.14 33.264 1043.91 33.264ZM1058.5 33.312C1056.85 33.312 1055.58 32.824 1054.68 31.848C1053.8 30.872 1053.36 29.512 1053.36 27.768V18.048H1056.27V18.264C1056.19 18.36 1056.13 18.472 1056.1 18.6C1056.08 18.712 1056.08 18.896 1056.08 19.152V27.792C1056.08 28.816 1056.25 29.624 1056.6 30.216C1056.96 30.808 1057.6 31.104 1058.52 31.104C1059.45 31.104 1060.1 30.808 1060.47 30.216C1060.84 29.624 1061.02 28.792 1061.02 27.72V18.048H1063.66V27.696C1063.66 29.616 1063.18 31.032 1062.22 31.944C1061.26 32.856 1060.02 33.312 1058.5 33.312ZM1067.98 33V18.048H1072.71C1074.53 18.048 1075.87 18.448 1076.72 19.248C1077.56 20.048 1077.99 21.112 1077.99 22.44C1077.99 22.984 1077.87 23.536 1077.63 24.096C1077.4 24.64 1077.08 25.128 1076.64 25.56C1076.23 25.992 1075.74 26.312 1075.18 26.52L1078.4 33H1075.54L1072.52 26.784H1070.72V33H1067.98ZM1070.72 24.528H1072.9C1073.67 24.528 1074.24 24.352 1074.63 24C1075.01 23.632 1075.2 23.136 1075.2 22.512C1075.2 21.936 1075.01 21.44 1074.63 21.024C1074.24 20.608 1073.67 20.4 1072.9 20.4H1070.72V24.528ZM1086.48 33.048L1081.68 18.048H1084.37L1087.52 28.56L1090.44 18.048H1093.06L1088.31 33.048H1086.48ZM1096.92 33V18.048H1106.67V20.256H1099.56V24.096H1105.4V26.328H1099.56V30.792H1106.6V33H1096.92ZM1111.78 33V30.816H1114.71V20.232H1111.95V18.048H1120.2V20.232H1117.28V30.816H1120.32V33H1111.78ZM1125.87 18.048H1128.82V18.264C1128.72 18.36 1128.66 18.472 1128.63 18.6C1128.61 18.712 1128.6 18.896 1128.6 19.152V30.792H1135.47V33H1125.87V18.048ZM1140.27 18.048H1143.22V18.264C1143.12 18.36 1143.06 18.472 1143.03 18.6C1143.01 18.712 1143 18.896 1143 19.152V30.792H1149.87V33H1140.27V18.048ZM1162.28 33L1161.24 29.52H1157.33L1156.28 33H1153.59L1158.65 17.952H1159.95L1165.01 33H1162.28ZM1159.3 22.968L1157.91 27.576H1160.67L1159.3 22.968ZM1168.59 18.048H1171.42L1176.48 27.888L1176.34 18.048H1178.98V18.264C1178.9 18.36 1178.84 18.472 1178.81 18.6C1178.8 18.712 1178.79 18.896 1178.79 19.152V33H1176.27L1171.04 22.512V33H1168.59V18.048ZM1188.8 33.264C1187.71 33.264 1186.71 33 1185.8 32.472C1184.9 31.928 1184.18 31.088 1183.64 29.952C1183.11 28.816 1182.84 27.368 1182.84 25.608C1182.84 24.136 1183.02 22.904 1183.37 21.912C1183.74 20.904 1184.22 20.104 1184.81 19.512C1185.4 18.92 1186.05 18.496 1186.76 18.24C1187.48 17.968 1188.19 17.832 1188.89 17.832C1190.01 17.832 1190.97 18.088 1191.77 18.6C1192.59 19.112 1193.2 19.832 1193.62 20.76L1191.92 22.032L1191.72 22.152L1191.6 21.96C1191.62 21.848 1191.6 21.736 1191.56 21.624C1191.52 21.496 1191.44 21.32 1191.32 21.096C1190.96 20.68 1190.6 20.4 1190.21 20.256C1189.84 20.096 1189.45 20.016 1189.04 20.016C1188.43 20.016 1187.85 20.224 1187.31 20.64C1186.78 21.056 1186.35 21.672 1186.01 22.488C1185.69 23.288 1185.53 24.288 1185.53 25.488C1185.53 27.216 1185.84 28.576 1186.47 29.568C1187.11 30.544 1187.91 31.032 1188.87 31.032C1189.46 31.032 1189.97 30.904 1190.4 30.648C1190.84 30.392 1191.23 29.968 1191.58 29.376L1193.45 30.768C1192.89 31.68 1192.23 32.328 1191.46 32.712C1190.71 33.08 1189.82 33.264 1188.8 33.264ZM1197.72 33V18.048H1207.47V20.256H1200.36V24.096H1206.2V26.328H1200.36V30.792H1207.4V33H1197.72ZM1231.11 33.264C1230.12 33.264 1229.18 33.12 1228.3 32.832C1227.44 32.528 1226.72 32.072 1226.14 31.464L1227.46 29.232L1227.56 29.04L1227.77 29.16C1227.8 29.288 1227.84 29.416 1227.89 29.544C1227.96 29.656 1228.08 29.8 1228.28 29.976C1228.68 30.28 1229.12 30.528 1229.6 30.72C1230.09 30.912 1230.63 31.008 1231.2 31.008C1231.96 31.008 1232.56 30.848 1233.03 30.528C1233.51 30.192 1233.75 29.704 1233.75 29.064C1233.75 28.744 1233.68 28.448 1233.53 28.176C1233.39 27.888 1233.1 27.6 1232.67 27.312C1232.25 27.024 1231.63 26.688 1230.8 26.304C1229.77 25.856 1228.96 25.408 1228.35 24.96C1227.76 24.496 1227.33 24 1227.08 23.472C1226.82 22.928 1226.69 22.32 1226.69 21.648C1226.69 20.912 1226.89 20.256 1227.29 19.68C1227.71 19.104 1228.28 18.648 1229 18.312C1229.72 17.976 1230.54 17.808 1231.47 17.808C1233.31 17.808 1234.82 18.448 1236 19.728L1234.42 21.552L1234.28 21.72L1234.08 21.576C1234.07 21.448 1234.04 21.328 1233.99 21.216C1233.96 21.088 1233.85 20.928 1233.68 20.736C1233.37 20.448 1233.04 20.256 1232.69 20.16C1232.36 20.064 1231.96 20.016 1231.49 20.016C1230.84 20.016 1230.32 20.168 1229.93 20.472C1229.55 20.776 1229.36 21.128 1229.36 21.528C1229.36 21.848 1229.43 22.136 1229.57 22.392C1229.72 22.648 1230 22.92 1230.44 23.208C1230.88 23.496 1231.56 23.84 1232.48 24.24C1233.48 24.704 1234.28 25.16 1234.85 25.608C1235.43 26.04 1235.83 26.52 1236.05 27.048C1236.29 27.576 1236.41 28.192 1236.41 28.896C1236.41 29.616 1236.23 30.312 1235.86 30.984C1235.49 31.656 1234.92 32.208 1234.13 32.64C1233.35 33.056 1232.34 33.264 1231.11 33.264ZM1244.57 33V27.096L1240.11 18.048H1242.89L1245.99 24.288L1248.72 18.048H1251.39L1247.28 27.12V33H1244.57ZM1259.91 33.264C1258.92 33.264 1257.98 33.12 1257.1 32.832C1256.24 32.528 1255.52 32.072 1254.94 31.464L1256.26 29.232L1256.36 29.04L1256.57 29.16C1256.6 29.288 1256.64 29.416 1256.69 29.544C1256.76 29.656 1256.88 29.8 1257.08 29.976C1257.48 30.28 1257.92 30.528 1258.4 30.72C1258.89 30.912 1259.43 31.008 1260 31.008C1260.76 31.008 1261.36 30.848 1261.83 30.528C1262.31 30.192 1262.55 29.704 1262.55 29.064C1262.55 28.744 1262.48 28.448 1262.33 28.176C1262.19 27.888 1261.9 27.6 1261.47 27.312C1261.05 27.024 1260.43 26.688 1259.6 26.304C1258.57 25.856 1257.76 25.408 1257.15 24.96C1256.56 24.496 1256.13 24 1255.88 23.472C1255.62 22.928 1255.49 22.32 1255.49 21.648C1255.49 20.912 1255.69 20.256 1256.09 19.68C1256.51 19.104 1257.08 18.648 1257.8 18.312C1258.52 17.976 1259.34 17.808 1260.27 17.808C1262.11 17.808 1263.62 18.448 1264.8 19.728L1263.22 21.552L1263.08 21.72L1262.88 21.576C1262.87 21.448 1262.84 21.328 1262.79 21.216C1262.76 21.088 1262.65 20.928 1262.48 20.736C1262.17 20.448 1261.84 20.256 1261.49 20.16C1261.16 20.064 1260.76 20.016 1260.29 20.016C1259.64 20.016 1259.12 20.168 1258.73 20.472C1258.35 20.776 1258.16 21.128 1258.16 21.528C1258.16 21.848 1258.23 22.136 1258.37 22.392C1258.52 22.648 1258.8 22.92 1259.24 23.208C1259.68 23.496 1260.36 23.84 1261.28 24.24C1262.28 24.704 1263.08 25.16 1263.65 25.608C1264.23 26.04 1264.63 26.52 1264.85 27.048C1265.09 27.576 1265.21 28.192 1265.21 28.896C1265.21 29.616 1265.03 30.312 1264.66 30.984C1264.29 31.656 1263.72 32.208 1262.93 32.64C1262.15 33.056 1261.14 33.264 1259.91 33.264ZM1273.08 33V20.328H1269.05V18.048H1279.92V20.328H1275.68V33H1273.08ZM1284.12 33V18.048H1293.87V20.256H1286.76V24.096H1292.6V26.328H1286.76V30.792H1293.8V33H1284.12ZM1298.07 33V18.048H1300.44L1303.35 24.912L1306.25 18.024H1308.63V33H1306.28V22.56L1303.92 28.056H1302.6L1300.4 22.584V33H1298.07Z" fill="#89D2FF"/>
</g>
</g>
<defs>
<filter id="filter0_f_372_1366" x="138.7" y="-228.3" width="1639.6" height="1556.6" filterUnits="userSpaceOnUse" color-interpolation-filters="sRGB">
<feFlood flood-opacity="0" result="BackgroundImageFix"/>
<feBlend mode="normal" in="SourceGraphic" in2="BackgroundImageFix" result="shape"/>
<feGaussianBlur stdDeviation="137.65" result="effect1_foregroundBlur_372_1366"/>
</filter>
<filter id="filter1_f_372_1366" x="609.37" y="17.1" width="705.714" height="54.8" filterUnits="userSpaceOnUse" color-interpolation-filters="sRGB">
<feFlood flood-opacity="0" result="BackgroundImageFix"/>
<feBlend mode="normal" in="SourceGraphic" in2="BackgroundImageFix" result="shape"/>
<feGaussianBlur stdDeviation="7.45" result="effect1_foregroundBlur_372_1366"/>
</filter>
<filter id="filter2_f_372_1366" x="897.749" y="22.9056" width="165.99" height="42.1888" filterUnits="userSpaceOnUse" color-interpolation-filters="sRGB">
<feFlood flood-opacity="0" result="BackgroundImageFix"/>
<feBlend mode="normal" in="SourceGraphic" in2="BackgroundImageFix" result="shape"/>
<feGaussianBlur stdDeviation="7.5472" result="effect1_foregroundBlur_372_1366"/>
</filter>
<filter id="filter3_f_372_1366" x="621.827" y="-242.22" width="717.846" height="572.44" filterUnits="userSpaceOnUse" color-interpolation-filters="sRGB">
<feFlood flood-opacity="0" result="BackgroundImageFix"/>
<feBlend mode="normal" in="SourceGraphic" in2="BackgroundImageFix" result="shape"/>
<feGaussianBlur stdDeviation="140.11" result="effect1_foregroundBlur_372_1366"/>
</filter>
<linearGradient id="paint0_linear_372_1366" x1="962.568" y1="58.6963" x2="962.568" y2="26.6607" gradientUnits="userSpaceOnUse">
<stop offset="0.0772918" stop-color="#0CFEFF"/>
<stop offset="1" stop-color="#0CFEFF" stop-opacity="0"/>
</linearGradient>
<linearGradient id="paint1_linear_372_1366" x1="1013.72" y1="38.6052" x2="1013.72" y2="-4" gradientUnits="userSpaceOnUse">
<stop stop-color="#1539AB"/>
<stop offset="1" stop-color="#4773FF"/>
</linearGradient>
<linearGradient id="paint2_linear_372_1366" x1="1024.99" y1="86.0794" x2="1023.41" y2="-4.03821" gradientUnits="userSpaceOnUse">
<stop offset="0.211625" stop-color="#0BF6F7"/>
<stop offset="0.6734" stop-color="white" stop-opacity="0"/>
</linearGradient>
<clipPath id="clip0_372_1366">
<rect width="1920" height="1080" fill="white"/>
</clipPath>
<clipPath id="clip1_372_1366">
<rect width="689" height="37" fill="white" transform="translate(620.5 7)"/>
</clipPath>
</defs>
</svg>
