<svg width="59" height="50" viewBox="0 0 59 50" fill="none" xmlns="http://www.w3.org/2000/svg">
<path fill-rule="evenodd" clip-rule="evenodd" d="M4.65693 23.8238C10.9869 15.4176 19.5653 10.2422 29.0248 10.2422C38.4843 10.2422 47.0627 15.4176 53.3927 23.8339C53.9092 24.5226 53.9092 25.4848 53.3927 26.1735C47.0627 34.5797 38.4843 39.7551 29.0248 39.7551C19.5653 39.7551 10.9869 34.5797 4.65693 26.1633C4.1404 25.4746 4.1404 24.5125 4.65693 23.8238ZM18.6335 24.3201C18.2385 30.6095 23.424 35.7849 29.7034 35.3899C34.8788 35.0557 39.0819 30.8526 39.4161 25.6772C39.8111 19.3877 34.6256 14.2123 28.3462 14.6073C23.1607 14.9314 18.9576 19.1345 18.6335 24.3201Z" fill="#7AFEFF"/>
<path d="M29.3894 30.5893C26.0067 30.8019 23.2114 28.0168 23.4342 24.634C23.6063 21.8387 25.875 19.5802 28.6703 19.3979C32.0531 19.1852 34.8484 21.9704 34.6256 25.3531C34.4433 28.1586 32.1746 30.4171 29.3894 30.5893Z" fill="#00B76A"/>
</svg>
