<svg width="3141" height="1036" viewBox="0 0 3141 1036" fill="none" xmlns="http://www.w3.org/2000/svg">
<path d="M627.4 354.102C503 354.102 378.6 354.102 254.3 354.102C250.5 354.102 246.6 354.202 242.8 354.102C236.2 353.902 230.3 356.102 224.8 359.602C220.9 362.102 217.5 365.302 214.6 368.902C211.7 372.502 210.1 376.702 208.8 381.102C207.7 385.002 207.4 388.902 207.4 392.902C207.4 444.402 207.4 495.902 207.4 547.502C207.4 634.902 207.4 722.402 207.4 809.802C207.4 813.402 207.4 817.002 208.1 820.502C209.3 827.602 213.1 832.602 219.1 836.102C223.6 838.802 228.4 839.402 233.6 838.702C239 837.902 243 834.902 246.7 831.402C253 825.302 259.1 819.002 265.2 812.802C272.2 805.802 279.1 798.802 286.1 791.902C291.9 786.102 297.7 780.402 303.5 774.602C309.5 768.602 315.5 762.502 321.5 756.502C327.6 750.402 333.8 744.302 339.9 738.202C346.1 732.002 352.4 725.702 358.6 719.402C364.5 713.502 370.4 707.602 376.3 701.702C382.5 695.502 388.7 689.202 395 682.902C401 676.902 407.1 670.902 413.1 664.902C419.5 658.502 425.8 652.002 432.2 645.602C438 639.802 443.9 634.102 449.7 628.302C453.6 624.402 457.5 620.302 461.4 616.402C466.7 611.102 472.1 605.902 477.4 600.702C481.8 596.302 486.1 591.802 490.5 587.402C496.3 581.602 502.2 575.902 508 570.102C511.9 566.202 515.8 562.102 519.7 558.202C525.2 552.702 530.8 547.302 536.3 541.802C540.5 537.602 544.5 533.402 548.7 529.202C554.3 523.602 559.9 518.202 565.5 512.602C569.6 508.502 573.6 504.302 577.7 500.202C582.7 495.202 587.7 490.202 592.7 485.202C597.4 480.502 602 475.902 606.7 471.202C611.6 466.302 616.6 461.302 621.5 456.302C624.3 453.502 627.2 450.702 630.1 448.102C633.5 445.002 637.6 443.502 642.2 442.802C647.6 441.902 653 442.102 658.4 442.102C694.7 442.102 731 442.102 767.3 442.102C837.4 442.102 907.4 442.102 977.5 442.102C982.8 442.102 988.1 441.902 993.3 442.102C996.6 442.302 1000 442.702 1003.2 443.602C1010.9 445.902 1015.7 451.302 1017.8 458.902C1018.5 461.302 1018.7 463.902 1018.7 466.502C1018.7 581.302 1018.7 696.102 1018.6 810.902C1018.6 823.902 1018.6 837.002 1018.8 850.002C1018.8 856.202 1017.5 855.102 1013.7 855.102C968.9 855.102 924.1 855.102 879.3 855.102C877.5 855.102 875.8 855.102 874 855.102C871.9 855.002 871.6 854.602 871.5 852.402C871.5 851.402 871.5 850.302 871.5 849.302C871.5 727.202 871.5 605.102 871.5 483.002C871.5 480.202 871.3 477.202 870.4 474.502C868.9 469.502 866 465.402 861.4 462.302C855.9 458.702 850 458.302 843.9 459.102C840.6 459.502 837.8 461.402 835.3 463.502C833.7 464.802 832.4 466.402 830.9 467.802C829.5 469.102 827.9 470.202 826.6 471.502C824.4 473.602 822.2 475.902 820 478.002C816.1 481.802 812.1 485.602 808.2 489.402C803.7 493.702 799.2 497.902 794.7 502.202C789.6 507.102 784.5 511.902 779.4 516.902C775.6 520.602 772.1 524.502 768.2 527.902C764.1 531.402 760.4 535.402 756.5 539.102C753.3 542.102 750.5 545.602 747.1 548.302C743.1 551.502 739.8 555.402 736 558.802C730.2 564.102 724.5 569.602 718.8 575.102C714.4 579.402 710.1 583.702 705.7 588.002C700.2 593.402 694.5 598.702 689 604.002C681.5 611.302 674 618.702 666.5 626.002C664.1 628.302 661.6 630.502 659.1 632.802C657.4 634.402 655.7 636.102 654 637.802C651 640.702 648.1 643.602 645.1 646.502C642.1 649.402 638.9 652.102 635.9 655.102C632.2 658.702 628.8 662.602 624.9 666.002C621.4 669.102 618.3 672.602 614.7 675.602C612.9 677.102 611.4 679.102 609.7 680.702C606.5 683.802 603.1 686.702 599.9 689.802C596.7 692.802 593.7 696.002 590.6 699.102C587.9 701.802 585.1 704.402 582.3 707.002C579.7 709.502 577.2 712.002 574.6 714.402C570.1 718.502 566.1 723.202 561.2 727.002C558.2 729.302 555.7 732.302 552.9 734.902C551.5 736.202 550.1 737.502 548.8 738.902C547.4 740.302 546.1 741.902 544.7 743.202C542.9 744.902 541 746.402 539.2 748.102C534.2 753.002 529.2 757.902 524.2 762.802C519.3 767.602 514.4 772.302 509.5 777.102C504.5 781.902 499.5 786.602 494.5 791.402C490.4 795.302 486.6 799.502 482.4 803.302C475.6 809.402 469.4 816.202 462.6 822.302C454.7 829.302 447.6 837.302 439.7 844.302C437.1 846.602 434.3 848.802 431.6 851.002C428.1 853.802 424 854.502 419.7 854.802C418.3 854.902 416.8 854.802 415.4 854.802C349.2 854.802 282.9 854.802 216.7 854.802C172.5 854.802 128.4 854.802 84.2 854.802C80.9 854.802 77.6 854.402 74.6 853.302C70 851.502 66.5 848.502 63.8 844.302C61 839.902 60.5 835.202 60.5 830.102C60.5 785.702 60.5 741.302 60.5 696.902C60.5 635.902 60.5 574.802 60.5 513.802C60.5 510.902 60.7 507.902 61.2 505.002C61.9 500.502 64.6 497.002 67.7 493.802C71 490.402 74.5 487.102 77.8 483.702C82.1 479.402 86.3 475.102 90.5 470.802C96.3 465.002 102.2 459.302 107.9 453.502C111.8 449.602 115.6 445.602 119.4 441.802C124.8 436.502 130.2 431.202 135.6 425.902C139.8 421.702 143.9 417.502 148 413.302C151.2 410.102 154.4 406.902 157.6 403.702C161.6 399.702 165.5 395.602 169.5 391.702C175.3 385.902 181.2 380.202 187 374.402C191 370.402 194.9 366.402 198.9 362.302C204 357.202 209.1 352.002 214.2 346.902C218.7 342.402 223.2 337.902 227.7 333.402C233.4 327.702 239.1 322.102 244.8 316.502C248.4 313.002 251.8 309.402 255.4 305.802C259.1 302.102 262.9 298.502 266.6 294.702C270.8 290.502 274.8 286.302 279 282.102C282.1 279.002 285.2 276.002 288.3 272.902C292.1 269.102 295.9 265.202 299.7 261.402C305.9 255.202 312.2 249.002 318.5 242.702C322.3 238.902 326 235.102 329.8 231.302C336.4 224.702 342.9 218.102 349.6 211.602C353.3 208.102 357.8 206.202 363 206.102C365.7 206.102 368.4 206.102 371.2 206.102C578.6 206.102 786 206.102 993.4 206.102C1000.2 206.102 1007 206.102 1013.8 206.102C1014.8 206.102 1015.7 206.102 1016.7 206.102C1018 206.102 1018.6 206.802 1018.7 208.002C1018.7 208.602 1018.7 209.302 1018.7 209.902C1018.7 249.302 1018.6 288.602 1018.6 328.002C1018.6 334.602 1018.6 341.102 1018.7 347.702C1018.7 348.902 1018.7 350.102 1018.7 351.302C1018.6 352.802 1018.1 353.302 1016.6 353.402C1015.7 353.402 1014.8 353.402 1014 353.402C885.1 353.402 756.3 353.402 627.4 353.402V354.102Z" fill="black"/>
<mask id="mask0_629_2182" style="mask-type:luminance" maskUnits="userSpaceOnUse" x="871" y="477" width="148" height="380">
<path d="M1018.5 477.301H871.102V856.201H1018.5V477.301Z" fill="white"/>
</mask>
<g mask="url(#mask0_629_2182)">
<path d="M871.102 477.301V856.201H1018.5V477.301H871.102Z" fill="url(#paint0_linear_629_2182)"/>
</g>
<path d="M1229.9 415.298C1260.9 415.298 1280.8 402.898 1290.8 383.698H1291.4L1296.7 410.598H1334.8V298.198H1239.6V336.598H1279.8C1279.2 356.998 1262 371.798 1237.5 371.798C1200.5 371.798 1187.2 344.598 1187.2 304.698C1187.2 264.798 1200.5 237.898 1235.4 237.898C1270.3 237.898 1274.4 254.798 1278.3 269.198H1331.5C1326.5 228.698 1294.2 194.398 1236.3 194.398C1178.4 194.398 1134 241.098 1134 304.698C1134 368.298 1169.8 415.298 1229.8 415.298H1229.9Z" fill="#1646EE"/>
<path d="M1439.9 415.299C1503.8 415.299 1528.3 386.899 1528.3 334.299V199.199H1475.1V334.299C1475.1 361.799 1463.3 371.899 1439.9 371.899C1416.5 371.899 1404.7 361.899 1404.7 334.299V199.199H1351.5V334.299C1351.5 386.899 1376 415.299 1439.9 415.299Z" fill="#1646EE"/>
<path d="M1533.7 410.602H1586.9L1600.5 366.502H1673L1686.6 410.602H1739.8L1663.5 199.102H1610.3L1533.7 410.602ZM1612.6 326.002L1636.6 247.902H1637.2L1661.2 326.002H1612.7H1612.6Z" fill="#1646EE"/>
<path d="M1747.2 410.602H1800.4V337.002H1833.5C1878.8 337.002 1859.5 401.802 1869.9 410.602H1925.2V407.602C1913.1 404.102 1932.3 322.102 1879.3 313.002V312.402C1905.6 306.502 1922.2 288.702 1922.2 260.602C1922.2 220.702 1893.8 199.102 1846.8 199.102H1747.1V410.602H1747.2ZM1800.4 293.502V242.602H1836.5C1857.8 242.602 1869 250.302 1869 268.002C1869 285.702 1857.8 293.402 1836.5 293.402H1800.4V293.502Z" fill="#1646EE"/>
<path d="M1938.3 410.602H2035C2093.9 410.602 2126.4 373.002 2126.4 305.002C2126.4 237.002 2090.9 199.102 2032.1 199.102H1938.3V410.602ZM1991.5 367.102V242.602H2026.7C2059.8 242.602 2073.1 266.602 2073.1 305.002C2073.1 343.402 2059.8 367.102 2026.7 367.102H1991.5Z" fill="#1646EE"/>
<path d="M2139.7 410.602H2192.9V199.102H2139.7V410.602Z" fill="#1646EE"/>
<path d="M2214.5 410.602H2267.7V284.902H2268.3L2342.2 410.602H2395.5V199.102H2342.2V324.802H2341.6L2267.7 199.102H2214.5V410.602Z" fill="#1646EE"/>
<path d="M2504.6 415.298C2535.6 415.298 2555.5 402.898 2565.5 383.698H2566.1L2571.4 410.598H2609.5V298.198H2514.3V336.598H2554.5C2553.9 356.998 2536.7 371.798 2512.2 371.798C2475.2 371.798 2461.9 344.598 2461.9 304.698C2461.9 264.798 2475.2 237.898 2510.1 237.898C2545 237.898 2549.1 254.798 2553 269.198H2606.2C2601.2 228.698 2568.9 194.398 2511 194.398C2453.1 194.398 2408.7 241.098 2408.7 304.698C2408.7 368.298 2444.5 415.298 2504.5 415.298H2504.6Z" fill="#1646EE"/>
<path d="M2627.7 410.6H2789.8V367.1H2681V323.6H2773.3V280.1H2681V242.5H2788.1V199H2627.8V410.5L2627.7 410.6Z" fill="#1646EE"/>
<path d="M2806 410.602H2859.2V337.002H2892.3C2937.6 337.002 2918.3 401.802 2928.7 410.602H2984V407.602C2971.9 404.102 2991.1 322.102 2938.1 313.002V312.402C2964.4 306.502 2981 288.702 2981 260.602C2981 220.702 2952.6 199.102 2905.6 199.102H2805.9V410.602H2806ZM2859.3 293.502V242.602H2895.4C2916.7 242.602 2927.9 250.302 2927.9 268.002C2927.9 285.702 2916.7 293.402 2895.4 293.402H2859.3V293.502Z" fill="#1646EE"/>
<path d="M1128.8 638.2H1153.7L1170.1 592.2H1238.1L1254.5 638.2H1279.4L1216.8 470.5H1191.2L1128.8 638.2ZM1176 572.8L1203.9 494.2H1204.4L1232.3 572.8H1176Z" fill="#222323"/>
<path d="M1304.3 638.2H1371.8C1419.4 638.2 1443.6 605.1 1443.6 554.7C1443.6 504.3 1419.2 470.5 1371.6 470.5H1304.3V638.2ZM1328.9 617.6V491H1369.2C1402.7 491 1418.7 515.9 1418.7 554.8C1418.7 593.7 1401.8 617.7 1368.5 617.7H1328.9V617.6Z" fill="#222323"/>
<path d="M1520.7 638.2H1545.8L1605.1 470.5H1579.1L1533.3 606.3H1533.1L1487.6 470.5H1461.3L1520.6 638.2H1520.7Z" fill="#222323"/>
<path d="M1617.4 638.2H1642.3L1658.7 592.2H1726.7L1743.1 638.2H1768L1705.4 470.5H1679.8L1617.4 638.2ZM1664.5 572.8L1692.4 494.2H1692.9L1720.8 572.8H1664.5Z" fill="#222323"/>
<path d="M1792.8 638.2H1817.7V509.9H1818.2L1901 638.2H1926.8V470.5H1901.9V598.8H1901.4L1818.6 470.5H1792.8V638.2Z" fill="#222323"/>
<path d="M2035.8 641.499C2076.6 641.499 2101.9 615.199 2106.2 577.899H2081.3C2078 601.299 2063 620.799 2034.9 620.799C2006.8 620.799 1982.1 593.399 1982.1 554.199C1982.1 514.999 1999.2 487.799 2035.3 487.799C2071.4 487.799 2076.4 504.399 2079.9 526.299H2104.8C2100.3 491.599 2075.9 467.199 2036.3 467.199C1996.7 467.199 1957.3 503.799 1957.3 554.199C1957.3 604.599 1986.4 641.499 2035.9 641.499H2035.8Z" fill="#222323"/>
<path d="M2135 638.2H2255.5V617.6H2159.8V560.8H2243.8V540.2H2159.8V490.9H2253.6V470.5H2134.9V638.2H2135Z" fill="#222323"/>
<path d="M2287.2 638.2H2354.7C2402.3 638.2 2426.5 605.1 2426.5 554.7C2426.5 504.3 2402.1 470.5 2354.5 470.5H2287.2V638.2ZM2311.8 617.6V491H2352.1C2385.6 491 2401.6 515.9 2401.6 554.8C2401.6 593.7 2384.7 617.7 2351.4 617.7H2311.8V617.6Z" fill="#222323"/>
<path d="M1186.5 856.302H1211.4V709.002H1265.6V688.602H1132.4V709.002H1186.6V856.302H1186.5Z" fill="#222323"/>
<path d="M1293.7 856.302H1414.2V835.702H1318.5V778.902H1402.5V758.302H1318.5V709.002H1412.3V688.602H1293.6V856.302H1293.7Z" fill="#222323"/>
<path d="M1517.9 859.499C1558.7 859.499 1584 833.199 1588.3 795.899H1563.4C1560.1 819.299 1545.1 838.799 1517 838.799C1488.9 838.799 1464.2 811.399 1464.2 772.199C1464.2 732.999 1481.3 705.799 1517.4 705.799C1553.5 705.799 1558.5 722.399 1562 744.299H1586.9C1582.4 709.599 1558 685.199 1518.4 685.199C1478.8 685.199 1439.4 721.799 1439.4 772.199C1439.4 822.599 1468.5 859.499 1518 859.499H1517.9Z" fill="#222323"/>
<path d="M1617.1 856.302H1642V779.602H1724.3V856.302H1749.2V688.602H1724.3V759.002H1642V688.602H1617.1V856.302Z" fill="#222323"/>
<path d="M1786.2 856.302H1811.1V728.002H1811.6L1894.4 856.302H1920.2V688.602H1895.3V816.902H1894.8L1812 688.602H1786.2V856.302Z" fill="#222323"/>
<path d="M2030.6 859.499C2080.1 859.499 2110.8 822.699 2110.8 772.199C2110.8 721.699 2080.1 685.199 2030.6 685.199C1981.1 685.199 1950.6 721.799 1950.6 772.199C1950.6 822.599 1980.9 859.499 2030.6 859.499ZM2030.6 838.899C1995.4 838.899 1975.5 810.799 1975.5 772.299C1975.5 733.799 1995.4 705.899 2030.6 705.899C2065.8 705.899 2086 733.799 2086 772.299C2086 810.799 2065.8 838.899 2030.6 838.899Z" fill="#222323"/>
<path d="M2141.1 856.299H2251.3V835.699H2165.9V688.699H2141V856.399L2141.1 856.299Z" fill="#222323"/>
<path d="M2353.3 859.499C2402.8 859.499 2433.5 822.699 2433.5 772.199C2433.5 721.699 2402.8 685.199 2353.3 685.199C2303.8 685.199 2273.3 721.799 2273.3 772.199C2273.3 822.599 2303.6 859.499 2353.3 859.499ZM2353.3 838.899C2318.1 838.899 2298.2 810.799 2298.2 772.299C2298.2 733.799 2318.1 705.899 2353.3 705.899C2388.5 705.899 2408.7 733.799 2408.7 772.299C2408.7 810.799 2388.5 838.899 2353.3 838.899Z" fill="#222323"/>
<path d="M2533.5 859.502C2563.5 859.502 2581.8 843.502 2588.6 823.402H2589.1L2591.7 856.202H2610V770.102H2539.4V788.602H2584.4C2584.2 818.602 2565.6 838.802 2536.6 838.802C2507.6 838.802 2482.2 810.202 2482.2 772.402C2482.2 734.602 2499.3 705.802 2536.6 705.802C2573.9 705.802 2578.4 721.502 2582.6 740.002H2607.5C2602.6 708.302 2577.2 685.102 2537.1 685.102C2497 685.102 2457.3 723.102 2457.3 772.402C2457.3 821.702 2484.8 859.402 2533.5 859.402V859.502Z" fill="#222323"/>
<path d="M2644.9 856.302H2669.8V688.602H2644.9V856.302Z" fill="#222323"/>
<path d="M2707.3 856.302H2827.8V835.702H2732.1V778.902H2816.1V758.302H2732.1V709.002H2825.9V688.602H2707.2V856.302H2707.3Z" fill="#222323"/>
<path d="M2922.6 859.499C2961.5 859.499 2983.8 838.399 2983.8 809.499C2983.8 780.599 2957.8 765.899 2922.8 758.099C2896.3 752.199 2881 747.799 2881 729.199C2881 710.599 2895.1 705.799 2915.3 705.799C2935.5 705.799 2952.6 717.499 2954.7 736.299H2979.6C2978 704.199 2951.5 685.199 2915.3 685.199C2879.1 685.199 2856.2 699.299 2856.2 730.899C2856.2 762.499 2878.2 771.499 2908.7 778.499C2939.9 785.299 2959.1 790.499 2958.9 811.599C2958.9 826.399 2946.7 838.799 2922.5 838.799C2898.3 838.799 2876.3 826.599 2875.4 801.499H2850.5C2851.4 839.299 2882.2 859.399 2922.5 859.399L2922.6 859.499Z" fill="#222323"/>
<defs>
<linearGradient id="paint0_linear_629_2182" x1="936.102" y1="450.521" x2="936.102" y2="847.001" gradientUnits="userSpaceOnUse">
<stop stop-color="#020717"/>
<stop offset="0.1" stop-color="#030A23"/>
<stop offset="0.2" stop-color="#05123B"/>
<stop offset="0.3" stop-color="#081853"/>
<stop offset="0.4" stop-color="#0A1F6B"/>
<stop offset="0.5" stop-color="#0C2682"/>
<stop offset="0.6" stop-color="#0E2D9A"/>
<stop offset="0.7" stop-color="#1034B2"/>
<stop offset="0.8" stop-color="#133BCA"/>
<stop offset="0.9" stop-color="#1543E2"/>
<stop offset="1" stop-color="#1646EE"/>
</linearGradient>
</defs>
</svg>
