<svg width="1920" height="1080" viewBox="0 0 1920 1080" fill="none" xmlns="http://www.w3.org/2000/svg">
<g clip-path="url(#clip0_748_1908)">
<rect width="1920" height="1080" fill="#022F43"/>
<g filter="url(#filter0_f_748_1908)">
<path fill-rule="evenodd" clip-rule="evenodd" d="M1019.5 37L475 540L1019.5 1043L1564 540L1019.5 37Z" fill="#018C8C"/>
</g>
<path d="M1920.73 144.274H741.274V306.744L1175.58 908.646C1179.7 914.348 1186.3 917.726 1193.33 917.726H1920.73V144.274Z" fill="url(#paint0_linear_748_1908)" stroke="url(#paint1_linear_748_1908)" stroke-width="0.54717"/>
<g filter="url(#filter1_f_748_1908)">
<path d="M884.419 28.2025C950.81 24.1959 988.335 23.677 1056.22 28.2025C1367.3 28.2555 1387.55 30.6619 1056.22 40.4615C987.517 53.2091 950.119 53.1499 884.419 40.4615C503.203 28.5543 565.272 26.922 884.419 28.2025Z" fill="url(#paint2_linear_748_1908)"/>
</g>
<g filter="url(#filter2_f_748_1908)">
<ellipse cx="977.744" cy="37" rx="67.9002" ry="6" fill="white"/>
</g>
<g filter="url(#filter3_f_748_1908)">
<ellipse cx="977.749" cy="37" rx="78.7025" ry="6" fill="#00FF94"/>
</g>
<path d="M586.177 20.5695C574.43 12.2393 564.668 1.49697 559.811 -9.78271H1360.08C1356.09 -1.73738 1348.16 8.2567 1337.74 16.9772C1326.6 26.2986 1312.74 34.0669 1298.03 36.4743H625.683C612.81 35.2692 598.475 29.2905 586.177 20.5695Z" fill="url(#paint3_linear_748_1908)" stroke="url(#paint4_linear_748_1908)" stroke-width="2.43458"/>
<g clip-path="url(#clip1_748_1908)">
<path d="M822.02 27V24.33H825.44V15.72H822.2V13.05H828.86V24.33H831.98V27H822.02ZM827 10.74C826.4 10.74 825.89 10.54 825.47 10.14C825.07 9.74 824.87 9.26 824.87 8.7C824.87 8.12 825.07 7.64 825.47 7.26C825.87 6.86 826.38 6.66 827 6.66C827.56 6.66 828.05 6.86 828.47 7.26C828.91 7.66 829.13 8.14 829.13 8.7C829.13 9.26 828.91 9.74 828.47 10.14C828.05 10.54 827.56 10.74 827 10.74ZM838.61 8.31H842.15L848.48 20.61L848.3 8.31H851.6V8.58C851.5 8.7 851.43 8.84 851.39 9C851.37 9.14 851.36 9.37 851.36 9.69V27H848.21L841.67 13.89V27H838.61V8.31ZM856.76 27V8.31H861.59C863.23 8.31 864.5 8.54 865.4 9C866.32 9.44 867.09 10.07 867.71 10.89C868.33 11.73 868.81 12.73 869.15 13.89C869.51 15.05 869.69 16.35 869.69 17.79C869.65 19.67 869.34 21.31 868.76 22.71C868.18 24.09 867.27 25.15 866.03 25.89C864.81 26.63 863.21 27 861.23 27H856.76ZM860.06 24.36H861.14C862.42 24.36 863.44 24.09 864.2 23.55C864.98 23.01 865.54 22.25 865.88 21.27C866.22 20.29 866.38 19.14 866.36 17.82C866.36 16.44 866.21 15.24 865.91 14.22C865.63 13.2 865.13 12.41 864.41 11.85C863.69 11.29 862.71 11.01 861.47 11.01H860.06V24.36ZM875.6 27V24.27H879.26V11.04H875.81V8.31H886.13V11.04H882.47V24.27H886.28V27H875.6ZM898.76 27.33C897.52 27.33 896.35 27.15 895.25 26.79C894.17 26.41 893.27 25.84 892.55 25.08L894.2 22.29L894.32 22.05L894.59 22.2C894.63 22.36 894.68 22.52 894.74 22.68C894.82 22.82 894.98 23 895.22 23.22C895.72 23.6 896.27 23.91 896.87 24.15C897.49 24.39 898.16 24.51 898.88 24.51C899.82 24.51 900.58 24.31 901.16 23.91C901.76 23.49 902.06 22.88 902.06 22.08C902.06 21.68 901.97 21.31 901.79 20.97C901.61 20.61 901.25 20.25 900.71 19.89C900.19 19.53 899.41 19.11 898.37 18.63C897.09 18.07 896.07 17.51 895.31 16.95C894.57 16.37 894.04 15.75 893.72 15.09C893.4 14.41 893.24 13.65 893.24 12.81C893.24 11.89 893.49 11.07 893.99 10.35C894.51 9.63 895.22 9.06 896.12 8.64C897.02 8.22 898.05 8.01 899.21 8.01C901.51 8.01 903.4 8.81 904.88 10.41L902.9 12.69L902.72 12.9L902.48 12.72C902.46 12.56 902.42 12.41 902.36 12.27C902.32 12.11 902.19 11.91 901.97 11.67C901.59 11.31 901.18 11.07 900.74 10.95C900.32 10.83 899.82 10.77 899.24 10.77C898.42 10.77 897.77 10.96 897.29 11.34C896.81 11.72 896.57 12.16 896.57 12.66C896.57 13.06 896.66 13.42 896.84 13.74C897.02 14.06 897.38 14.4 897.92 14.76C898.48 15.12 899.33 15.55 900.47 16.05C901.73 16.63 902.72 17.2 903.44 17.76C904.16 18.3 904.66 18.9 904.94 19.56C905.24 20.22 905.39 20.99 905.39 21.87C905.39 22.77 905.16 23.64 904.7 24.48C904.24 25.32 903.52 26.01 902.54 26.55C901.56 27.07 900.3 27.33 898.76 27.33ZM917.06 27.36C914.76 27.36 913.02 26.52 911.84 24.84C910.66 23.16 910.07 20.77 910.07 17.67C910.07 14.65 910.66 12.29 911.84 10.59C913.02 8.89 914.76 8.04 917.06 8.04C919.32 8.04 921.04 8.89 922.22 10.59C923.42 12.29 924.02 14.65 924.02 17.67C924.02 20.77 923.42 23.16 922.22 24.84C921.04 26.52 919.32 27.36 917.06 27.36ZM917.06 24.6C918.18 24.6 919.06 24.03 919.7 22.89C920.34 21.73 920.66 19.98 920.66 17.64C920.66 15.46 920.34 13.78 919.7 12.6C919.06 11.4 918.18 10.8 917.06 10.8C915.9 10.8 915 11.4 914.36 12.6C913.74 13.78 913.43 15.46 913.43 17.64C913.43 19.98 913.74 21.73 914.36 22.89C915 24.03 915.9 24.6 917.06 24.6ZM928.61 8.31H932.15L938.48 20.61L938.3 8.31H941.6V8.58C941.5 8.7 941.43 8.84 941.39 9C941.37 9.14 941.36 9.37 941.36 9.69V27H938.21L931.67 13.89V27H928.61V8.31ZM947.6 27V24.27H951.26V11.04H947.81V8.31H958.13V11.04H954.47V24.27H958.28V27H947.6ZM971.87 27.33C970.51 27.33 969.26 27 968.12 26.34C967 25.66 966.1 24.61 965.42 23.19C964.76 21.77 964.43 19.96 964.43 17.76C964.43 15.92 964.65 14.38 965.09 13.14C965.55 11.88 966.15 10.88 966.89 10.14C967.63 9.4 968.44 8.87 969.32 8.55C970.22 8.21 971.11 8.04 971.99 8.04C973.39 8.04 974.59 8.36 975.59 9C976.61 9.64 977.38 10.54 977.9 11.7L975.77 13.29L975.53 13.44L975.38 13.2C975.4 13.06 975.38 12.92 975.32 12.78C975.28 12.62 975.18 12.4 975.02 12.12C974.58 11.6 974.12 11.25 973.64 11.07C973.18 10.87 972.69 10.77 972.17 10.77C971.41 10.77 970.69 11.03 970.01 11.55C969.35 12.07 968.81 12.84 968.39 13.86C967.99 14.86 967.79 16.11 967.79 17.61C967.79 19.77 968.18 21.47 968.96 22.71C969.76 23.93 970.76 24.54 971.96 24.54C972.7 24.54 973.34 24.38 973.88 24.06C974.42 23.74 974.91 23.21 975.35 22.47L977.69 24.21C976.99 25.35 976.16 26.16 975.2 26.64C974.26 27.1 973.15 27.33 971.87 27.33ZM1007.78 27.33C1006.22 27.33 1004.87 26.93 1003.73 26.13C1002.61 25.33 1001.75 24.21 1001.15 22.77C1000.55 21.33 1000.25 19.65 1000.25 17.73C1000.25 15.75 1000.5 14.13 1001 12.87C1001.52 11.59 1002.17 10.6 1002.95 9.9C1003.75 9.18 1004.58 8.69 1005.44 8.43C1006.3 8.15 1007.07 8.01 1007.75 8.01C1008.97 8.01 1010.11 8.3 1011.17 8.88C1012.25 9.44 1013.07 10.24 1013.63 11.28L1011.65 13.23L1011.47 13.44L1011.26 13.23C1011.24 13.07 1011.2 12.92 1011.14 12.78C1011.1 12.62 1010.98 12.41 1010.78 12.15C1010.44 11.75 1010.04 11.43 1009.58 11.19C1009.14 10.95 1008.56 10.83 1007.84 10.83C1007.1 10.83 1006.4 11.04 1005.74 11.46C1005.1 11.88 1004.58 12.58 1004.18 13.56C1003.8 14.52 1003.61 15.81 1003.61 17.43C1003.61 19.83 1003.99 21.62 1004.75 22.8C1005.53 23.98 1006.54 24.57 1007.78 24.57C1008.28 24.57 1008.77 24.51 1009.25 24.39C1009.75 24.25 1010.21 24 1010.63 23.64V20.19H1007.54V17.37H1013.69V25.38C1012.79 26.1 1011.84 26.61 1010.84 26.91C1009.84 27.19 1008.82 27.33 1007.78 27.33ZM1023.23 27V11.16H1018.19V8.31H1031.78V11.16H1026.47V27H1023.23ZM1059.74 27V12L1056.35 13.2L1055.63 10.95L1060.61 8.31H1063.13V27H1059.74ZM1079 27.36C1077.04 27.36 1075.48 26.53 1074.32 24.87C1073.18 23.21 1072.61 20.84 1072.61 17.76C1072.61 14.72 1073.18 12.34 1074.32 10.62C1075.48 8.9 1077.04 8.04 1079 8.04C1080.96 8.04 1082.51 8.9 1083.65 10.62C1084.81 12.34 1085.39 14.72 1085.39 17.76C1085.39 20.84 1084.81 23.21 1083.65 24.87C1082.51 26.53 1080.96 27.36 1079 27.36ZM1075.76 17.76C1075.76 18.58 1075.8 19.34 1075.88 20.04L1081.64 13.2C1081.1 11.58 1080.22 10.77 1079 10.77C1077.92 10.77 1077.11 11.39 1076.57 12.63C1076.03 13.85 1075.76 15.56 1075.76 17.76ZM1079 24.75C1080.08 24.75 1080.89 24.15 1081.43 22.95C1081.97 21.73 1082.24 20 1082.24 17.76C1082.24 16.98 1082.2 16.25 1082.12 15.57L1076.36 22.38C1076.9 23.96 1077.78 24.75 1079 24.75ZM1097 27.36C1095.04 27.36 1093.48 26.53 1092.32 24.87C1091.18 23.21 1090.61 20.84 1090.61 17.76C1090.61 14.72 1091.18 12.34 1092.32 10.62C1093.48 8.9 1095.04 8.04 1097 8.04C1098.96 8.04 1100.51 8.9 1101.65 10.62C1102.81 12.34 1103.39 14.72 1103.39 17.76C1103.39 20.84 1102.81 23.21 1101.65 24.87C1100.51 26.53 1098.96 27.36 1097 27.36ZM1093.76 17.76C1093.76 18.58 1093.8 19.34 1093.88 20.04L1099.64 13.2C1099.1 11.58 1098.22 10.77 1097 10.77C1095.92 10.77 1095.11 11.39 1094.57 12.63C1094.03 13.85 1093.76 15.56 1093.76 17.76ZM1097 24.75C1098.08 24.75 1098.89 24.15 1099.43 22.95C1099.97 21.73 1100.24 20 1100.24 17.76C1100.24 16.98 1100.2 16.25 1100.12 15.57L1094.36 22.38C1094.9 23.96 1095.78 24.75 1097 24.75Z" fill="#89D2FF"/>
</g>
<path d="M48.84 557V544.54H52.06C53.1533 544.54 54 544.693 54.6 545C55.2133 545.293 55.7267 545.713 56.14 546.26C56.5533 546.82 56.8733 547.487 57.1 548.26C57.34 549.033 57.46 549.9 57.46 550.86C57.4333 552.113 57.2267 553.207 56.84 554.14C56.4533 555.06 55.8467 555.767 55.02 556.26C54.2067 556.753 53.14 557 51.82 557H48.84ZM51.04 555.24H51.76C52.6133 555.24 53.2933 555.06 53.8 554.7C54.32 554.34 54.6933 553.833 54.92 553.18C55.1467 552.527 55.2533 551.76 55.24 550.88C55.24 549.96 55.14 549.16 54.94 548.48C54.7533 547.8 54.42 547.273 53.94 546.9C53.46 546.527 52.8067 546.34 51.98 546.34H51.04V555.24ZM67.48 557L66.62 554.1H63.36L62.48 557H60.24L64.46 544.46H65.54L69.76 557H67.48ZM65 548.64L63.84 552.48H66.14L65 548.64ZM75.82 557V546.44H72.46V544.54H81.52V546.44H77.98V557H75.82ZM91.48 557L90.62 554.1H87.36L86.48 557H84.24L88.46 544.46H89.54L93.76 557H91.48ZM89 548.64L87.84 552.48H90.14L89 548.64ZM109.84 557L108.2 544.54H110.16L111 552.36L112.6 545.52H113.8L115.4 552.34L116.06 544.54H117.9L116.28 557H114.86L113.1 549.32L111.3 557H109.84ZM121.4 557V555.18H123.84V546.36H121.54V544.54H128.42V546.36H125.98V555.18H128.52V557H121.4ZM135.82 557V546.44H132.46V544.54H141.52V546.44H137.98V557H135.82ZM144.76 544.54H147.22V544.72C147.14 544.8 147.087 544.893 147.06 545C147.047 545.093 147.04 545.247 147.04 545.46V549.6H150.88V544.54H153.34V544.72C153.26 544.8 153.213 544.893 153.2 545C153.187 545.093 153.18 545.247 153.18 545.46V557H150.88V551.4H147.04V557H144.76V544.54ZM161.04 557.24C159.507 557.24 158.347 556.68 157.56 555.56C156.773 554.44 156.38 552.847 156.38 550.78C156.38 548.767 156.773 547.193 157.56 546.06C158.347 544.927 159.507 544.36 161.04 544.36C162.547 544.36 163.693 544.927 164.48 546.06C165.28 547.193 165.68 548.767 165.68 550.78C165.68 552.847 165.28 554.44 164.48 555.56C163.693 556.68 162.547 557.24 161.04 557.24ZM161.04 555.4C161.787 555.4 162.373 555.02 162.8 554.26C163.227 553.487 163.44 552.32 163.44 550.76C163.44 549.307 163.227 548.187 162.8 547.4C162.373 546.6 161.787 546.2 161.04 546.2C160.267 546.2 159.667 546.6 159.24 547.4C158.827 548.187 158.62 549.307 158.62 550.76C158.62 552.32 158.827 553.487 159.24 554.26C159.667 555.02 160.267 555.4 161.04 555.4ZM173 557.26C171.627 557.26 170.567 556.853 169.82 556.04C169.087 555.227 168.72 554.093 168.72 552.64V544.54H171.14V544.72C171.073 544.8 171.027 544.893 171 545C170.987 545.093 170.98 545.247 170.98 545.46V552.66C170.98 553.513 171.127 554.187 171.42 554.68C171.713 555.173 172.247 555.42 173.02 555.42C173.793 555.42 174.333 555.173 174.64 554.68C174.947 554.187 175.1 553.493 175.1 552.6V544.54H177.3V552.58C177.3 554.18 176.9 555.36 176.1 556.12C175.3 556.88 174.267 557.26 173 557.26ZM183.82 557V546.44H180.46V544.54H189.52V546.44H185.98V557H183.82ZM204.74 557V544.54H208.54C210.033 544.54 211.14 544.833 211.86 545.42C212.58 546.007 212.94 546.76 212.94 547.68C212.94 548.213 212.787 548.74 212.48 549.26C212.187 549.78 211.753 550.153 211.18 550.38C211.86 550.673 212.4 551.093 212.8 551.64C213.213 552.173 213.42 552.76 213.42 553.4C213.42 554.48 213.013 555.353 212.2 556.02C211.4 556.673 210.173 557 208.52 557H204.74ZM207 549.52H208.36C209.24 549.52 209.84 549.373 210.16 549.08C210.493 548.773 210.66 548.373 210.66 547.88C210.66 547.427 210.493 547.06 210.16 546.78C209.827 546.5 209.293 546.36 208.56 546.36H207V549.52ZM207 555.14H208.76C209.467 555.14 210.027 554.987 210.44 554.68C210.867 554.373 211.08 553.927 211.08 553.34C211.08 552.74 210.88 552.253 210.48 551.88C210.093 551.507 209.407 551.32 208.42 551.32H207V555.14ZM221.04 557.24C219.507 557.24 218.347 556.68 217.56 555.56C216.773 554.44 216.38 552.847 216.38 550.78C216.38 548.767 216.773 547.193 217.56 546.06C218.347 544.927 219.507 544.36 221.04 544.36C222.547 544.36 223.693 544.927 224.48 546.06C225.28 547.193 225.68 548.767 225.68 550.78C225.68 552.847 225.28 554.44 224.48 555.56C223.693 556.68 222.547 557.24 221.04 557.24ZM221.04 555.4C221.787 555.4 222.373 555.02 222.8 554.26C223.227 553.487 223.44 552.32 223.44 550.76C223.44 549.307 223.227 548.187 222.8 547.4C222.373 546.6 221.787 546.2 221.04 546.2C220.267 546.2 219.667 546.6 219.24 547.4C218.827 548.187 218.62 549.307 218.62 550.76C218.62 552.32 218.827 553.487 219.24 554.26C219.667 555.02 220.267 555.4 221.04 555.4ZM233 557.26C231.627 557.26 230.567 556.853 229.82 556.04C229.087 555.227 228.72 554.093 228.72 552.64V544.54H231.14V544.72C231.073 544.8 231.027 544.893 231 545C230.987 545.093 230.98 545.247 230.98 545.46V552.66C230.98 553.513 231.127 554.187 231.42 554.68C231.713 555.173 232.247 555.42 233.02 555.42C233.793 555.42 234.333 555.173 234.64 554.68C234.947 554.187 235.1 553.493 235.1 552.6V544.54H237.3V552.58C237.3 554.18 236.9 555.36 236.1 556.12C235.3 556.88 234.267 557.26 233 557.26ZM240.74 544.54H243.1L247.32 552.74L247.2 544.54H249.4V544.72C249.333 544.8 249.287 544.893 249.26 545C249.247 545.093 249.24 545.247 249.24 545.46V557H247.14L242.78 548.26V557H240.74V544.54ZM252.84 557V544.54H256.06C257.153 544.54 258 544.693 258.6 545C259.213 545.293 259.727 545.713 260.14 546.26C260.553 546.82 260.873 547.487 261.1 548.26C261.34 549.033 261.46 549.9 261.46 550.86C261.433 552.113 261.227 553.207 260.84 554.14C260.453 555.06 259.847 555.767 259.02 556.26C258.207 556.753 257.14 557 255.82 557H252.84ZM255.04 555.24H255.76C256.613 555.24 257.293 555.06 257.8 554.7C258.32 554.34 258.693 553.833 258.92 553.18C259.147 552.527 259.253 551.76 259.24 550.88C259.24 549.96 259.14 549.16 258.94 548.48C258.753 547.8 258.42 547.273 257.94 546.9C257.46 546.527 256.807 546.34 255.98 546.34H255.04V555.24ZM271.48 557L270.62 554.1H267.36L266.48 557H264.24L268.46 544.46H269.54L273.76 557H271.48ZM269 548.64L267.84 552.48H270.14L269 548.64ZM276.9 557V544.54H280.84C282.36 544.54 283.473 544.873 284.18 545.54C284.887 546.207 285.24 547.093 285.24 548.2C285.24 548.653 285.14 549.113 284.94 549.58C284.753 550.033 284.48 550.44 284.12 550.8C283.773 551.16 283.367 551.427 282.9 551.6L285.58 557H283.2L280.68 551.82H279.18V557H276.9ZM279.18 549.94H281C281.64 549.94 282.12 549.793 282.44 549.5C282.76 549.193 282.92 548.78 282.92 548.26C282.92 547.78 282.76 547.367 282.44 547.02C282.12 546.673 281.64 546.5 281 546.5H279.18V549.94ZM289.4 557V555.18H291.84V546.36H289.54V544.54H296.42V546.36H293.98V555.18H296.52V557H289.4ZM301.02 557V544.54H309.14V546.38H303.22V549.58H308.08V551.44H303.22V555.16H309.08V557H301.02ZM316.84 557.22C316.013 557.22 315.233 557.1 314.5 556.86C313.78 556.607 313.18 556.227 312.7 555.72L313.8 553.86L313.88 553.7L314.06 553.8C314.087 553.907 314.12 554.013 314.16 554.12C314.213 554.213 314.32 554.333 314.48 554.48C314.813 554.733 315.18 554.94 315.58 555.1C315.993 555.26 316.44 555.34 316.92 555.34C317.547 555.34 318.053 555.207 318.44 554.94C318.84 554.66 319.04 554.253 319.04 553.72C319.04 553.453 318.98 553.207 318.86 552.98C318.74 552.74 318.5 552.5 318.14 552.26C317.793 552.02 317.273 551.74 316.58 551.42C315.727 551.047 315.047 550.673 314.54 550.3C314.047 549.913 313.693 549.5 313.48 549.06C313.267 548.607 313.16 548.1 313.16 547.54C313.16 546.927 313.327 546.38 313.66 545.9C314.007 545.42 314.48 545.04 315.08 544.76C315.68 544.48 316.367 544.34 317.14 544.34C318.673 544.34 319.933 544.873 320.92 545.94L319.6 547.46L319.48 547.6L319.32 547.48C319.307 547.373 319.28 547.273 319.24 547.18C319.213 547.073 319.127 546.94 318.98 546.78C318.727 546.54 318.453 546.38 318.16 546.3C317.88 546.22 317.547 546.18 317.16 546.18C316.613 546.18 316.18 546.307 315.86 546.56C315.54 546.813 315.38 547.107 315.38 547.44C315.38 547.707 315.44 547.947 315.56 548.16C315.68 548.373 315.92 548.6 316.28 548.84C316.653 549.08 317.22 549.367 317.98 549.7C318.82 550.087 319.48 550.467 319.96 550.84C320.44 551.2 320.773 551.6 320.96 552.04C321.16 552.48 321.26 552.993 321.26 553.58C321.26 554.18 321.107 554.76 320.8 555.32C320.493 555.88 320.013 556.34 319.36 556.7C318.707 557.047 317.867 557.22 316.84 557.22ZM328.7 551.18C328.287 551.18 327.933 551.027 327.64 550.72C327.347 550.413 327.2 550.067 327.2 549.68C327.2 549.28 327.347 548.927 327.64 548.62C327.933 548.313 328.287 548.16 328.7 548.16C329.087 548.16 329.433 548.307 329.74 548.6C330.06 548.893 330.22 549.253 330.22 549.68C330.22 550.067 330.073 550.413 329.78 550.72C329.487 551.027 329.127 551.18 328.7 551.18ZM328.7 557.24C328.273 557.24 327.913 557.093 327.62 556.8C327.34 556.493 327.2 556.14 327.2 555.74C327.2 555.34 327.347 554.987 327.64 554.68C327.933 554.36 328.287 554.2 328.7 554.2C329.087 554.2 329.433 554.353 329.74 554.66C330.06 554.967 330.22 555.327 330.22 555.74C330.22 556.127 330.073 556.473 329.78 556.78C329.5 557.087 329.14 557.24 328.7 557.24ZM355.48 557L354.62 554.1H351.36L350.48 557H348.24L352.46 544.46H353.54L357.76 557H355.48ZM353 548.64L351.84 552.48H354.14L353 548.64ZM365.58 557.22C364.673 557.22 363.84 557 363.08 556.56C362.333 556.107 361.733 555.407 361.28 554.46C360.84 553.513 360.62 552.307 360.62 550.84C360.62 549.613 360.767 548.587 361.06 547.76C361.367 546.92 361.767 546.253 362.26 545.76C362.753 545.267 363.293 544.913 363.88 544.7C364.48 544.473 365.073 544.36 365.66 544.36C366.593 544.36 367.393 544.573 368.06 545C368.74 545.427 369.253 546.027 369.6 546.8L368.18 547.86L368.02 547.96L367.92 547.8C367.933 547.707 367.92 547.613 367.88 547.52C367.853 547.413 367.787 547.267 367.68 547.08C367.387 546.733 367.08 546.5 366.76 546.38C366.453 546.247 366.127 546.18 365.78 546.18C365.273 546.18 364.793 546.353 364.34 546.7C363.9 547.047 363.54 547.56 363.26 548.24C362.993 548.907 362.86 549.74 362.86 550.74C362.86 552.18 363.12 553.313 363.64 554.14C364.173 554.953 364.84 555.36 365.64 555.36C366.133 555.36 366.56 555.253 366.92 555.04C367.28 554.827 367.607 554.473 367.9 553.98L369.46 555.14C368.993 555.9 368.44 556.44 367.8 556.76C367.173 557.067 366.433 557.22 365.58 557.22ZM379.56 559.92C378.307 559.933 377.407 559.74 376.86 559.34C376.327 558.94 376.047 558.193 376.02 557.1C374.94 556.873 374.067 556.213 373.4 555.12C372.733 554.027 372.4 552.58 372.4 550.78C372.4 549.233 372.613 547.987 373.04 547.04C373.467 546.093 374.033 545.407 374.74 544.98C375.447 544.553 376.213 544.34 377.04 544.34C377.92 544.34 378.707 544.567 379.4 545.02C380.107 545.473 380.66 546.173 381.06 547.12C381.46 548.067 381.653 549.28 381.64 550.76C381.64 552.72 381.32 554.207 380.68 555.22C380.053 556.22 379.207 556.847 378.14 557.1C378.167 557.407 378.26 557.653 378.42 557.84C378.58 558.04 378.853 558.133 379.24 558.12L380.88 558.04L380.84 559.92H379.56ZM377.08 555.36C377.493 555.36 377.88 555.213 378.24 554.92C378.6 554.613 378.893 554.133 379.12 553.48C379.347 552.827 379.46 551.967 379.46 550.9C379.46 549.727 379.34 548.793 379.1 548.1C378.873 547.407 378.573 546.913 378.2 546.62C377.84 546.327 377.453 546.18 377.04 546.18C376.28 546.18 375.687 546.58 375.26 547.38C374.833 548.167 374.62 549.233 374.62 550.58C374.62 552.14 374.84 553.327 375.28 554.14C375.733 554.953 376.333 555.36 377.08 555.36ZM389 557.26C387.627 557.26 386.567 556.853 385.82 556.04C385.087 555.227 384.72 554.093 384.72 552.64V544.54H387.14V544.72C387.073 544.8 387.027 544.893 387 545C386.987 545.093 386.98 545.247 386.98 545.46V552.66C386.98 553.513 387.127 554.187 387.42 554.68C387.713 555.173 388.247 555.42 389.02 555.42C389.793 555.42 390.333 555.173 390.64 554.68C390.947 554.187 391.1 553.493 391.1 552.6V544.54H393.3V552.58C393.3 554.18 392.9 555.36 392.1 556.12C391.3 556.88 390.267 557.26 389 557.26ZM397.4 557V555.18H399.84V546.36H397.54V544.54H404.42V546.36H401.98V555.18H404.52V557H397.4ZM408.9 557V544.54H412.84C414.36 544.54 415.473 544.873 416.18 545.54C416.887 546.207 417.24 547.093 417.24 548.2C417.24 548.653 417.14 549.113 416.94 549.58C416.753 550.033 416.48 550.44 416.12 550.8C415.773 551.16 415.367 551.427 414.9 551.6L417.58 557H415.2L412.68 551.82H411.18V557H408.9ZM411.18 549.94H413C413.64 549.94 414.12 549.793 414.44 549.5C414.76 549.193 414.92 548.78 414.92 548.26C414.92 547.78 414.76 547.367 414.44 547.02C414.12 546.673 413.64 546.5 413 546.5H411.18V549.94ZM421.02 557V544.54H429.14V546.38H423.22V549.58H428.08V551.44H423.22V555.16H429.08V557H421.02ZM451.48 557L450.62 554.1H447.36L446.48 557H444.24L448.46 544.46H449.54L453.76 557H451.48ZM449 548.64L447.84 552.48H450.14L449 548.64ZM456.74 544.54H459.1L463.32 552.74L463.2 544.54H465.4V544.72C465.333 544.8 465.287 544.893 465.26 545C465.247 545.093 465.24 545.247 465.24 545.46V557H463.14L458.78 548.26V557H456.74V544.54ZM472.06 557V552.08L468.34 544.54H470.66L473.24 549.74L475.52 544.54H477.74L474.32 552.1V557H472.06ZM481.84 557L480.2 544.54H482.16L483 552.36L484.6 545.52H485.8L487.4 552.34L488.06 544.54H489.9L488.28 557H486.86L485.1 549.32L483.3 557H481.84ZM492.76 544.54H495.22V544.72C495.14 544.8 495.087 544.893 495.06 545C495.047 545.093 495.04 545.247 495.04 545.46V549.6H498.88V544.54H501.34V544.72C501.26 544.8 501.213 544.893 501.2 545C501.187 545.093 501.18 545.247 501.18 545.46V557H498.88V551.4H495.04V557H492.76V544.54ZM505.02 557V544.54H513.14V546.38H507.22V549.58H512.08V551.44H507.22V555.16H513.08V557H505.02ZM516.9 557V544.54H520.84C522.36 544.54 523.473 544.873 524.18 545.54C524.887 546.207 525.24 547.093 525.24 548.2C525.24 548.653 525.14 549.113 524.94 549.58C524.753 550.033 524.48 550.44 524.12 550.8C523.773 551.16 523.367 551.427 522.9 551.6L525.58 557H523.2L520.68 551.82H519.18V557H516.9ZM519.18 549.94H521C521.64 549.94 522.12 549.793 522.44 549.5C522.76 549.193 522.92 548.78 522.92 548.26C522.92 547.78 522.76 547.367 522.44 547.02C522.12 546.673 521.64 546.5 521 546.5H519.18V549.94ZM529.02 557V544.54H537.14V546.38H531.22V549.58H536.08V551.44H531.22V555.16H537.08V557H529.02ZM544.26 560.4L543.04 559.38C543.413 559.033 543.7 558.687 543.9 558.34C544.1 558.007 544.2 557.727 544.2 557.5C544.2 557.3 544.12 557.12 543.96 556.96C543.813 556.787 543.66 556.6 543.5 556.4C543.34 556.187 543.26 555.927 543.26 555.62C543.26 555.18 543.413 554.84 543.72 554.6C544.027 554.36 544.387 554.24 544.8 554.24C545.32 554.24 545.733 554.427 546.04 554.8C546.347 555.173 546.5 555.653 546.5 556.24C546.5 557.493 545.753 558.88 544.26 560.4ZM567.82 557V546.44H564.46V544.54H573.52V546.44H569.98V557H567.82ZM576.9 557V544.54H580.84C582.36 544.54 583.473 544.873 584.18 545.54C584.887 546.207 585.24 547.093 585.24 548.2C585.24 548.653 585.14 549.113 584.94 549.58C584.753 550.033 584.48 550.44 584.12 550.8C583.773 551.16 583.367 551.427 582.9 551.6L585.58 557H583.2L580.68 551.82H579.18V557H576.9ZM579.18 549.94H581C581.64 549.94 582.12 549.793 582.44 549.5C582.76 549.193 582.92 548.78 582.92 548.26C582.92 547.78 582.76 547.367 582.44 547.02C582.12 546.673 581.64 546.5 581 546.5H579.18V549.94ZM595.48 557L594.62 554.1H591.36L590.48 557H588.24L592.46 544.46H593.54L597.76 557H595.48ZM593 548.64L591.84 552.48H594.14L593 548.64ZM600.74 544.54H603.1L607.32 552.74L607.2 544.54H609.4V544.72C609.333 544.8 609.287 544.893 609.26 545C609.247 545.093 609.24 545.247 609.24 545.46V557H607.14L602.78 548.26V557H600.74V544.54ZM616.84 557.22C616.013 557.22 615.233 557.1 614.5 556.86C613.78 556.607 613.18 556.227 612.7 555.72L613.8 553.86L613.88 553.7L614.06 553.8C614.087 553.907 614.12 554.013 614.16 554.12C614.213 554.213 614.32 554.333 614.48 554.48C614.813 554.733 615.18 554.94 615.58 555.1C615.993 555.26 616.44 555.34 616.92 555.34C617.547 555.34 618.053 555.207 618.44 554.94C618.84 554.66 619.04 554.253 619.04 553.72C619.04 553.453 618.98 553.207 618.86 552.98C618.74 552.74 618.5 552.5 618.14 552.26C617.793 552.02 617.273 551.74 616.58 551.42C615.727 551.047 615.047 550.673 614.54 550.3C614.047 549.913 613.693 549.5 613.48 549.06C613.267 548.607 613.16 548.1 613.16 547.54C613.16 546.927 613.327 546.38 613.66 545.9C614.007 545.42 614.48 545.04 615.08 544.76C615.68 544.48 616.367 544.34 617.14 544.34C618.673 544.34 619.933 544.873 620.92 545.94L619.6 547.46L619.48 547.6L619.32 547.48C619.307 547.373 619.28 547.273 619.24 547.18C619.213 547.073 619.127 546.94 618.98 546.78C618.727 546.54 618.453 546.38 618.16 546.3C617.88 546.22 617.547 546.18 617.16 546.18C616.613 546.18 616.18 546.307 615.86 546.56C615.54 546.813 615.38 547.107 615.38 547.44C615.38 547.707 615.44 547.947 615.56 548.16C615.68 548.373 615.92 548.6 616.28 548.84C616.653 549.08 617.22 549.367 617.98 549.7C618.82 550.087 619.48 550.467 619.96 550.84C620.44 551.2 620.773 551.6 620.96 552.04C621.16 552.48 621.26 552.993 621.26 553.58C621.26 554.18 621.107 554.76 620.8 555.32C620.493 555.88 620.013 556.34 619.36 556.7C618.707 557.047 617.867 557.22 616.84 557.22ZM624.64 557V544.54H626.62L629.04 550.26L631.46 544.52H633.44V557H631.48V548.3L629.52 552.88H628.42L626.58 548.32V557H624.64ZM637.4 557V555.18H639.84V546.36H637.54V544.54H644.42V546.36H641.98V555.18H644.52V557H637.4ZM651.82 557V546.44H648.46V544.54H657.52V546.44H653.98V557H651.82ZM673.02 557V544.54H681.14V546.38H675.22V549.58H680.08V551.44H675.22V555.16H681.08V557H673.02ZM688.32 557.04L684.32 544.54H686.56L689.18 553.3L691.62 544.54H693.8L689.84 557.04H688.32ZM697.02 557V544.54H705.14V546.38H699.22V549.58H704.08V551.44H699.22V555.16H705.08V557H697.02ZM708.9 557V544.54H712.84C714.36 544.54 715.473 544.873 716.18 545.54C716.887 546.207 717.24 547.093 717.24 548.2C717.24 548.653 717.14 549.113 716.94 549.58C716.753 550.033 716.48 550.44 716.12 550.8C715.773 551.16 715.367 551.427 714.9 551.6L717.58 557H715.2L712.68 551.82H711.18V557H708.9ZM711.18 549.94H713C713.64 549.94 714.12 549.793 714.44 549.5C714.76 549.193 714.92 548.78 714.92 548.26C714.92 547.78 714.76 547.367 714.44 547.02C714.12 546.673 713.64 546.5 713 546.5H711.18V549.94ZM724.06 557V552.08L720.34 544.54H722.66L725.24 549.74L727.52 544.54H729.74L726.32 552.1V557H724.06ZM733.84 557L732.2 544.54H734.16L735 552.36L736.6 545.52H737.8L739.4 552.34L740.06 544.54H741.9L740.28 557H738.86L737.1 549.32L735.3 557H733.84ZM744.76 544.54H747.22V544.72C747.14 544.8 747.087 544.893 747.06 545C747.047 545.093 747.04 545.247 747.04 545.46V549.6H750.88V544.54H753.34V544.72C753.26 544.8 753.213 544.893 753.2 545C753.187 545.093 753.18 545.247 753.18 545.46V557H750.88V551.4H747.04V557H744.76V544.54ZM757.02 557V544.54H765.14V546.38H759.22V549.58H764.08V551.44H759.22V555.16H765.08V557H757.02ZM768.9 557V544.54H772.84C774.36 544.54 775.473 544.873 776.18 545.54C776.887 546.207 777.24 547.093 777.24 548.2C777.24 548.653 777.14 549.113 776.94 549.58C776.753 550.033 776.48 550.44 776.12 550.8C775.773 551.16 775.367 551.427 774.9 551.6L777.58 557H775.2L772.68 551.82H771.18V557H768.9ZM771.18 549.94H773C773.64 549.94 774.12 549.793 774.44 549.5C774.76 549.193 774.92 548.78 774.92 548.26C774.92 547.78 774.76 547.367 774.44 547.02C774.12 546.673 773.64 546.5 773 546.5H771.18V549.94ZM781.02 557V544.54H789.14V546.38H783.22V549.58H788.08V551.44H783.22V555.16H789.08V557H781.02Z" fill="#89D2FF"/>
<g filter="url(#filter4_f_748_1908)">
<path d="M738 169.5V140H892.5M1112.5 140H1284M738 266.5V310L799 394M903 542.5L989.5 662M1160 893.5L1174.63 913C1178.63 918.344 1184.94 921.463 1191.62 921.399L1339 920" stroke="#0BF6F7" stroke-width="6"/>
</g>
<path d="M738 169.5V140H892.5M1112.5 140H1284M738 266.5V310L799 394M903 542.5L989.5 662M1160 893.5L1174.63 913C1178.63 918.344 1184.94 921.463 1191.62 921.399L1339 920" stroke="#0BF6F7" stroke-width="6"/>
<path d="M266.569 402.194C266.677 402.712 266.659 411.49 266.534 411.901C250.944 411.919 235.337 411.865 219.748 411.919C219.587 411.919 219.408 411.901 219.283 412.062C219.248 412.116 219.158 412.152 219.087 412.152C218.622 412.169 218.372 412.545 218.068 412.813C217.138 413.653 216.316 414.619 215.404 415.495C214.027 416.889 212.579 418.23 211.203 419.624C210.398 420.5 209.558 421.341 208.682 422.127C202.693 428.063 196.758 434.069 190.822 440.058C174.035 456.72 157.427 473.543 140.586 490.151C137.869 492.905 135.116 495.604 132.398 498.357C131.558 499.197 130.7 500.038 129.878 500.914C129.252 501.611 128.966 502.666 129.019 503.595C129.055 504.06 129.305 504.436 129.484 504.847C129.574 505.401 130.003 505.741 130.378 506.098C131.093 506.778 132.023 506.903 132.953 506.938C148.059 506.903 163.148 507.028 178.236 507.064C179.613 507.117 180.864 507.064 181.883 505.991C185.638 502.237 189.374 498.482 193.164 494.764C199.529 488.399 205.911 482.053 212.24 475.653C215.69 472.256 219.051 468.752 222.519 465.391C223.52 464.461 224.45 463.496 225.415 462.548C225.683 462.28 225.952 462.03 226.184 461.726C226.381 461.476 226.595 461.19 226.613 460.85C226.971 460.439 226.828 459.92 226.846 459.456C226.863 458.937 226.863 458.419 226.613 457.918C226.399 457.525 226.22 457.114 225.898 456.81C225.683 456.613 225.451 456.416 225.254 456.202C223.181 454.146 221.178 452.126 219.105 450.07C234.837 449.802 250.658 450.07 266.426 449.98C266.73 465.641 266.534 481.624 266.48 497.32C264.853 495.729 263.244 494.102 261.635 492.493C260.992 491.85 260.366 491.224 259.722 490.598C259.311 490.259 258.829 489.99 258.364 489.74C258.256 489.687 258.113 489.669 257.988 489.651C257.38 489.651 256.755 489.615 256.147 489.651C255.611 489.687 255.146 489.937 254.77 490.312C253.894 491.135 253.054 491.993 252.196 492.833C251.016 494.013 249.836 495.193 248.656 496.373C244.276 500.878 239.771 505.276 235.302 509.692C233.371 511.587 231.529 513.571 229.581 515.43C228.973 515.949 228.222 516.253 227.489 516.521C227.4 516.557 227.292 516.557 227.185 516.557C209.969 516.628 192.771 516.396 175.555 516.7C139.943 516.807 104.402 516.521 68.772 516.61C67.7888 516.61 66.8055 516.61 65.8043 516.61C65.4825 516.61 65.1607 516.61 64.8568 516.414C64.6602 516.288 64.392 516.253 64.1775 516.128C63.7127 515.895 63.3909 515.538 63.0691 515.18C62.7115 514.787 62.5506 514.304 62.3361 513.839C62.211 513.41 62.2825 512.963 62.2467 512.516C62.2288 511.622 62.6043 510.871 63.1763 510.228C63.8378 509.495 64.5708 508.816 65.268 508.1C65.8222 507.546 66.3764 506.974 66.9306 506.42C67.9675 505.401 68.9866 504.346 70.0056 503.309C70.5598 502.755 71.1497 502.237 71.7218 501.682C72.2045 501.218 72.6157 500.681 73.1163 500.234C74.5465 498.929 75.8515 497.499 77.2102 496.122C77.5857 495.729 78.0147 495.407 78.3902 495.014C78.7656 494.639 79.1231 494.21 79.4986 493.834C82.0729 491.385 84.5222 488.811 87.0429 486.308C89.9033 483.537 92.6565 480.658 95.499 477.869C97.5013 475.903 99.4499 473.883 101.488 471.952C102.167 471.219 102.882 470.504 103.598 469.789C104.098 469.235 104.617 468.698 105.153 468.198C106.118 467.357 106.923 466.374 107.888 465.534C109.747 463.657 111.625 461.78 113.484 459.903C114.592 458.866 115.647 457.757 116.738 456.685C117.596 455.844 118.472 455.004 119.294 454.128C121.028 452.358 122.816 450.642 124.55 448.89C125.48 448.014 126.374 447.102 127.232 446.173C128.412 445.028 129.538 443.813 130.754 442.704C131.487 441.9 132.255 441.131 133.06 440.398C133.703 439.701 134.365 439.022 135.044 438.36C136.063 437.287 137.118 436.268 138.191 435.267C138.655 434.802 139.102 434.284 139.567 433.801C140.121 433.247 140.711 432.729 141.283 432.174C141.766 431.71 142.159 431.155 142.678 430.726C143.357 430.136 143.929 429.457 144.609 428.849C145.199 428.331 145.699 427.705 146.253 427.151C146.808 426.597 147.398 426.06 147.952 425.506C148.864 424.541 149.793 423.593 150.776 422.699C151.152 422.324 151.509 421.895 151.885 421.519C152.475 420.947 153.083 420.393 153.655 419.803C155.174 418.301 156.64 416.728 158.214 415.262C158.786 414.654 159.358 414.047 159.966 413.474C160.716 412.67 161.503 411.901 162.325 411.15C163.058 410.382 163.791 409.595 164.578 408.88C165.919 407.557 167.26 406.234 168.565 404.857C169.494 403.946 170.37 402.891 171.64 402.444C203.211 401.8 234.962 402.444 266.587 402.212L266.569 402.194Z" fill="#DCDCDC"/>
<path d="M302.055 438.397C314.248 438.397 322.096 429.369 321.256 416.712H300.41V423.201H312.388C311.334 427.688 307.526 430.692 302.144 430.692C296.763 430.692 291.06 425.847 291.06 419.197C291.06 412.546 295.548 407.701 302.037 407.701C308.527 407.701 309.582 409.596 311.369 412.814H320.397C318.181 405.055 310.851 399.996 301.876 399.996C292.902 399.996 282.676 407.969 282.676 419.197C282.676 430.424 290.703 438.397 302.037 438.397H302.055Z" fill="white"/>
<path d="M339.888 438.399C349.488 438.399 355.352 432.392 355.352 422.47V400.73H346.967V421.88C346.967 427.529 344.589 430.425 339.888 430.425C335.186 430.425 332.826 427.529 332.826 421.88V400.73H324.441V422.47C324.441 432.392 330.305 438.399 339.906 438.399H339.888Z" fill="white"/>
<path d="M356.781 437.666H365.756L368.241 431.283H382.9L385.385 437.666H394.36L379.7 400.73H371.477L356.799 437.666H356.781ZM370.386 424.686L375.553 411.189L380.773 424.686H370.386Z" fill="white"/>
<path d="M396.145 437.666H404.529V426.17H410.071L416.668 437.666H426.376L418.724 424.847C423.158 422.899 425.75 418.876 425.75 413.441C425.75 405.575 420.369 400.73 411.93 400.73H396.145V437.666ZM404.422 419.091V407.899H410.804C414.916 407.899 417.24 409.902 417.24 413.495C417.24 417.088 414.916 419.091 410.804 419.091H404.422Z" fill="white"/>
<path d="M430.168 437.666H444.792C456.448 437.666 464.26 430.228 464.26 419.198C464.26 408.168 456.448 400.73 444.792 400.73H430.168V437.666ZM438.553 429.96V408.436H444.524C451.174 408.436 455.661 412.708 455.661 419.198C455.661 425.688 451.174 429.96 444.631 429.96H438.57H438.553Z" fill="white"/>
<path d="M467.781 437.666H476.166V400.73H467.781V437.666Z" fill="white"/>
<path d="M481.922 437.666H490.253V415.033L506.557 437.666H513.69V400.73H505.359V423.203L489.055 400.73H481.94V437.666H481.922Z" fill="white"/>
<path d="M536.645 438.397C548.837 438.397 556.686 429.369 555.845 416.712H535V423.201H546.978C545.923 427.688 542.115 430.692 536.734 430.692C531.353 430.692 525.65 425.847 525.65 419.197C525.65 412.546 530.137 407.701 536.627 407.701C543.117 407.701 544.171 409.596 545.959 412.814H554.987C552.77 405.055 545.441 399.996 536.466 399.996C527.492 399.996 517.266 407.969 517.266 419.197C517.266 430.424 525.293 438.397 536.627 438.397H536.645Z" fill="white"/>
<path d="M559.389 437.666H584.239V430.55H567.72V422.47H582.237V415.444H567.72V407.792H583.649V400.73H559.371V437.666H559.389Z" fill="white"/>
<path d="M588.242 437.666H596.627V426.17H602.169L608.766 437.666H618.473L610.822 424.847C615.255 422.899 617.847 418.876 617.847 413.441C617.847 405.575 612.466 400.73 604.028 400.73H588.242V437.666ZM596.52 419.091V407.899H602.902C607.014 407.899 609.338 409.902 609.338 413.495C609.338 417.088 607.014 419.091 602.902 419.091H596.52Z" fill="white"/>
<path d="M283.965 476.907H287.916L290.615 470.221H304.953L307.724 476.907H311.639L299.536 447.48H296.086L283.983 476.907H283.965ZM292.028 466.788L297.784 452.665L303.541 466.788H292.01H292.028Z" fill="white"/>
<path d="M316.035 476.907H326.207C335.254 476.907 341.296 470.9 341.296 462.194C341.296 453.487 335.236 447.48 326.207 447.48H316.035V476.907ZM319.736 473.385V451.02H326.047C332.894 451.02 337.524 455.525 337.524 462.212C337.524 468.898 332.947 473.403 326.207 473.403H319.736V473.385Z" fill="white"/>
<path d="M355.599 476.907H359.049L370.741 447.48H366.826L361.91 459.888L357.333 471.579L352.703 459.888L347.822 447.48H343.871L355.599 476.907Z" fill="white"/>
<path d="M371.582 476.907H375.533L378.232 470.221H392.57L395.341 476.907H399.257L387.153 447.48H383.703L371.6 476.907H371.582ZM379.645 466.788L385.401 452.665L391.158 466.788H379.627H379.645Z" fill="white"/>
<path d="M403.652 476.907H407.317V453.863L423.586 476.907H427.036V447.48H423.425V470.525L407.156 447.48H403.67V476.907H403.652Z" fill="white"/>
<path d="M448.064 477.461C455.215 477.461 461.007 473.134 462.777 466.573H458.862C457.342 470.989 453.177 473.76 448.189 473.76C443.201 473.76 436.962 469.005 436.962 462.193C436.962 455.382 441.628 450.626 448.189 450.626C454.75 450.626 457.056 453.237 458.576 457.474H462.527C460.596 451.002 455 446.926 448.064 446.926C441.127 446.926 433.172 453.326 433.172 462.193C433.172 471.061 439.393 477.461 448.064 477.461Z" fill="white"/>
<path d="M468.746 476.905H487.071V473.455H472.447V463.622H485.569V460.208H472.447V450.911H486.624V447.461H468.746V476.887V476.905Z" fill="white"/>
<path d="M493.508 476.907H503.68C512.726 476.907 518.769 470.9 518.769 462.194C518.769 453.487 512.708 447.48 503.68 447.48H493.508V476.907ZM497.208 473.385V451.02H503.519C510.366 451.02 514.997 455.525 514.997 462.212C514.997 468.898 510.42 473.403 503.68 473.403H497.208V473.385Z" fill="white"/>
<path d="M294.638 516.737H298.338V490.833H308.26V487.293H284.68V490.833H294.638V516.737Z" fill="white"/>
<path d="M313.426 516.737H331.75V513.287H317.126V503.454H330.249V500.04H317.126V490.743H331.303V487.293H313.426V516.719V516.737Z" fill="white"/>
<path d="M351.236 517.293C358.387 517.293 364.179 512.966 365.949 506.405H362.034C360.514 510.821 356.349 513.592 351.361 513.592C346.373 513.592 340.134 508.837 340.134 502.025C340.134 495.214 344.8 490.458 351.361 490.458C357.922 490.458 360.228 493.069 361.748 497.306H365.699C363.768 490.834 358.172 486.758 351.236 486.758C344.299 486.758 336.344 493.158 336.344 502.025C336.344 510.893 342.565 517.293 351.236 517.293Z" fill="white"/>
<path d="M391.214 516.739H394.915V487.312H391.214V499.97H375.607V487.312H371.906V516.739H375.607V503.492H391.214V516.739Z" fill="white"/>
<path d="M402.906 516.739H406.571V493.695L422.84 516.739H426.29V487.312H422.679V510.357L406.41 487.312H402.924V516.739H402.906Z" fill="white"/>
<path d="M447.632 517.293C456.588 517.293 462.899 510.982 462.899 502.025C462.899 493.069 456.588 486.758 447.632 486.758C438.675 486.758 432.418 493.069 432.418 502.025C432.418 510.982 438.675 517.293 447.632 517.293ZM436.208 502.025C436.208 495.178 440.874 490.458 447.65 490.458C454.425 490.458 459.091 495.178 459.091 502.025C459.091 508.872 454.425 513.592 447.65 513.592C440.874 513.592 436.208 508.89 436.208 502.025Z" fill="white"/>
<path d="M468.996 516.737H486.999V513.198H472.697V487.293H468.996V516.719V516.737Z" fill="white"/>
<path d="M505.358 517.293C514.315 517.293 520.626 510.982 520.626 502.025C520.626 493.069 514.315 486.758 505.358 486.758C496.402 486.758 490.145 493.069 490.145 502.025C490.145 510.982 496.402 517.293 505.358 517.293ZM493.917 502.025C493.917 495.178 498.583 490.458 505.358 490.458C512.134 490.458 516.8 495.178 516.8 502.025C516.8 508.872 512.134 513.592 505.358 513.592C498.583 513.592 493.917 508.89 493.917 502.025Z" fill="white"/>
<path d="M539.845 517.29C548.891 517.29 554.987 510.443 554.808 500.772H538.826V504.311H550.804C550.053 509.871 545.834 513.608 539.916 513.608C533.999 513.608 528.653 508.852 528.653 502.041C528.653 495.23 533.284 490.474 539.88 490.474C546.477 490.474 548.033 492.709 549.892 496.481H553.932C552.037 490.671 546.495 486.773 539.755 486.773C533.015 486.773 524.863 493.209 524.863 502.041C524.863 510.872 531.174 517.308 539.827 517.308L539.845 517.29Z" fill="white"/>
<path d="M560.816 516.739H564.517V487.312H560.816V516.739Z" fill="white"/>
<path d="M572.508 516.737H590.832V513.287H576.208V503.454H589.331V500.04H576.208V490.743H590.385V487.293H572.508V516.719V516.737Z" fill="white"/>
<path d="M607.065 517.293C613.5 517.293 617.666 514.146 617.666 509.015C617.666 503.885 614.77 502.079 607.243 500.22C601.523 498.825 599.627 497.323 599.627 494.874C599.627 492.425 602.148 490.298 606.349 490.298C610.551 490.298 613.375 492.479 613.465 496.018H617.13C617.094 490.298 612.964 486.758 606.367 486.758C599.771 486.758 595.855 489.904 595.855 494.874C595.855 499.844 599.091 501.936 606.332 503.652C611.623 504.921 613.858 506.387 613.858 509.123C613.858 511.858 611.248 513.753 607.082 513.753C602.917 513.753 599.306 511.482 599.216 507.692H595.516C595.569 513.449 600.057 517.275 607.082 517.275L607.065 517.293Z" fill="white"/>
<path fill-rule="evenodd" clip-rule="evenodd" d="M266.426 449.948C266.438 449.948 266.45 449.948 266.462 449.947H266.426V449.948ZM127.154 516.642C143.283 516.683 159.412 516.715 175.555 516.667C186.544 516.473 197.525 516.497 208.509 516.522C214.733 516.536 220.958 516.549 227.185 516.524C227.292 516.524 227.4 516.524 227.489 516.488C228.222 516.22 228.991 515.916 229.581 515.397C230.778 514.265 231.93 513.086 233.079 511.909C233.817 511.154 234.554 510.399 235.302 509.659C236.138 508.832 236.976 508.006 237.814 507.18C241.453 503.593 245.096 500.002 248.656 496.34L252.196 492.8C252.482 492.52 252.766 492.238 253.05 491.956C253.618 491.392 254.186 490.828 254.77 490.279C255.146 489.922 255.628 489.654 256.147 489.618C256.553 489.594 256.967 489.602 257.378 489.61C257.582 489.614 257.786 489.618 257.988 489.618C258.113 489.618 258.256 489.654 258.364 489.707C258.829 489.958 259.311 490.226 259.722 490.565C260.044 490.878 260.362 491.196 260.679 491.513C260.996 491.83 261.314 492.148 261.635 492.46C262.037 492.862 262.439 493.265 262.842 493.669C264.049 494.88 265.26 496.094 266.48 497.287C266.492 493.82 266.511 490.338 266.53 486.849C266.596 474.545 266.663 462.149 266.426 449.948C260.131 449.983 253.827 449.962 247.523 449.94C238.051 449.908 228.579 449.876 219.14 450.037C220.708 451.578 222.225 453.098 223.752 454.629C224.263 455.141 224.775 455.654 225.29 456.169C225.505 456.383 225.719 456.58 225.934 456.777L225.934 456.777C226.196 457.025 226.363 457.344 226.533 457.666C226.571 457.739 226.609 457.813 226.649 457.885C226.916 458.384 226.899 458.882 226.882 459.416L226.881 459.423C226.881 459.517 226.887 459.615 226.892 459.712C226.912 460.095 226.933 460.49 226.649 460.817C226.613 461.157 226.416 461.443 226.22 461.693C226.005 461.997 225.719 462.265 225.451 462.515C225.129 462.831 224.812 463.151 224.494 463.471C223.858 464.11 223.222 464.75 222.555 465.358C220.751 467.115 218.976 468.907 217.203 470.696C215.566 472.348 213.931 473.998 212.275 475.62C207.529 480.419 202.753 485.189 197.976 489.959C196.384 491.549 194.791 493.139 193.2 494.731C189.41 498.449 185.656 502.204 181.919 505.958C180.9 507.031 179.649 507.084 178.272 507.031C172.885 507.018 167.495 506.994 162.105 506.969C152.398 506.926 142.689 506.882 132.988 506.905L127.154 516.642Z" fill="url(#paint5_linear_748_1908)"/>
<path d="M132.988 506.905C132.041 506.87 131.129 506.762 130.414 506.065C130.038 505.708 129.609 505.368 129.52 504.814C129.341 504.42 129.091 504.027 129.055 503.562C129.002 502.633 129.288 501.578 129.913 500.881C130.736 500.005 131.594 499.182 132.434 498.324C135.151 495.571 137.905 492.872 140.622 490.118C141.963 488.795 122.566 507.781 123.906 506.459L101.077 472.312C99.1997 474.136 97.3583 475.995 95.499 477.837C92.6386 480.608 89.9033 483.504 87.0429 486.275C84.5222 488.778 82.0729 491.352 79.4986 493.801C79.1231 494.194 78.7656 494.606 78.3902 494.981C78.0147 495.357 77.5678 495.696 77.2102 496.09C75.8515 497.466 74.5465 498.896 73.1163 500.201C72.6157 500.648 72.2045 501.185 71.7218 501.649C71.1676 502.204 70.5777 502.722 70.0056 503.276C68.9866 504.313 67.9675 505.368 66.9306 506.387C66.3764 506.941 65.8222 507.513 65.268 508.067C64.5708 508.765 63.8378 509.444 63.1763 510.195C62.6043 510.839 62.2288 511.589 62.2467 512.483C62.2825 512.912 62.211 513.377 62.3361 513.806C62.5506 514.271 62.7294 514.772 63.0691 515.147C63.3909 515.505 63.7305 515.862 64.1775 516.095C64.4099 516.22 64.6602 516.255 64.8568 516.381C65.1608 516.577 65.4825 516.559 65.8043 516.577H68.772C88.2507 516.528 107.703 516.592 127.154 516.642L132.988 506.905Z" fill="#DCDCDC"/>
</g>
<defs>
<filter id="filter0_f_748_1908" x="199.7" y="-238.3" width="1639.6" height="1556.6" filterUnits="userSpaceOnUse" color-interpolation-filters="sRGB">
<feFlood flood-opacity="0" result="BackgroundImageFix"/>
<feBlend mode="normal" in="SourceGraphic" in2="BackgroundImageFix" result="shape"/>
<feGaussianBlur stdDeviation="137.65" result="effect1_foregroundBlur_748_1908"/>
</filter>
<filter id="filter1_f_748_1908" x="606.37" y="10.1" width="705.714" height="54.8" filterUnits="userSpaceOnUse" color-interpolation-filters="sRGB">
<feFlood flood-opacity="0" result="BackgroundImageFix"/>
<feBlend mode="normal" in="SourceGraphic" in2="BackgroundImageFix" result="shape"/>
<feGaussianBlur stdDeviation="7.45" result="effect1_foregroundBlur_748_1908"/>
</filter>
<filter id="filter2_f_748_1908" x="894.749" y="15.9056" width="165.99" height="42.1888" filterUnits="userSpaceOnUse" color-interpolation-filters="sRGB">
<feFlood flood-opacity="0" result="BackgroundImageFix"/>
<feBlend mode="normal" in="SourceGraphic" in2="BackgroundImageFix" result="shape"/>
<feGaussianBlur stdDeviation="7.5472" result="effect1_foregroundBlur_748_1908"/>
</filter>
<filter id="filter3_f_748_1908" x="618.827" y="-249.22" width="717.846" height="572.44" filterUnits="userSpaceOnUse" color-interpolation-filters="sRGB">
<feFlood flood-opacity="0" result="BackgroundImageFix"/>
<feBlend mode="normal" in="SourceGraphic" in2="BackgroundImageFix" result="shape"/>
<feGaussianBlur stdDeviation="140.11" result="effect1_foregroundBlur_748_1908"/>
</filter>
<filter id="filter4_f_748_1908" x="723" y="125" width="628.027" height="811.398" filterUnits="userSpaceOnUse" color-interpolation-filters="sRGB">
<feFlood flood-opacity="0" result="BackgroundImageFix"/>
<feBlend mode="normal" in="SourceGraphic" in2="BackgroundImageFix" result="shape"/>
<feGaussianBlur stdDeviation="6" result="effect1_foregroundBlur_748_1908"/>
</filter>
<linearGradient id="paint0_linear_748_1908" x1="1262.28" y1="679.959" x2="3557.87" y2="-776.822" gradientUnits="userSpaceOnUse">
<stop stop-color="#06B7C0" stop-opacity="0.44"/>
<stop offset="0.249503" stop-color="#02415A" stop-opacity="0.12"/>
<stop offset="0.405466" stop-color="#00092A" stop-opacity="0.21"/>
<stop offset="0.928088" stop-color="#00092A"/>
</linearGradient>
<linearGradient id="paint1_linear_748_1908" x1="1072.19" y1="811.148" x2="2009.25" y2="336.01" gradientUnits="userSpaceOnUse">
<stop offset="0.211625" stop-color="#0BF6F7"/>
<stop offset="0.393611" stop-color="#0BF6F7"/>
<stop offset="0.6734" stop-color="white" stop-opacity="0"/>
</linearGradient>
<linearGradient id="paint2_linear_748_1908" x1="959.568" y1="51.6963" x2="959.568" y2="19.6607" gradientUnits="userSpaceOnUse">
<stop offset="0.0772918" stop-color="#0CFEFF"/>
<stop offset="1" stop-color="#0CFEFF" stop-opacity="0"/>
</linearGradient>
<linearGradient id="paint3_linear_748_1908" x1="1010.72" y1="31.6052" x2="1010.72" y2="-11" gradientUnits="userSpaceOnUse">
<stop stop-color="#1539AB"/>
<stop offset="1" stop-color="#4773FF"/>
</linearGradient>
<linearGradient id="paint4_linear_748_1908" x1="1021.99" y1="79.0794" x2="1020.41" y2="-11.0382" gradientUnits="userSpaceOnUse">
<stop offset="0.211625" stop-color="#0BF6F7"/>
<stop offset="0.6734" stop-color="white" stop-opacity="0"/>
</linearGradient>
<linearGradient id="paint5_linear_748_1908" x1="129.896" y1="518.769" x2="276.664" y2="469.422" gradientUnits="userSpaceOnUse">
<stop stop-color="#DCDCDC"/>
<stop offset="0.149628" stop-color="#C9CEDE"/>
<stop offset="0.220931" stop-color="#BEC6DF"/>
<stop offset="0.239783" stop-color="#BBC3DF"/>
<stop offset="0.309413" stop-color="#A8B5E1"/>
<stop offset="0.364297" stop-color="#97A7E2"/>
<stop offset="0.464183" stop-color="#8298E4"/>
<stop offset="0.550951" stop-color="#6D88E6"/>
<stop offset="0.613177" stop-color="#5B7BE8"/>
<stop offset="0.7057" stop-color="#4B6EE9"/>
<stop offset="0.790056" stop-color="#355EEB"/>
<stop offset="0.94398" stop-color="#1646EE"/>
</linearGradient>
<clipPath id="clip0_748_1908">
<rect width="1920" height="1080" fill="white"/>
</clipPath>
<clipPath id="clip1_748_1908">
<rect width="300" height="37" fill="white" transform="translate(812 -4)"/>
</clipPath>
</defs>
</svg>
