<svg width="1920" height="1080" viewBox="0 0 1920 1080" fill="none" xmlns="http://www.w3.org/2000/svg">
<g clip-path="url(#clip0_622_1792)">
<rect width="1920" height="1080" fill="#022F43"/>
<g filter="url(#filter0_f_622_1792)">
<path fill-rule="evenodd" clip-rule="evenodd" d="M1019.5 37L475 540L1019.5 1043L1564 540L1019.5 37Z" fill="#018C8C"/>
</g>
<path d="M1920.73 144.274H741.274V306.744L1175.58 908.646C1179.7 914.348 1186.3 917.726 1193.33 917.726H1920.73V144.274Z" fill="url(#paint0_linear_622_1792)" stroke="url(#paint1_linear_622_1792)" stroke-width="0.54717"/>
<g filter="url(#filter1_f_622_1792)">
<path d="M884.419 28.2025C950.81 24.1959 988.335 23.677 1056.22 28.2025C1367.3 28.2555 1387.55 30.6619 1056.22 40.4615C987.517 53.2091 950.119 53.1499 884.419 40.4615C503.203 28.5543 565.272 26.922 884.419 28.2025Z" fill="url(#paint2_linear_622_1792)"/>
</g>
<g filter="url(#filter2_f_622_1792)">
<ellipse cx="977.744" cy="37" rx="67.9002" ry="6" fill="white"/>
</g>
<g filter="url(#filter3_f_622_1792)">
<ellipse cx="977.749" cy="37" rx="78.7025" ry="6" fill="#00FF94"/>
</g>
<path d="M586.177 20.5695C574.43 12.2393 564.668 1.49697 559.811 -9.78271H1360.08C1356.09 -1.73738 1348.16 8.2567 1337.74 16.9772C1326.6 26.2986 1312.74 34.0669 1298.03 36.4743H625.683C612.81 35.2692 598.475 29.2905 586.177 20.5695Z" fill="url(#paint3_linear_622_1792)" stroke="url(#paint4_linear_622_1792)" stroke-width="2.43458"/>
<g clip-path="url(#clip1_622_1792)">
<path d="M822.02 27V24.33H825.44V15.72H822.2V13.05H828.86V24.33H831.98V27H822.02ZM827 10.74C826.4 10.74 825.89 10.54 825.47 10.14C825.07 9.74 824.87 9.26 824.87 8.7C824.87 8.12 825.07 7.64 825.47 7.26C825.87 6.86 826.38 6.66 827 6.66C827.56 6.66 828.05 6.86 828.47 7.26C828.91 7.66 829.13 8.14 829.13 8.7C829.13 9.26 828.91 9.74 828.47 10.14C828.05 10.54 827.56 10.74 827 10.74ZM838.61 8.31H842.15L848.48 20.61L848.3 8.31H851.6V8.58C851.5 8.7 851.43 8.84 851.39 9C851.37 9.14 851.36 9.37 851.36 9.69V27H848.21L841.67 13.89V27H838.61V8.31ZM856.76 27V8.31H861.59C863.23 8.31 864.5 8.54 865.4 9C866.32 9.44 867.09 10.07 867.71 10.89C868.33 11.73 868.81 12.73 869.15 13.89C869.51 15.05 869.69 16.35 869.69 17.79C869.65 19.67 869.34 21.31 868.76 22.71C868.18 24.09 867.27 25.15 866.03 25.89C864.81 26.63 863.21 27 861.23 27H856.76ZM860.06 24.36H861.14C862.42 24.36 863.44 24.09 864.2 23.55C864.98 23.01 865.54 22.25 865.88 21.27C866.22 20.29 866.38 19.14 866.36 17.82C866.36 16.44 866.21 15.24 865.91 14.22C865.63 13.2 865.13 12.41 864.41 11.85C863.69 11.29 862.71 11.01 861.47 11.01H860.06V24.36ZM875.6 27V24.27H879.26V11.04H875.81V8.31H886.13V11.04H882.47V24.27H886.28V27H875.6ZM898.76 27.33C897.52 27.33 896.35 27.15 895.25 26.79C894.17 26.41 893.27 25.84 892.55 25.08L894.2 22.29L894.32 22.05L894.59 22.2C894.63 22.36 894.68 22.52 894.74 22.68C894.82 22.82 894.98 23 895.22 23.22C895.72 23.6 896.27 23.91 896.87 24.15C897.49 24.39 898.16 24.51 898.88 24.51C899.82 24.51 900.58 24.31 901.16 23.91C901.76 23.49 902.06 22.88 902.06 22.08C902.06 21.68 901.97 21.31 901.79 20.97C901.61 20.61 901.25 20.25 900.71 19.89C900.19 19.53 899.41 19.11 898.37 18.63C897.09 18.07 896.07 17.51 895.31 16.95C894.57 16.37 894.04 15.75 893.72 15.09C893.4 14.41 893.24 13.65 893.24 12.81C893.24 11.89 893.49 11.07 893.99 10.35C894.51 9.63 895.22 9.06 896.12 8.64C897.02 8.22 898.05 8.01 899.21 8.01C901.51 8.01 903.4 8.81 904.88 10.41L902.9 12.69L902.72 12.9L902.48 12.72C902.46 12.56 902.42 12.41 902.36 12.27C902.32 12.11 902.19 11.91 901.97 11.67C901.59 11.31 901.18 11.07 900.74 10.95C900.32 10.83 899.82 10.77 899.24 10.77C898.42 10.77 897.77 10.96 897.29 11.34C896.81 11.72 896.57 12.16 896.57 12.66C896.57 13.06 896.66 13.42 896.84 13.74C897.02 14.06 897.38 14.4 897.92 14.76C898.48 15.12 899.33 15.55 900.47 16.05C901.73 16.63 902.72 17.2 903.44 17.76C904.16 18.3 904.66 18.9 904.94 19.56C905.24 20.22 905.39 20.99 905.39 21.87C905.39 22.77 905.16 23.64 904.7 24.48C904.24 25.32 903.52 26.01 902.54 26.55C901.56 27.07 900.3 27.33 898.76 27.33ZM917.06 27.36C914.76 27.36 913.02 26.52 911.84 24.84C910.66 23.16 910.07 20.77 910.07 17.67C910.07 14.65 910.66 12.29 911.84 10.59C913.02 8.89 914.76 8.04 917.06 8.04C919.32 8.04 921.04 8.89 922.22 10.59C923.42 12.29 924.02 14.65 924.02 17.67C924.02 20.77 923.42 23.16 922.22 24.84C921.04 26.52 919.32 27.36 917.06 27.36ZM917.06 24.6C918.18 24.6 919.06 24.03 919.7 22.89C920.34 21.73 920.66 19.98 920.66 17.64C920.66 15.46 920.34 13.78 919.7 12.6C919.06 11.4 918.18 10.8 917.06 10.8C915.9 10.8 915 11.4 914.36 12.6C913.74 13.78 913.43 15.46 913.43 17.64C913.43 19.98 913.74 21.73 914.36 22.89C915 24.03 915.9 24.6 917.06 24.6ZM928.61 8.31H932.15L938.48 20.61L938.3 8.31H941.6V8.58C941.5 8.7 941.43 8.84 941.39 9C941.37 9.14 941.36 9.37 941.36 9.69V27H938.21L931.67 13.89V27H928.61V8.31ZM947.6 27V24.27H951.26V11.04H947.81V8.31H958.13V11.04H954.47V24.27H958.28V27H947.6ZM971.87 27.33C970.51 27.33 969.26 27 968.12 26.34C967 25.66 966.1 24.61 965.42 23.19C964.76 21.77 964.43 19.96 964.43 17.76C964.43 15.92 964.65 14.38 965.09 13.14C965.55 11.88 966.15 10.88 966.89 10.14C967.63 9.4 968.44 8.87 969.32 8.55C970.22 8.21 971.11 8.04 971.99 8.04C973.39 8.04 974.59 8.36 975.59 9C976.61 9.64 977.38 10.54 977.9 11.7L975.77 13.29L975.53 13.44L975.38 13.2C975.4 13.06 975.38 12.92 975.32 12.78C975.28 12.62 975.18 12.4 975.02 12.12C974.58 11.6 974.12 11.25 973.64 11.07C973.18 10.87 972.69 10.77 972.17 10.77C971.41 10.77 970.69 11.03 970.01 11.55C969.35 12.07 968.81 12.84 968.39 13.86C967.99 14.86 967.79 16.11 967.79 17.61C967.79 19.77 968.18 21.47 968.96 22.71C969.76 23.93 970.76 24.54 971.96 24.54C972.7 24.54 973.34 24.38 973.88 24.06C974.42 23.74 974.91 23.21 975.35 22.47L977.69 24.21C976.99 25.35 976.16 26.16 975.2 26.64C974.26 27.1 973.15 27.33 971.87 27.33ZM1007.78 27.33C1006.22 27.33 1004.87 26.93 1003.73 26.13C1002.61 25.33 1001.75 24.21 1001.15 22.77C1000.55 21.33 1000.25 19.65 1000.25 17.73C1000.25 15.75 1000.5 14.13 1001 12.87C1001.52 11.59 1002.17 10.6 1002.95 9.9C1003.75 9.18 1004.58 8.69 1005.44 8.43C1006.3 8.15 1007.07 8.01 1007.75 8.01C1008.97 8.01 1010.11 8.3 1011.17 8.88C1012.25 9.44 1013.07 10.24 1013.63 11.28L1011.65 13.23L1011.47 13.44L1011.26 13.23C1011.24 13.07 1011.2 12.92 1011.14 12.78C1011.1 12.62 1010.98 12.41 1010.78 12.15C1010.44 11.75 1010.04 11.43 1009.58 11.19C1009.14 10.95 1008.56 10.83 1007.84 10.83C1007.1 10.83 1006.4 11.04 1005.74 11.46C1005.1 11.88 1004.58 12.58 1004.18 13.56C1003.8 14.52 1003.61 15.81 1003.61 17.43C1003.61 19.83 1003.99 21.62 1004.75 22.8C1005.53 23.98 1006.54 24.57 1007.78 24.57C1008.28 24.57 1008.77 24.51 1009.25 24.39C1009.75 24.25 1010.21 24 1010.63 23.64V20.19H1007.54V17.37H1013.69V25.38C1012.79 26.1 1011.84 26.61 1010.84 26.91C1009.84 27.19 1008.82 27.33 1007.78 27.33ZM1023.23 27V11.16H1018.19V8.31H1031.78V11.16H1026.47V27H1023.23ZM1059.74 27V12L1056.35 13.2L1055.63 10.95L1060.61 8.31H1063.13V27H1059.74ZM1079 27.36C1077.04 27.36 1075.48 26.53 1074.32 24.87C1073.18 23.21 1072.61 20.84 1072.61 17.76C1072.61 14.72 1073.18 12.34 1074.32 10.62C1075.48 8.9 1077.04 8.04 1079 8.04C1080.96 8.04 1082.51 8.9 1083.65 10.62C1084.81 12.34 1085.39 14.72 1085.39 17.76C1085.39 20.84 1084.81 23.21 1083.65 24.87C1082.51 26.53 1080.96 27.36 1079 27.36ZM1075.76 17.76C1075.76 18.58 1075.8 19.34 1075.88 20.04L1081.64 13.2C1081.1 11.58 1080.22 10.77 1079 10.77C1077.92 10.77 1077.11 11.39 1076.57 12.63C1076.03 13.85 1075.76 15.56 1075.76 17.76ZM1079 24.75C1080.08 24.75 1080.89 24.15 1081.43 22.95C1081.97 21.73 1082.24 20 1082.24 17.76C1082.24 16.98 1082.2 16.25 1082.12 15.57L1076.36 22.38C1076.9 23.96 1077.78 24.75 1079 24.75ZM1097 27.36C1095.04 27.36 1093.48 26.53 1092.32 24.87C1091.18 23.21 1090.61 20.84 1090.61 17.76C1090.61 14.72 1091.18 12.34 1092.32 10.62C1093.48 8.9 1095.04 8.04 1097 8.04C1098.96 8.04 1100.51 8.9 1101.65 10.62C1102.81 12.34 1103.39 14.72 1103.39 17.76C1103.39 20.84 1102.81 23.21 1101.65 24.87C1100.51 26.53 1098.96 27.36 1097 27.36ZM1093.76 17.76C1093.76 18.58 1093.8 19.34 1093.88 20.04L1099.64 13.2C1099.1 11.58 1098.22 10.77 1097 10.77C1095.92 10.77 1095.11 11.39 1094.57 12.63C1094.03 13.85 1093.76 15.56 1093.76 17.76ZM1097 24.75C1098.08 24.75 1098.89 24.15 1099.43 22.95C1099.97 21.73 1100.24 20 1100.24 17.76C1100.24 16.98 1100.2 16.25 1100.12 15.57L1094.36 22.38C1094.9 23.96 1095.78 24.75 1097 24.75Z" fill="#89D2FF"/>
</g>
<path d="M48.84 557V544.54H52.06C53.1533 544.54 54 544.693 54.6 545C55.2133 545.293 55.7267 545.713 56.14 546.26C56.5533 546.82 56.8733 547.487 57.1 548.26C57.34 549.033 57.46 549.9 57.46 550.86C57.4333 552.113 57.2267 553.207 56.84 554.14C56.4533 555.06 55.8467 555.767 55.02 556.26C54.2067 556.753 53.14 557 51.82 557H48.84ZM51.04 555.24H51.76C52.6133 555.24 53.2933 555.06 53.8 554.7C54.32 554.34 54.6933 553.833 54.92 553.18C55.1467 552.527 55.2533 551.76 55.24 550.88C55.24 549.96 55.14 549.16 54.94 548.48C54.7533 547.8 54.42 547.273 53.94 546.9C53.46 546.527 52.8067 546.34 51.98 546.34H51.04V555.24ZM67.48 557L66.62 554.1H63.36L62.48 557H60.24L64.46 544.46H65.54L69.76 557H67.48ZM65 548.64L63.84 552.48H66.14L65 548.64ZM75.82 557V546.44H72.46V544.54H81.52V546.44H77.98V557H75.82ZM91.48 557L90.62 554.1H87.36L86.48 557H84.24L88.46 544.46H89.54L93.76 557H91.48ZM89 548.64L87.84 552.48H90.14L89 548.64ZM109.84 557L108.2 544.54H110.16L111 552.36L112.6 545.52H113.8L115.4 552.34L116.06 544.54H117.9L116.28 557H114.86L113.1 549.32L111.3 557H109.84ZM121.4 557V555.18H123.84V546.36H121.54V544.54H128.42V546.36H125.98V555.18H128.52V557H121.4ZM135.82 557V546.44H132.46V544.54H141.52V546.44H137.98V557H135.82ZM144.76 544.54H147.22V544.72C147.14 544.8 147.087 544.893 147.06 545C147.047 545.093 147.04 545.247 147.04 545.46V549.6H150.88V544.54H153.34V544.72C153.26 544.8 153.213 544.893 153.2 545C153.187 545.093 153.18 545.247 153.18 545.46V557H150.88V551.4H147.04V557H144.76V544.54ZM161.04 557.24C159.507 557.24 158.347 556.68 157.56 555.56C156.773 554.44 156.38 552.847 156.38 550.78C156.38 548.767 156.773 547.193 157.56 546.06C158.347 544.927 159.507 544.36 161.04 544.36C162.547 544.36 163.693 544.927 164.48 546.06C165.28 547.193 165.68 548.767 165.68 550.78C165.68 552.847 165.28 554.44 164.48 555.56C163.693 556.68 162.547 557.24 161.04 557.24ZM161.04 555.4C161.787 555.4 162.373 555.02 162.8 554.26C163.227 553.487 163.44 552.32 163.44 550.76C163.44 549.307 163.227 548.187 162.8 547.4C162.373 546.6 161.787 546.2 161.04 546.2C160.267 546.2 159.667 546.6 159.24 547.4C158.827 548.187 158.62 549.307 158.62 550.76C158.62 552.32 158.827 553.487 159.24 554.26C159.667 555.02 160.267 555.4 161.04 555.4ZM173 557.26C171.627 557.26 170.567 556.853 169.82 556.04C169.087 555.227 168.72 554.093 168.72 552.64V544.54H171.14V544.72C171.073 544.8 171.027 544.893 171 545C170.987 545.093 170.98 545.247 170.98 545.46V552.66C170.98 553.513 171.127 554.187 171.42 554.68C171.713 555.173 172.247 555.42 173.02 555.42C173.793 555.42 174.333 555.173 174.64 554.68C174.947 554.187 175.1 553.493 175.1 552.6V544.54H177.3V552.58C177.3 554.18 176.9 555.36 176.1 556.12C175.3 556.88 174.267 557.26 173 557.26ZM183.82 557V546.44H180.46V544.54H189.52V546.44H185.98V557H183.82ZM204.74 557V544.54H208.54C210.033 544.54 211.14 544.833 211.86 545.42C212.58 546.007 212.94 546.76 212.94 547.68C212.94 548.213 212.787 548.74 212.48 549.26C212.187 549.78 211.753 550.153 211.18 550.38C211.86 550.673 212.4 551.093 212.8 551.64C213.213 552.173 213.42 552.76 213.42 553.4C213.42 554.48 213.013 555.353 212.2 556.02C211.4 556.673 210.173 557 208.52 557H204.74ZM207 549.52H208.36C209.24 549.52 209.84 549.373 210.16 549.08C210.493 548.773 210.66 548.373 210.66 547.88C210.66 547.427 210.493 547.06 210.16 546.78C209.827 546.5 209.293 546.36 208.56 546.36H207V549.52ZM207 555.14H208.76C209.467 555.14 210.027 554.987 210.44 554.68C210.867 554.373 211.08 553.927 211.08 553.34C211.08 552.74 210.88 552.253 210.48 551.88C210.093 551.507 209.407 551.32 208.42 551.32H207V555.14ZM221.04 557.24C219.507 557.24 218.347 556.68 217.56 555.56C216.773 554.44 216.38 552.847 216.38 550.78C216.38 548.767 216.773 547.193 217.56 546.06C218.347 544.927 219.507 544.36 221.04 544.36C222.547 544.36 223.693 544.927 224.48 546.06C225.28 547.193 225.68 548.767 225.68 550.78C225.68 552.847 225.28 554.44 224.48 555.56C223.693 556.68 222.547 557.24 221.04 557.24ZM221.04 555.4C221.787 555.4 222.373 555.02 222.8 554.26C223.227 553.487 223.44 552.32 223.44 550.76C223.44 549.307 223.227 548.187 222.8 547.4C222.373 546.6 221.787 546.2 221.04 546.2C220.267 546.2 219.667 546.6 219.24 547.4C218.827 548.187 218.62 549.307 218.62 550.76C218.62 552.32 218.827 553.487 219.24 554.26C219.667 555.02 220.267 555.4 221.04 555.4ZM233 557.26C231.627 557.26 230.567 556.853 229.82 556.04C229.087 555.227 228.72 554.093 228.72 552.64V544.54H231.14V544.72C231.073 544.8 231.027 544.893 231 545C230.987 545.093 230.98 545.247 230.98 545.46V552.66C230.98 553.513 231.127 554.187 231.42 554.68C231.713 555.173 232.247 555.42 233.02 555.42C233.793 555.42 234.333 555.173 234.64 554.68C234.947 554.187 235.1 553.493 235.1 552.6V544.54H237.3V552.58C237.3 554.18 236.9 555.36 236.1 556.12C235.3 556.88 234.267 557.26 233 557.26ZM240.74 544.54H243.1L247.32 552.74L247.2 544.54H249.4V544.72C249.333 544.8 249.287 544.893 249.26 545C249.247 545.093 249.24 545.247 249.24 545.46V557H247.14L242.78 548.26V557H240.74V544.54ZM252.84 557V544.54H256.06C257.153 544.54 258 544.693 258.6 545C259.213 545.293 259.727 545.713 260.14 546.26C260.553 546.82 260.873 547.487 261.1 548.26C261.34 549.033 261.46 549.9 261.46 550.86C261.433 552.113 261.227 553.207 260.84 554.14C260.453 555.06 259.847 555.767 259.02 556.26C258.207 556.753 257.14 557 255.82 557H252.84ZM255.04 555.24H255.76C256.613 555.24 257.293 555.06 257.8 554.7C258.32 554.34 258.693 553.833 258.92 553.18C259.147 552.527 259.253 551.76 259.24 550.88C259.24 549.96 259.14 549.16 258.94 548.48C258.753 547.8 258.42 547.273 257.94 546.9C257.46 546.527 256.807 546.34 255.98 546.34H255.04V555.24ZM271.48 557L270.62 554.1H267.36L266.48 557H264.24L268.46 544.46H269.54L273.76 557H271.48ZM269 548.64L267.84 552.48H270.14L269 548.64ZM276.9 557V544.54H280.84C282.36 544.54 283.473 544.873 284.18 545.54C284.887 546.207 285.24 547.093 285.24 548.2C285.24 548.653 285.14 549.113 284.94 549.58C284.753 550.033 284.48 550.44 284.12 550.8C283.773 551.16 283.367 551.427 282.9 551.6L285.58 557H283.2L280.68 551.82H279.18V557H276.9ZM279.18 549.94H281C281.64 549.94 282.12 549.793 282.44 549.5C282.76 549.193 282.92 548.78 282.92 548.26C282.92 547.78 282.76 547.367 282.44 547.02C282.12 546.673 281.64 546.5 281 546.5H279.18V549.94ZM289.4 557V555.18H291.84V546.36H289.54V544.54H296.42V546.36H293.98V555.18H296.52V557H289.4ZM301.02 557V544.54H309.14V546.38H303.22V549.58H308.08V551.44H303.22V555.16H309.08V557H301.02ZM316.84 557.22C316.013 557.22 315.233 557.1 314.5 556.86C313.78 556.607 313.18 556.227 312.7 555.72L313.8 553.86L313.88 553.7L314.06 553.8C314.087 553.907 314.12 554.013 314.16 554.12C314.213 554.213 314.32 554.333 314.48 554.48C314.813 554.733 315.18 554.94 315.58 555.1C315.993 555.26 316.44 555.34 316.92 555.34C317.547 555.34 318.053 555.207 318.44 554.94C318.84 554.66 319.04 554.253 319.04 553.72C319.04 553.453 318.98 553.207 318.86 552.98C318.74 552.74 318.5 552.5 318.14 552.26C317.793 552.02 317.273 551.74 316.58 551.42C315.727 551.047 315.047 550.673 314.54 550.3C314.047 549.913 313.693 549.5 313.48 549.06C313.267 548.607 313.16 548.1 313.16 547.54C313.16 546.927 313.327 546.38 313.66 545.9C314.007 545.42 314.48 545.04 315.08 544.76C315.68 544.48 316.367 544.34 317.14 544.34C318.673 544.34 319.933 544.873 320.92 545.94L319.6 547.46L319.48 547.6L319.32 547.48C319.307 547.373 319.28 547.273 319.24 547.18C319.213 547.073 319.127 546.94 318.98 546.78C318.727 546.54 318.453 546.38 318.16 546.3C317.88 546.22 317.547 546.18 317.16 546.18C316.613 546.18 316.18 546.307 315.86 546.56C315.54 546.813 315.38 547.107 315.38 547.44C315.38 547.707 315.44 547.947 315.56 548.16C315.68 548.373 315.92 548.6 316.28 548.84C316.653 549.08 317.22 549.367 317.98 549.7C318.82 550.087 319.48 550.467 319.96 550.84C320.44 551.2 320.773 551.6 320.96 552.04C321.16 552.48 321.26 552.993 321.26 553.58C321.26 554.18 321.107 554.76 320.8 555.32C320.493 555.88 320.013 556.34 319.36 556.7C318.707 557.047 317.867 557.22 316.84 557.22ZM328.7 551.18C328.287 551.18 327.933 551.027 327.64 550.72C327.347 550.413 327.2 550.067 327.2 549.68C327.2 549.28 327.347 548.927 327.64 548.62C327.933 548.313 328.287 548.16 328.7 548.16C329.087 548.16 329.433 548.307 329.74 548.6C330.06 548.893 330.22 549.253 330.22 549.68C330.22 550.067 330.073 550.413 329.78 550.72C329.487 551.027 329.127 551.18 328.7 551.18ZM328.7 557.24C328.273 557.24 327.913 557.093 327.62 556.8C327.34 556.493 327.2 556.14 327.2 555.74C327.2 555.34 327.347 554.987 327.64 554.68C327.933 554.36 328.287 554.2 328.7 554.2C329.087 554.2 329.433 554.353 329.74 554.66C330.06 554.967 330.22 555.327 330.22 555.74C330.22 556.127 330.073 556.473 329.78 556.78C329.5 557.087 329.14 557.24 328.7 557.24ZM355.48 557L354.62 554.1H351.36L350.48 557H348.24L352.46 544.46H353.54L357.76 557H355.48ZM353 548.64L351.84 552.48H354.14L353 548.64ZM365.58 557.22C364.673 557.22 363.84 557 363.08 556.56C362.333 556.107 361.733 555.407 361.28 554.46C360.84 553.513 360.62 552.307 360.62 550.84C360.62 549.613 360.767 548.587 361.06 547.76C361.367 546.92 361.767 546.253 362.26 545.76C362.753 545.267 363.293 544.913 363.88 544.7C364.48 544.473 365.073 544.36 365.66 544.36C366.593 544.36 367.393 544.573 368.06 545C368.74 545.427 369.253 546.027 369.6 546.8L368.18 547.86L368.02 547.96L367.92 547.8C367.933 547.707 367.92 547.613 367.88 547.52C367.853 547.413 367.787 547.267 367.68 547.08C367.387 546.733 367.08 546.5 366.76 546.38C366.453 546.247 366.127 546.18 365.78 546.18C365.273 546.18 364.793 546.353 364.34 546.7C363.9 547.047 363.54 547.56 363.26 548.24C362.993 548.907 362.86 549.74 362.86 550.74C362.86 552.18 363.12 553.313 363.64 554.14C364.173 554.953 364.84 555.36 365.64 555.36C366.133 555.36 366.56 555.253 366.92 555.04C367.28 554.827 367.607 554.473 367.9 553.98L369.46 555.14C368.993 555.9 368.44 556.44 367.8 556.76C367.173 557.067 366.433 557.22 365.58 557.22ZM379.56 559.92C378.307 559.933 377.407 559.74 376.86 559.34C376.327 558.94 376.047 558.193 376.02 557.1C374.94 556.873 374.067 556.213 373.4 555.12C372.733 554.027 372.4 552.58 372.4 550.78C372.4 549.233 372.613 547.987 373.04 547.04C373.467 546.093 374.033 545.407 374.74 544.98C375.447 544.553 376.213 544.34 377.04 544.34C377.92 544.34 378.707 544.567 379.4 545.02C380.107 545.473 380.66 546.173 381.06 547.12C381.46 548.067 381.653 549.28 381.64 550.76C381.64 552.72 381.32 554.207 380.68 555.22C380.053 556.22 379.207 556.847 378.14 557.1C378.167 557.407 378.26 557.653 378.42 557.84C378.58 558.04 378.853 558.133 379.24 558.12L380.88 558.04L380.84 559.92H379.56ZM377.08 555.36C377.493 555.36 377.88 555.213 378.24 554.92C378.6 554.613 378.893 554.133 379.12 553.48C379.347 552.827 379.46 551.967 379.46 550.9C379.46 549.727 379.34 548.793 379.1 548.1C378.873 547.407 378.573 546.913 378.2 546.62C377.84 546.327 377.453 546.18 377.04 546.18C376.28 546.18 375.687 546.58 375.26 547.38C374.833 548.167 374.62 549.233 374.62 550.58C374.62 552.14 374.84 553.327 375.28 554.14C375.733 554.953 376.333 555.36 377.08 555.36ZM389 557.26C387.627 557.26 386.567 556.853 385.82 556.04C385.087 555.227 384.72 554.093 384.72 552.64V544.54H387.14V544.72C387.073 544.8 387.027 544.893 387 545C386.987 545.093 386.98 545.247 386.98 545.46V552.66C386.98 553.513 387.127 554.187 387.42 554.68C387.713 555.173 388.247 555.42 389.02 555.42C389.793 555.42 390.333 555.173 390.64 554.68C390.947 554.187 391.1 553.493 391.1 552.6V544.54H393.3V552.58C393.3 554.18 392.9 555.36 392.1 556.12C391.3 556.88 390.267 557.26 389 557.26ZM397.4 557V555.18H399.84V546.36H397.54V544.54H404.42V546.36H401.98V555.18H404.52V557H397.4ZM408.9 557V544.54H412.84C414.36 544.54 415.473 544.873 416.18 545.54C416.887 546.207 417.24 547.093 417.24 548.2C417.24 548.653 417.14 549.113 416.94 549.58C416.753 550.033 416.48 550.44 416.12 550.8C415.773 551.16 415.367 551.427 414.9 551.6L417.58 557H415.2L412.68 551.82H411.18V557H408.9ZM411.18 549.94H413C413.64 549.94 414.12 549.793 414.44 549.5C414.76 549.193 414.92 548.78 414.92 548.26C414.92 547.78 414.76 547.367 414.44 547.02C414.12 546.673 413.64 546.5 413 546.5H411.18V549.94ZM421.02 557V544.54H429.14V546.38H423.22V549.58H428.08V551.44H423.22V555.16H429.08V557H421.02ZM451.48 557L450.62 554.1H447.36L446.48 557H444.24L448.46 544.46H449.54L453.76 557H451.48ZM449 548.64L447.84 552.48H450.14L449 548.64ZM456.74 544.54H459.1L463.32 552.74L463.2 544.54H465.4V544.72C465.333 544.8 465.287 544.893 465.26 545C465.247 545.093 465.24 545.247 465.24 545.46V557H463.14L458.78 548.26V557H456.74V544.54ZM472.06 557V552.08L468.34 544.54H470.66L473.24 549.74L475.52 544.54H477.74L474.32 552.1V557H472.06ZM481.84 557L480.2 544.54H482.16L483 552.36L484.6 545.52H485.8L487.4 552.34L488.06 544.54H489.9L488.28 557H486.86L485.1 549.32L483.3 557H481.84ZM492.76 544.54H495.22V544.72C495.14 544.8 495.087 544.893 495.06 545C495.047 545.093 495.04 545.247 495.04 545.46V549.6H498.88V544.54H501.34V544.72C501.26 544.8 501.213 544.893 501.2 545C501.187 545.093 501.18 545.247 501.18 545.46V557H498.88V551.4H495.04V557H492.76V544.54ZM505.02 557V544.54H513.14V546.38H507.22V549.58H512.08V551.44H507.22V555.16H513.08V557H505.02ZM516.9 557V544.54H520.84C522.36 544.54 523.473 544.873 524.18 545.54C524.887 546.207 525.24 547.093 525.24 548.2C525.24 548.653 525.14 549.113 524.94 549.58C524.753 550.033 524.48 550.44 524.12 550.8C523.773 551.16 523.367 551.427 522.9 551.6L525.58 557H523.2L520.68 551.82H519.18V557H516.9ZM519.18 549.94H521C521.64 549.94 522.12 549.793 522.44 549.5C522.76 549.193 522.92 548.78 522.92 548.26C522.92 547.78 522.76 547.367 522.44 547.02C522.12 546.673 521.64 546.5 521 546.5H519.18V549.94ZM529.02 557V544.54H537.14V546.38H531.22V549.58H536.08V551.44H531.22V555.16H537.08V557H529.02ZM544.26 560.4L543.04 559.38C543.413 559.033 543.7 558.687 543.9 558.34C544.1 558.007 544.2 557.727 544.2 557.5C544.2 557.3 544.12 557.12 543.96 556.96C543.813 556.787 543.66 556.6 543.5 556.4C543.34 556.187 543.26 555.927 543.26 555.62C543.26 555.18 543.413 554.84 543.72 554.6C544.027 554.36 544.387 554.24 544.8 554.24C545.32 554.24 545.733 554.427 546.04 554.8C546.347 555.173 546.5 555.653 546.5 556.24C546.5 557.493 545.753 558.88 544.26 560.4ZM567.82 557V546.44H564.46V544.54H573.52V546.44H569.98V557H567.82ZM576.9 557V544.54H580.84C582.36 544.54 583.473 544.873 584.18 545.54C584.887 546.207 585.24 547.093 585.24 548.2C585.24 548.653 585.14 549.113 584.94 549.58C584.753 550.033 584.48 550.44 584.12 550.8C583.773 551.16 583.367 551.427 582.9 551.6L585.58 557H583.2L580.68 551.82H579.18V557H576.9ZM579.18 549.94H581C581.64 549.94 582.12 549.793 582.44 549.5C582.76 549.193 582.92 548.78 582.92 548.26C582.92 547.78 582.76 547.367 582.44 547.02C582.12 546.673 581.64 546.5 581 546.5H579.18V549.94ZM595.48 557L594.62 554.1H591.36L590.48 557H588.24L592.46 544.46H593.54L597.76 557H595.48ZM593 548.64L591.84 552.48H594.14L593 548.64ZM600.74 544.54H603.1L607.32 552.74L607.2 544.54H609.4V544.72C609.333 544.8 609.287 544.893 609.26 545C609.247 545.093 609.24 545.247 609.24 545.46V557H607.14L602.78 548.26V557H600.74V544.54ZM616.84 557.22C616.013 557.22 615.233 557.1 614.5 556.86C613.78 556.607 613.18 556.227 612.7 555.72L613.8 553.86L613.88 553.7L614.06 553.8C614.087 553.907 614.12 554.013 614.16 554.12C614.213 554.213 614.32 554.333 614.48 554.48C614.813 554.733 615.18 554.94 615.58 555.1C615.993 555.26 616.44 555.34 616.92 555.34C617.547 555.34 618.053 555.207 618.44 554.94C618.84 554.66 619.04 554.253 619.04 553.72C619.04 553.453 618.98 553.207 618.86 552.98C618.74 552.74 618.5 552.5 618.14 552.26C617.793 552.02 617.273 551.74 616.58 551.42C615.727 551.047 615.047 550.673 614.54 550.3C614.047 549.913 613.693 549.5 613.48 549.06C613.267 548.607 613.16 548.1 613.16 547.54C613.16 546.927 613.327 546.38 613.66 545.9C614.007 545.42 614.48 545.04 615.08 544.76C615.68 544.48 616.367 544.34 617.14 544.34C618.673 544.34 619.933 544.873 620.92 545.94L619.6 547.46L619.48 547.6L619.32 547.48C619.307 547.373 619.28 547.273 619.24 547.18C619.213 547.073 619.127 546.94 618.98 546.78C618.727 546.54 618.453 546.38 618.16 546.3C617.88 546.22 617.547 546.18 617.16 546.18C616.613 546.18 616.18 546.307 615.86 546.56C615.54 546.813 615.38 547.107 615.38 547.44C615.38 547.707 615.44 547.947 615.56 548.16C615.68 548.373 615.92 548.6 616.28 548.84C616.653 549.08 617.22 549.367 617.98 549.7C618.82 550.087 619.48 550.467 619.96 550.84C620.44 551.2 620.773 551.6 620.96 552.04C621.16 552.48 621.26 552.993 621.26 553.58C621.26 554.18 621.107 554.76 620.8 555.32C620.493 555.88 620.013 556.34 619.36 556.7C618.707 557.047 617.867 557.22 616.84 557.22ZM624.64 557V544.54H626.62L629.04 550.26L631.46 544.52H633.44V557H631.48V548.3L629.52 552.88H628.42L626.58 548.32V557H624.64ZM637.4 557V555.18H639.84V546.36H637.54V544.54H644.42V546.36H641.98V555.18H644.52V557H637.4ZM651.82 557V546.44H648.46V544.54H657.52V546.44H653.98V557H651.82ZM673.02 557V544.54H681.14V546.38H675.22V549.58H680.08V551.44H675.22V555.16H681.08V557H673.02ZM688.32 557.04L684.32 544.54H686.56L689.18 553.3L691.62 544.54H693.8L689.84 557.04H688.32ZM697.02 557V544.54H705.14V546.38H699.22V549.58H704.08V551.44H699.22V555.16H705.08V557H697.02ZM708.9 557V544.54H712.84C714.36 544.54 715.473 544.873 716.18 545.54C716.887 546.207 717.24 547.093 717.24 548.2C717.24 548.653 717.14 549.113 716.94 549.58C716.753 550.033 716.48 550.44 716.12 550.8C715.773 551.16 715.367 551.427 714.9 551.6L717.58 557H715.2L712.68 551.82H711.18V557H708.9ZM711.18 549.94H713C713.64 549.94 714.12 549.793 714.44 549.5C714.76 549.193 714.92 548.78 714.92 548.26C714.92 547.78 714.76 547.367 714.44 547.02C714.12 546.673 713.64 546.5 713 546.5H711.18V549.94ZM724.06 557V552.08L720.34 544.54H722.66L725.24 549.74L727.52 544.54H729.74L726.32 552.1V557H724.06ZM733.84 557L732.2 544.54H734.16L735 552.36L736.6 545.52H737.8L739.4 552.34L740.06 544.54H741.9L740.28 557H738.86L737.1 549.32L735.3 557H733.84ZM744.76 544.54H747.22V544.72C747.14 544.8 747.087 544.893 747.06 545C747.047 545.093 747.04 545.247 747.04 545.46V549.6H750.88V544.54H753.34V544.72C753.26 544.8 753.213 544.893 753.2 545C753.187 545.093 753.18 545.247 753.18 545.46V557H750.88V551.4H747.04V557H744.76V544.54ZM757.02 557V544.54H765.14V546.38H759.22V549.58H764.08V551.44H759.22V555.16H765.08V557H757.02ZM768.9 557V544.54H772.84C774.36 544.54 775.473 544.873 776.18 545.54C776.887 546.207 777.24 547.093 777.24 548.2C777.24 548.653 777.14 549.113 776.94 549.58C776.753 550.033 776.48 550.44 776.12 550.8C775.773 551.16 775.367 551.427 774.9 551.6L777.58 557H775.2L772.68 551.82H771.18V557H768.9ZM771.18 549.94H773C773.64 549.94 774.12 549.793 774.44 549.5C774.76 549.193 774.92 548.78 774.92 548.26C774.92 547.78 774.76 547.367 774.44 547.02C774.12 546.673 773.64 546.5 773 546.5H771.18V549.94ZM781.02 557V544.54H789.14V546.38H783.22V549.58H788.08V551.44H783.22V555.16H789.08V557H781.02Z" fill="#89D2FF"/>
<g filter="url(#filter4_f_622_1792)">
<path d="M738 169.5V140H892.5M1112.5 140H1284M738 266.5V310L799 394M903 542.5L989.5 662M1160 893.5L1174.63 913C1178.63 918.344 1184.94 921.463 1191.62 921.399L1339 920" stroke="#0BF6F7" stroke-width="6"/>
</g>
<path d="M738 169.5V140H892.5M1112.5 140H1284M738 266.5V310L799 394M903 542.5L989.5 662M1160 893.5L1174.63 913C1178.63 918.344 1184.94 921.463 1191.62 921.399L1339 920" stroke="#0BF6F7" stroke-width="6"/>
<path d="M156.374 413.67C133.299 413.67 110.225 413.67 87.1695 413.67C86.4646 413.67 85.7412 413.689 85.0364 413.67C83.8122 413.633 82.7178 414.041 81.6977 414.691C80.9743 415.154 80.3436 415.748 79.8057 416.416C79.2678 417.083 78.9711 417.862 78.7299 418.678C78.5259 419.402 78.4703 420.125 78.4703 420.867C78.4703 430.42 78.4703 439.972 78.4703 449.543C78.4703 465.754 78.4703 481.984 78.4703 498.195C78.4703 498.863 78.4703 499.531 78.6001 500.18C78.8227 501.497 79.5275 502.424 80.6404 503.074C81.4751 503.574 82.3654 503.686 83.3299 503.556C84.3315 503.408 85.0735 502.851 85.7598 502.202C86.9283 501.07 88.0598 499.902 89.1912 498.752C90.4896 497.453 91.7695 496.155 93.0678 494.875C94.1437 493.799 95.2195 492.742 96.2953 491.666C97.4082 490.553 98.5211 489.422 99.634 488.309C100.765 487.178 101.915 486.046 103.047 484.915C104.197 483.765 105.365 482.596 106.515 481.428C107.61 480.333 108.704 479.239 109.798 478.145C110.948 476.995 112.099 475.826 113.267 474.658C114.38 473.545 115.511 472.432 116.624 471.319C117.811 470.132 118.98 468.926 120.167 467.739C121.243 466.663 122.337 465.606 123.413 464.53C124.136 463.807 124.86 463.046 125.583 462.323C126.566 461.34 127.568 460.375 128.551 459.411C129.367 458.595 130.165 457.76 130.981 456.944C132.057 455.868 133.151 454.811 134.227 453.735C134.95 453.012 135.674 452.251 136.397 451.528C137.417 450.507 138.456 449.506 139.476 448.486C140.255 447.707 140.997 446.928 141.776 446.149C142.815 445.11 143.853 444.108 144.892 443.07C145.653 442.309 146.394 441.53 147.155 440.77C148.082 439.842 149.01 438.915 149.937 437.987C150.809 437.116 151.662 436.262 152.534 435.391C153.443 434.482 154.37 433.554 155.279 432.627C155.799 432.107 156.336 431.588 156.874 431.106C157.505 430.531 158.265 430.253 159.119 430.123C160.12 429.956 161.122 429.993 162.124 429.993C168.857 429.993 175.59 429.993 182.323 429.993C195.325 429.993 208.309 429.993 221.311 429.993C222.295 429.993 223.278 429.956 224.242 429.993C224.854 430.03 225.485 430.104 226.078 430.271C227.507 430.698 228.397 431.699 228.786 433.109C228.916 433.554 228.953 434.037 228.953 434.519C228.953 455.812 228.953 477.106 228.935 498.399C228.935 500.811 228.935 503.241 228.972 505.652C228.972 506.802 228.731 506.598 228.026 506.598C219.716 506.598 211.407 506.598 203.097 506.598C202.763 506.598 202.448 506.598 202.114 506.598C201.724 506.579 201.669 506.505 201.65 506.097C201.65 505.912 201.65 505.708 201.65 505.522C201.65 482.874 201.65 460.227 201.65 437.579C201.65 437.06 201.613 436.503 201.446 436.003C201.168 435.075 200.63 434.315 199.777 433.74C198.757 433.072 197.662 432.998 196.531 433.146C195.919 433.22 195.399 433.573 194.936 433.962C194.639 434.203 194.398 434.5 194.12 434.76C193.86 435.001 193.563 435.205 193.322 435.446C192.914 435.836 192.506 436.262 192.098 436.652C191.374 437.357 190.632 438.062 189.909 438.766C189.074 439.564 188.24 440.343 187.405 441.141C186.459 442.049 185.513 442.94 184.567 443.867C183.862 444.553 183.213 445.277 182.49 445.907C181.729 446.557 181.043 447.299 180.32 447.985C179.726 448.541 179.207 449.191 178.576 449.691C177.834 450.285 177.222 451.008 176.517 451.639C175.441 452.622 174.384 453.642 173.327 454.662C172.511 455.46 171.713 456.257 170.897 457.055C169.877 458.057 168.82 459.04 167.799 460.023C166.408 461.377 165.017 462.749 163.626 464.103C163.181 464.53 162.717 464.938 162.253 465.365C161.938 465.662 161.623 465.977 161.307 466.292C160.751 466.83 160.213 467.368 159.657 467.906C159.1 468.444 158.507 468.945 157.95 469.501C157.264 470.169 156.633 470.892 155.91 471.523C155.261 472.098 154.686 472.747 154.018 473.303C153.684 473.582 153.406 473.953 153.09 474.249C152.497 474.824 151.866 475.362 151.273 475.937C150.679 476.494 150.123 477.087 149.548 477.662C149.047 478.163 148.528 478.645 148.008 479.128C147.526 479.591 147.062 480.055 146.58 480.5C145.745 481.261 145.003 482.133 144.094 482.837C143.538 483.264 143.074 483.82 142.555 484.303C142.295 484.544 142.036 484.785 141.794 485.045C141.535 485.304 141.294 485.601 141.034 485.842C140.7 486.158 140.348 486.436 140.014 486.751C139.086 487.66 138.159 488.569 137.232 489.478C136.323 490.368 135.414 491.24 134.505 492.13C133.578 493.02 132.65 493.892 131.723 494.783C130.962 495.506 130.257 496.285 129.478 496.99C128.217 498.121 127.067 499.383 125.806 500.514C124.34 501.812 123.024 503.296 121.558 504.595C121.076 505.021 120.557 505.429 120.056 505.837C119.407 506.357 118.646 506.487 117.849 506.542C117.589 506.561 117.311 506.542 117.051 506.542C104.772 506.542 92.4743 506.542 80.1953 506.542C71.9969 506.542 63.817 506.542 55.6186 506.542C55.0065 506.542 54.3944 506.468 53.838 506.264C52.9848 505.93 52.3356 505.374 51.8348 504.595C51.3154 503.778 51.2227 502.907 51.2227 501.961C51.2227 493.725 51.2227 485.49 51.2227 477.254C51.2227 465.94 51.2227 454.607 51.2227 443.292C51.2227 442.754 51.2598 442.198 51.3525 441.66C51.4823 440.825 51.9831 440.176 52.5581 439.582C53.1702 438.952 53.8194 438.34 54.4315 437.709C55.2291 436.912 56.0081 436.114 56.7872 435.316C57.863 434.241 58.9573 433.183 60.0146 432.107C60.738 431.384 61.4428 430.642 62.1477 429.937C63.1493 428.954 64.1509 427.971 65.1525 426.988C65.9315 426.209 66.692 425.43 67.4525 424.651C68.0461 424.057 68.6396 423.464 69.2332 422.87C69.9751 422.128 70.6985 421.368 71.4404 420.645C72.5162 419.569 73.6106 418.512 74.6864 417.436C75.4283 416.694 76.1517 415.952 76.8936 415.191C77.8396 414.245 78.7856 413.281 79.7315 412.335C80.5662 411.5 81.4009 410.666 82.2356 409.831C83.2928 408.774 84.3501 407.735 85.4074 406.696C86.0751 406.047 86.7057 405.379 87.3735 404.711C88.0598 404.025 88.7646 403.357 89.4509 402.653C90.2299 401.874 90.9719 401.095 91.7509 400.316C92.3259 399.741 92.9009 399.184 93.4759 398.609C94.1807 397.904 94.8856 397.181 95.5904 396.476C96.7404 395.326 97.909 394.176 99.0775 393.007C99.7824 392.303 100.469 391.598 101.173 390.893C102.398 389.669 103.603 388.445 104.846 387.239C105.532 386.59 106.367 386.237 107.332 386.219C107.832 386.219 108.333 386.219 108.853 386.219C147.322 386.219 185.791 386.219 224.261 386.219C225.522 386.219 226.783 386.219 228.045 386.219C228.23 386.219 228.397 386.219 228.582 386.219C228.824 386.219 228.935 386.349 228.953 386.571C228.953 386.682 228.953 386.812 228.953 386.924C228.953 394.232 228.935 401.521 228.935 408.829C228.935 410.053 228.935 411.259 228.953 412.483C228.953 412.706 228.953 412.928 228.953 413.151C228.935 413.429 228.842 413.522 228.564 413.541C228.397 413.541 228.23 413.541 228.082 413.541C204.173 413.541 180.282 413.541 156.374 413.541V413.67Z" fill="black"/>
<mask id="mask0_622_1792" style="mask-type:luminance" maskUnits="userSpaceOnUse" x="201" y="436" width="28" height="71">
<path d="M228.911 436.523H201.57V506.803H228.911V436.523Z" fill="white"/>
</mask>
<g mask="url(#mask0_622_1792)">
<path d="M201.57 436.523V506.803H228.911V436.523H201.57Z" fill="url(#paint5_linear_622_1792)"/>
</g>
<path d="M268.128 425.032C273.878 425.032 277.569 422.732 279.424 419.171H279.535L280.518 424.16H287.585V403.312H269.927V410.434H277.383C277.272 414.218 274.082 416.963 269.537 416.963C262.675 416.963 260.208 411.918 260.208 404.517C260.208 397.117 262.675 392.127 269.148 392.127C275.621 392.127 276.382 395.262 277.105 397.933H286.973C286.046 390.421 280.054 384.059 269.315 384.059C258.575 384.059 250.34 392.721 250.34 404.517C250.34 416.314 256.98 425.032 268.109 425.032H268.128Z" fill="#1646EE"/>
<path d="M307.076 425.032C318.929 425.032 323.473 419.765 323.473 410.008V384.949H313.606V410.008C313.606 415.109 311.417 416.982 307.076 416.982C302.736 416.982 300.547 415.127 300.547 410.008V384.949H290.68V410.008C290.68 419.765 295.224 425.032 307.076 425.032Z" fill="#1646EE"/>
<path d="M324.48 424.16H334.348L336.871 415.98H350.318L352.841 424.16H362.709L348.556 384.93H338.689L324.48 424.16ZM339.115 408.468L343.567 393.981H343.678L348.13 408.468H339.134H339.115Z" fill="#1646EE"/>
<path d="M364.077 424.16H373.945V410.508H380.084C388.487 410.508 384.907 422.527 386.836 424.16H397.093V423.603C394.849 422.954 398.41 407.744 388.58 406.056V405.945C393.458 404.851 396.537 401.549 396.537 396.337C396.537 388.936 391.269 384.93 382.551 384.93H364.059V424.16H364.077ZM373.945 402.439V392.998H380.641C384.592 392.998 386.669 394.426 386.669 397.71C386.669 400.993 384.592 402.421 380.641 402.421H373.945V402.439Z" fill="#1646EE"/>
<path d="M399.52 424.16H417.456C428.381 424.16 434.409 417.185 434.409 404.572C434.409 391.96 427.824 384.93 416.918 384.93H399.52V424.16ZM409.387 416.091V392.998H415.916C422.056 392.998 424.523 397.45 424.523 404.572C424.523 411.695 422.056 416.091 415.916 416.091H409.387Z" fill="#1646EE"/>
<path d="M436.879 424.16H446.747V384.93H436.879V424.16Z" fill="#1646EE"/>
<path d="M450.758 424.16H460.626V400.844H460.737L474.444 424.16H484.33V384.93H474.444V408.245H474.333L460.626 384.93H450.758V424.16Z" fill="#1646EE"/>
<path d="M504.561 425.032C510.311 425.032 514.002 422.732 515.857 419.171H515.969L516.952 424.16H524.019V403.312H506.361V410.434H513.817C513.706 414.218 510.515 416.963 505.971 416.963C499.108 416.963 496.641 411.918 496.641 404.517C496.641 397.117 499.108 392.127 505.582 392.127C512.055 392.127 512.815 395.262 513.539 397.933H523.407C522.479 390.421 516.488 384.059 505.748 384.059C495.009 384.059 486.773 392.721 486.773 404.517C486.773 416.314 493.414 425.032 504.543 425.032H504.561Z" fill="#1646EE"/>
<path d="M527.402 424.159H557.469V416.09H537.289V408.021H554.409V399.953H537.289V392.979H557.154V384.91H527.421V424.14L527.402 424.159Z" fill="#1646EE"/>
<path d="M560.468 424.16H570.336V410.508H576.475C584.877 410.508 581.298 422.527 583.227 424.16H593.484V423.603C591.24 422.954 594.801 407.744 584.97 406.056V405.945C589.848 404.851 592.927 401.549 592.927 396.337C592.927 388.936 587.66 384.93 578.942 384.93H560.449V424.16H560.468ZM570.354 402.439V392.998H577.05C581.001 392.998 583.078 394.426 583.078 397.71C583.078 400.993 581.001 402.421 577.05 402.421H570.354V402.439Z" fill="#1646EE"/>
<path d="M249.375 466.375H253.994L257.035 457.843H269.648L272.69 466.375H277.309L265.698 435.27H260.949L249.375 466.375ZM258.13 454.245L263.305 439.666H263.398L268.573 454.245H258.13Z" fill="#222323"/>
<path d="M281.926 466.375H294.446C303.275 466.375 307.764 460.236 307.764 450.887C307.764 441.539 303.238 435.27 294.409 435.27H281.926V466.375ZM286.489 462.554V439.072H293.964C300.177 439.072 303.145 443.691 303.145 450.906C303.145 458.121 300.01 462.573 293.834 462.573H286.489V462.554Z" fill="#222323"/>
<path d="M322.069 466.375H326.724L337.723 435.27H332.901L324.406 460.458H324.369L315.929 435.27H311.051L322.05 466.375H322.069Z" fill="#222323"/>
<path d="M340.004 466.375H344.622L347.664 457.843H360.277L363.319 466.375H367.938L356.326 435.27H351.578L340.004 466.375ZM348.74 454.245L353.915 439.666H354.008L359.183 454.245H348.74Z" fill="#222323"/>
<path d="M372.531 466.375H377.15V442.578H377.243L392.601 466.375H397.386V435.27H392.768V459.067H392.675L377.317 435.27H372.531V466.375Z" fill="#222323"/>
<path d="M417.611 466.986C425.179 466.986 429.872 462.108 430.669 455.189H426.051C425.439 459.53 422.656 463.147 417.444 463.147C412.232 463.147 407.651 458.064 407.651 450.793C407.651 443.522 410.823 438.477 417.519 438.477C424.215 438.477 425.142 441.556 425.791 445.618H430.41C429.575 439.182 425.049 434.656 417.704 434.656C410.359 434.656 403.051 441.445 403.051 450.793C403.051 460.142 408.448 466.986 417.63 466.986H417.611Z" fill="#222323"/>
<path d="M436.007 466.375H458.358V462.554H440.607V452.019H456.188V448.198H440.607V439.053H458.005V435.27H435.988V466.375H436.007Z" fill="#222323"/>
<path d="M464.238 466.375H476.758C485.587 466.375 490.076 460.236 490.076 450.887C490.076 441.539 485.55 435.27 476.721 435.27H464.238V466.375ZM468.801 462.554V439.072H476.276C482.49 439.072 485.458 443.691 485.458 450.906C485.458 458.121 482.323 462.573 476.146 462.573H468.801V462.554Z" fill="#222323"/>
<path d="M260.078 506.828H264.696V479.507H274.749V475.723H250.043V479.507H260.096V506.828H260.078Z" fill="#222323"/>
<path d="M279.956 506.828H302.307V503.007H284.556V492.472H300.137V488.651H284.556V479.507H301.954V475.723H279.938V506.828H279.956Z" fill="#222323"/>
<path d="M321.545 507.424C329.113 507.424 333.805 502.545 334.603 495.627H329.984C329.372 499.967 326.59 503.584 321.378 503.584C316.166 503.584 311.584 498.502 311.584 491.231C311.584 483.96 314.756 478.915 321.452 478.915C328.148 478.915 329.076 481.994 329.725 486.056H334.343C333.509 479.62 328.983 475.094 321.638 475.094C314.292 475.094 306.984 481.882 306.984 491.231C306.984 500.579 312.382 507.424 321.563 507.424H321.545Z" fill="#222323"/>
<path d="M339.945 506.828H344.564V492.602H359.829V506.828H364.448V475.723H359.829V488.781H344.564V475.723H339.945V506.828Z" fill="#222323"/>
<path d="M371.305 506.828H375.923V483.031H376.016L391.374 506.828H396.16V475.723H391.541V499.52H391.448L376.09 475.723H371.305V506.828Z" fill="#222323"/>
<path d="M416.643 507.424C425.825 507.424 431.519 500.598 431.519 491.231C431.519 481.864 425.825 475.094 416.643 475.094C407.462 475.094 401.805 481.882 401.805 491.231C401.805 500.579 407.425 507.424 416.643 507.424ZM416.643 503.603C410.114 503.603 406.423 498.391 406.423 491.249C406.423 484.108 410.114 478.933 416.643 478.933C423.172 478.933 426.919 484.108 426.919 491.249C426.919 498.391 423.172 503.603 416.643 503.603Z" fill="#222323"/>
<path d="M437.144 506.821H457.584V503.001H441.744V475.734H437.125V506.84L437.144 506.821Z" fill="#222323"/>
<path d="M476.495 507.424C485.676 507.424 491.371 500.598 491.371 491.231C491.371 481.864 485.676 475.094 476.495 475.094C467.314 475.094 461.656 481.882 461.656 491.231C461.656 500.579 467.276 507.424 476.495 507.424ZM476.495 503.603C469.966 503.603 466.275 498.391 466.275 491.249C466.275 484.108 469.966 478.933 476.495 478.933C483.024 478.933 486.771 484.108 486.771 491.249C486.771 498.391 483.024 503.603 476.495 503.603Z" fill="#222323"/>
<path d="M509.923 507.427C515.487 507.427 518.882 504.459 520.143 500.731H520.236L520.718 506.814H524.112V490.844H511.017V494.276H519.364C519.327 499.84 515.877 503.587 510.498 503.587C505.119 503.587 500.408 498.282 500.408 491.271C500.408 484.26 503.579 478.918 510.498 478.918C517.417 478.918 518.251 481.83 519.03 485.261H523.649C522.74 479.381 518.029 475.078 510.591 475.078C503.153 475.078 495.789 482.127 495.789 491.271C495.789 500.415 500.89 507.408 509.923 507.408V507.427Z" fill="#222323"/>
<path d="M530.586 506.828H535.205V475.723H530.586V506.828Z" fill="#222323"/>
<path d="M542.159 506.828H564.51V503.007H546.759V492.472H562.34V488.651H546.759V479.507H564.158V475.723H542.141V506.828H542.159Z" fill="#222323"/>
<path d="M582.096 507.424C589.311 507.424 593.448 503.51 593.448 498.149C593.448 492.789 588.625 490.062 582.133 488.616C577.218 487.521 574.38 486.705 574.38 483.255C574.38 479.805 576.995 478.915 580.742 478.915C584.489 478.915 587.661 481.085 588.05 484.572H592.669C592.372 478.618 587.457 475.094 580.742 475.094C574.028 475.094 569.78 477.709 569.78 483.57C569.78 489.432 573.861 491.101 579.518 492.399C585.305 493.661 588.866 494.625 588.829 498.539C588.829 501.284 586.566 503.584 582.078 503.584C577.589 503.584 573.508 501.321 573.341 496.666H568.723C568.89 503.677 574.602 507.405 582.078 507.405L582.096 507.424Z" fill="#222323"/>
</g>
<defs>
<filter id="filter0_f_622_1792" x="199.7" y="-238.3" width="1639.6" height="1556.6" filterUnits="userSpaceOnUse" color-interpolation-filters="sRGB">
<feFlood flood-opacity="0" result="BackgroundImageFix"/>
<feBlend mode="normal" in="SourceGraphic" in2="BackgroundImageFix" result="shape"/>
<feGaussianBlur stdDeviation="137.65" result="effect1_foregroundBlur_622_1792"/>
</filter>
<filter id="filter1_f_622_1792" x="606.37" y="10.1" width="705.714" height="54.8" filterUnits="userSpaceOnUse" color-interpolation-filters="sRGB">
<feFlood flood-opacity="0" result="BackgroundImageFix"/>
<feBlend mode="normal" in="SourceGraphic" in2="BackgroundImageFix" result="shape"/>
<feGaussianBlur stdDeviation="7.45" result="effect1_foregroundBlur_622_1792"/>
</filter>
<filter id="filter2_f_622_1792" x="894.749" y="15.9056" width="165.99" height="42.1888" filterUnits="userSpaceOnUse" color-interpolation-filters="sRGB">
<feFlood flood-opacity="0" result="BackgroundImageFix"/>
<feBlend mode="normal" in="SourceGraphic" in2="BackgroundImageFix" result="shape"/>
<feGaussianBlur stdDeviation="7.5472" result="effect1_foregroundBlur_622_1792"/>
</filter>
<filter id="filter3_f_622_1792" x="618.827" y="-249.22" width="717.846" height="572.44" filterUnits="userSpaceOnUse" color-interpolation-filters="sRGB">
<feFlood flood-opacity="0" result="BackgroundImageFix"/>
<feBlend mode="normal" in="SourceGraphic" in2="BackgroundImageFix" result="shape"/>
<feGaussianBlur stdDeviation="140.11" result="effect1_foregroundBlur_622_1792"/>
</filter>
<filter id="filter4_f_622_1792" x="723" y="125" width="628.027" height="811.398" filterUnits="userSpaceOnUse" color-interpolation-filters="sRGB">
<feFlood flood-opacity="0" result="BackgroundImageFix"/>
<feBlend mode="normal" in="SourceGraphic" in2="BackgroundImageFix" result="shape"/>
<feGaussianBlur stdDeviation="6" result="effect1_foregroundBlur_622_1792"/>
</filter>
<linearGradient id="paint0_linear_622_1792" x1="1262.28" y1="679.959" x2="3557.87" y2="-776.822" gradientUnits="userSpaceOnUse">
<stop stop-color="#06B7C0" stop-opacity="0.44"/>
<stop offset="0.249503" stop-color="#02415A" stop-opacity="0.12"/>
<stop offset="0.405466" stop-color="#00092A" stop-opacity="0.21"/>
<stop offset="0.928088" stop-color="#00092A"/>
</linearGradient>
<linearGradient id="paint1_linear_622_1792" x1="1072.19" y1="811.148" x2="2009.25" y2="336.01" gradientUnits="userSpaceOnUse">
<stop offset="0.211625" stop-color="#0BF6F7"/>
<stop offset="0.393611" stop-color="#0BF6F7"/>
<stop offset="0.6734" stop-color="white" stop-opacity="0"/>
</linearGradient>
<linearGradient id="paint2_linear_622_1792" x1="959.568" y1="51.6963" x2="959.568" y2="19.6607" gradientUnits="userSpaceOnUse">
<stop offset="0.0772918" stop-color="#0CFEFF"/>
<stop offset="1" stop-color="#0CFEFF" stop-opacity="0"/>
</linearGradient>
<linearGradient id="paint3_linear_622_1792" x1="1010.72" y1="31.6052" x2="1010.72" y2="-11" gradientUnits="userSpaceOnUse">
<stop stop-color="#1539AB"/>
<stop offset="1" stop-color="#4773FF"/>
</linearGradient>
<linearGradient id="paint4_linear_622_1792" x1="1021.99" y1="79.0794" x2="1020.41" y2="-11.0382" gradientUnits="userSpaceOnUse">
<stop offset="0.211625" stop-color="#0BF6F7"/>
<stop offset="0.6734" stop-color="white" stop-opacity="0"/>
</linearGradient>
<linearGradient id="paint5_linear_622_1792" x1="213.627" y1="431.556" x2="213.627" y2="505.097" gradientUnits="userSpaceOnUse">
<stop stop-color="#020717"/>
<stop offset="0.1" stop-color="#030A23"/>
<stop offset="0.2" stop-color="#05123B"/>
<stop offset="0.3" stop-color="#081853"/>
<stop offset="0.4" stop-color="#0A1F6B"/>
<stop offset="0.5" stop-color="#0C2682"/>
<stop offset="0.6" stop-color="#0E2D9A"/>
<stop offset="0.7" stop-color="#1034B2"/>
<stop offset="0.8" stop-color="#133BCA"/>
<stop offset="0.9" stop-color="#1543E2"/>
<stop offset="1" stop-color="#1646EE"/>
</linearGradient>
<clipPath id="clip0_622_1792">
<rect width="1920" height="1080" fill="white"/>
</clipPath>
<clipPath id="clip1_622_1792">
<rect width="300" height="37" fill="white" transform="translate(812 -4)"/>
</clipPath>
</defs>
</svg>
