<svg width="1920" height="1080" viewBox="0 0 1920 1080" fill="none" xmlns="http://www.w3.org/2000/svg">
<g clip-path="url(#clip0_622_1948)">
<rect width="1920" height="1080" fill="#022F43"/>
<g filter="url(#filter0_f_622_1948)">
<path fill-rule="evenodd" clip-rule="evenodd" d="M958.5 47L414 550L958.5 1053L1503 550L958.5 47Z" fill="#018C8C"/>
</g>
<g filter="url(#filter1_f_622_1948)">
<path d="M887.419 35.2025C953.81 31.1959 991.335 30.677 1059.22 35.2025C1370.3 35.2555 1390.55 37.6619 1059.22 47.4615C990.517 60.2091 953.119 60.1499 887.419 47.4615C506.203 35.5543 568.272 33.922 887.419 35.2025Z" fill="url(#paint0_linear_622_1948)"/>
</g>
<g filter="url(#filter2_f_622_1948)">
<ellipse cx="980.744" cy="44" rx="67.9002" ry="6" fill="white"/>
</g>
<g filter="url(#filter3_f_622_1948)">
<ellipse cx="980.749" cy="44" rx="78.7025" ry="6" fill="#00FF94"/>
</g>
<path d="M589.177 27.5695C577.43 19.2393 567.668 8.49697 562.811 -2.78271H1363.08C1359.09 5.26262 1351.16 15.2567 1340.74 23.9772C1329.6 33.2986 1315.74 41.0669 1301.03 43.4743H628.683C615.81 42.2692 601.475 36.2905 589.177 27.5695Z" fill="url(#paint1_linear_622_1948)" stroke="url(#paint2_linear_622_1948)" stroke-width="2.43458"/>
<g clip-path="url(#clip1_622_1948)">
<path d="M841.02 31V28.33H844.44V19.72H841.2V17.05H847.86V28.33H850.98V31H841.02ZM846 14.74C845.4 14.74 844.89 14.54 844.47 14.14C844.07 13.74 843.87 13.26 843.87 12.7C843.87 12.12 844.07 11.64 844.47 11.26C844.87 10.86 845.38 10.66 846 10.66C846.56 10.66 847.05 10.86 847.47 11.26C847.91 11.66 848.13 12.14 848.13 12.7C848.13 13.26 847.91 13.74 847.47 14.14C847.05 14.54 846.56 14.74 846 14.74ZM857.61 12.31H861.15L867.48 24.61L867.3 12.31H870.6V12.58C870.5 12.7 870.43 12.84 870.39 13C870.37 13.14 870.36 13.37 870.36 13.69V31H867.21L860.67 17.89V31H857.61V12.31ZM875.76 31V12.31H880.59C882.23 12.31 883.5 12.54 884.4 13C885.32 13.44 886.09 14.07 886.71 14.89C887.33 15.73 887.81 16.73 888.15 17.89C888.51 19.05 888.69 20.35 888.69 21.79C888.65 23.67 888.34 25.31 887.76 26.71C887.18 28.09 886.27 29.15 885.03 29.89C883.81 30.63 882.21 31 880.23 31H875.76ZM879.06 28.36H880.14C881.42 28.36 882.44 28.09 883.2 27.55C883.98 27.01 884.54 26.25 884.88 25.27C885.22 24.29 885.38 23.14 885.36 21.82C885.36 20.44 885.21 19.24 884.91 18.22C884.63 17.2 884.13 16.41 883.41 15.85C882.69 15.29 881.71 15.01 880.47 15.01H879.06V28.36ZM894.6 31V28.27H898.26V15.04H894.81V12.31H905.13V15.04H901.47V28.27H905.28V31H894.6ZM917.76 31.33C916.52 31.33 915.35 31.15 914.25 30.79C913.17 30.41 912.27 29.84 911.55 29.08L913.2 26.29L913.32 26.05L913.59 26.2C913.63 26.36 913.68 26.52 913.74 26.68C913.82 26.82 913.98 27 914.22 27.22C914.72 27.6 915.27 27.91 915.87 28.15C916.49 28.39 917.16 28.51 917.88 28.51C918.82 28.51 919.58 28.31 920.16 27.91C920.76 27.49 921.06 26.88 921.06 26.08C921.06 25.68 920.97 25.31 920.79 24.97C920.61 24.61 920.25 24.25 919.71 23.89C919.19 23.53 918.41 23.11 917.37 22.63C916.09 22.07 915.07 21.51 914.31 20.95C913.57 20.37 913.04 19.75 912.72 19.09C912.4 18.41 912.24 17.65 912.24 16.81C912.24 15.89 912.49 15.07 912.99 14.35C913.51 13.63 914.22 13.06 915.12 12.64C916.02 12.22 917.05 12.01 918.21 12.01C920.51 12.01 922.4 12.81 923.88 14.41L921.9 16.69L921.72 16.9L921.48 16.72C921.46 16.56 921.42 16.41 921.36 16.27C921.32 16.11 921.19 15.91 920.97 15.67C920.59 15.31 920.18 15.07 919.74 14.95C919.32 14.83 918.82 14.77 918.24 14.77C917.42 14.77 916.77 14.96 916.29 15.34C915.81 15.72 915.57 16.16 915.57 16.66C915.57 17.06 915.66 17.42 915.84 17.74C916.02 18.06 916.38 18.4 916.92 18.76C917.48 19.12 918.33 19.55 919.47 20.05C920.73 20.63 921.72 21.2 922.44 21.76C923.16 22.3 923.66 22.9 923.94 23.56C924.24 24.22 924.39 24.99 924.39 25.87C924.39 26.77 924.16 27.64 923.7 28.48C923.24 29.32 922.52 30.01 921.54 30.55C920.56 31.07 919.3 31.33 917.76 31.33ZM936.06 31.36C933.76 31.36 932.02 30.52 930.84 28.84C929.66 27.16 929.07 24.77 929.07 21.67C929.07 18.65 929.66 16.29 930.84 14.59C932.02 12.89 933.76 12.04 936.06 12.04C938.32 12.04 940.04 12.89 941.22 14.59C942.42 16.29 943.02 18.65 943.02 21.67C943.02 24.77 942.42 27.16 941.22 28.84C940.04 30.52 938.32 31.36 936.06 31.36ZM936.06 28.6C937.18 28.6 938.06 28.03 938.7 26.89C939.34 25.73 939.66 23.98 939.66 21.64C939.66 19.46 939.34 17.78 938.7 16.6C938.06 15.4 937.18 14.8 936.06 14.8C934.9 14.8 934 15.4 933.36 16.6C932.74 17.78 932.43 19.46 932.43 21.64C932.43 23.98 932.74 25.73 933.36 26.89C934 28.03 934.9 28.6 936.06 28.6ZM947.61 12.31H951.15L957.48 24.61L957.3 12.31H960.6V12.58C960.5 12.7 960.43 12.84 960.39 13C960.37 13.14 960.36 13.37 960.36 13.69V31H957.21L950.67 17.89V31H947.61V12.31ZM966.6 31V28.27H970.26V15.04H966.81V12.31H977.13V15.04H973.47V28.27H977.28V31H966.6ZM990.87 31.33C989.51 31.33 988.26 31 987.12 30.34C986 29.66 985.1 28.61 984.42 27.19C983.76 25.77 983.43 23.96 983.43 21.76C983.43 19.92 983.65 18.38 984.09 17.14C984.55 15.88 985.15 14.88 985.89 14.14C986.63 13.4 987.44 12.87 988.32 12.55C989.22 12.21 990.11 12.04 990.99 12.04C992.39 12.04 993.59 12.36 994.59 13C995.61 13.64 996.38 14.54 996.9 15.7L994.77 17.29L994.53 17.44L994.38 17.2C994.4 17.06 994.38 16.92 994.32 16.78C994.28 16.62 994.18 16.4 994.02 16.12C993.58 15.6 993.12 15.25 992.64 15.07C992.18 14.87 991.69 14.77 991.17 14.77C990.41 14.77 989.69 15.03 989.01 15.55C988.35 16.07 987.81 16.84 987.39 17.86C986.99 18.86 986.79 20.11 986.79 21.61C986.79 23.77 987.18 25.47 987.96 26.71C988.76 27.93 989.76 28.54 990.96 28.54C991.7 28.54 992.34 28.38 992.88 28.06C993.42 27.74 993.91 27.21 994.35 26.47L996.69 28.21C995.99 29.35 995.16 30.16 994.2 30.64C993.26 31.1 992.15 31.33 990.87 31.33ZM1026.78 31.33C1025.22 31.33 1023.87 30.93 1022.73 30.13C1021.61 29.33 1020.75 28.21 1020.15 26.77C1019.55 25.33 1019.25 23.65 1019.25 21.73C1019.25 19.75 1019.5 18.13 1020 16.87C1020.52 15.59 1021.17 14.6 1021.95 13.9C1022.75 13.18 1023.58 12.69 1024.44 12.43C1025.3 12.15 1026.07 12.01 1026.75 12.01C1027.97 12.01 1029.11 12.3 1030.17 12.88C1031.25 13.44 1032.07 14.24 1032.63 15.28L1030.65 17.23L1030.47 17.44L1030.26 17.23C1030.24 17.07 1030.2 16.92 1030.14 16.78C1030.1 16.62 1029.98 16.41 1029.78 16.15C1029.44 15.75 1029.04 15.43 1028.58 15.19C1028.14 14.95 1027.56 14.83 1026.84 14.83C1026.1 14.83 1025.4 15.04 1024.74 15.46C1024.1 15.88 1023.58 16.58 1023.18 17.56C1022.8 18.52 1022.61 19.81 1022.61 21.43C1022.61 23.83 1022.99 25.62 1023.75 26.8C1024.53 27.98 1025.54 28.57 1026.78 28.57C1027.28 28.57 1027.77 28.51 1028.25 28.39C1028.75 28.25 1029.21 28 1029.63 27.64V24.19H1026.54V21.37H1032.69V29.38C1031.79 30.1 1030.84 30.61 1029.84 30.91C1028.84 31.19 1027.82 31.33 1026.78 31.33ZM1042.23 31V15.16H1037.19V12.31H1050.78V15.16H1045.47V31H1042.23ZM1078.74 31V16L1075.35 17.2L1074.63 14.95L1079.61 12.31H1082.13V31H1078.74ZM1098 31.36C1096.04 31.36 1094.48 30.53 1093.32 28.87C1092.18 27.21 1091.61 24.84 1091.61 21.76C1091.61 18.72 1092.18 16.34 1093.32 14.62C1094.48 12.9 1096.04 12.04 1098 12.04C1099.96 12.04 1101.51 12.9 1102.65 14.62C1103.81 16.34 1104.39 18.72 1104.39 21.76C1104.39 24.84 1103.81 27.21 1102.65 28.87C1101.51 30.53 1099.96 31.36 1098 31.36ZM1094.76 21.76C1094.76 22.58 1094.8 23.34 1094.88 24.04L1100.64 17.2C1100.1 15.58 1099.22 14.77 1098 14.77C1096.92 14.77 1096.11 15.39 1095.57 16.63C1095.03 17.85 1094.76 19.56 1094.76 21.76ZM1098 28.75C1099.08 28.75 1099.89 28.15 1100.43 26.95C1100.97 25.73 1101.24 24 1101.24 21.76C1101.24 20.98 1101.2 20.25 1101.12 19.57L1095.36 26.38C1095.9 27.96 1096.78 28.75 1098 28.75ZM1116 31.36C1114.04 31.36 1112.48 30.53 1111.32 28.87C1110.18 27.21 1109.61 24.84 1109.61 21.76C1109.61 18.72 1110.18 16.34 1111.32 14.62C1112.48 12.9 1114.04 12.04 1116 12.04C1117.96 12.04 1119.51 12.9 1120.65 14.62C1121.81 16.34 1122.39 18.72 1122.39 21.76C1122.39 24.84 1121.81 27.21 1120.65 28.87C1119.51 30.53 1117.96 31.36 1116 31.36ZM1112.76 21.76C1112.76 22.58 1112.8 23.34 1112.88 24.04L1118.64 17.2C1118.1 15.58 1117.22 14.77 1116 14.77C1114.92 14.77 1114.11 15.39 1113.57 16.63C1113.03 17.85 1112.76 19.56 1112.76 21.76ZM1116 28.75C1117.08 28.75 1117.89 28.15 1118.43 26.95C1118.97 25.73 1119.24 24 1119.24 21.76C1119.24 20.98 1119.2 20.25 1119.12 19.57L1113.36 26.38C1113.9 27.96 1114.78 28.75 1116 28.75Z" fill="#89D2FF"/>
</g>
</g>
<defs>
<filter id="filter0_f_622_1948" x="138.7" y="-228.3" width="1639.6" height="1556.6" filterUnits="userSpaceOnUse" color-interpolation-filters="sRGB">
<feFlood flood-opacity="0" result="BackgroundImageFix"/>
<feBlend mode="normal" in="SourceGraphic" in2="BackgroundImageFix" result="shape"/>
<feGaussianBlur stdDeviation="137.65" result="effect1_foregroundBlur_622_1948"/>
</filter>
<filter id="filter1_f_622_1948" x="609.37" y="17.1" width="705.714" height="54.8" filterUnits="userSpaceOnUse" color-interpolation-filters="sRGB">
<feFlood flood-opacity="0" result="BackgroundImageFix"/>
<feBlend mode="normal" in="SourceGraphic" in2="BackgroundImageFix" result="shape"/>
<feGaussianBlur stdDeviation="7.45" result="effect1_foregroundBlur_622_1948"/>
</filter>
<filter id="filter2_f_622_1948" x="897.749" y="22.9056" width="165.99" height="42.1888" filterUnits="userSpaceOnUse" color-interpolation-filters="sRGB">
<feFlood flood-opacity="0" result="BackgroundImageFix"/>
<feBlend mode="normal" in="SourceGraphic" in2="BackgroundImageFix" result="shape"/>
<feGaussianBlur stdDeviation="7.5472" result="effect1_foregroundBlur_622_1948"/>
</filter>
<filter id="filter3_f_622_1948" x="621.827" y="-242.22" width="717.846" height="572.44" filterUnits="userSpaceOnUse" color-interpolation-filters="sRGB">
<feFlood flood-opacity="0" result="BackgroundImageFix"/>
<feBlend mode="normal" in="SourceGraphic" in2="BackgroundImageFix" result="shape"/>
<feGaussianBlur stdDeviation="140.11" result="effect1_foregroundBlur_622_1948"/>
</filter>
<linearGradient id="paint0_linear_622_1948" x1="962.568" y1="58.6963" x2="962.568" y2="26.6607" gradientUnits="userSpaceOnUse">
<stop offset="0.0772918" stop-color="#0CFEFF"/>
<stop offset="1" stop-color="#0CFEFF" stop-opacity="0"/>
</linearGradient>
<linearGradient id="paint1_linear_622_1948" x1="1013.72" y1="38.6052" x2="1013.72" y2="-4" gradientUnits="userSpaceOnUse">
<stop stop-color="#1539AB"/>
<stop offset="1" stop-color="#4773FF"/>
</linearGradient>
<linearGradient id="paint2_linear_622_1948" x1="1024.99" y1="86.0794" x2="1023.41" y2="-4.03821" gradientUnits="userSpaceOnUse">
<stop offset="0.211625" stop-color="#0BF6F7"/>
<stop offset="0.6734" stop-color="white" stop-opacity="0"/>
</linearGradient>
<clipPath id="clip0_622_1948">
<rect width="1920" height="1080" fill="white"/>
</clipPath>
<clipPath id="clip1_622_1948">
<rect width="300" height="37" fill="white" transform="translate(831)"/>
</clipPath>
</defs>
</svg>
