<svg width="282" height="142" viewBox="0 0 282 142" fill="none" xmlns="http://www.w3.org/2000/svg">
<path d="M14 54.0224V95M264 54V94.9776" stroke="#00A7FF" stroke-width="2.40614"/>
<path d="M18.8125 45.2413L29.6401 34.4136H39.2647M247.157 28.3984L264 45.2414M264 92.1611H256.782L239.939 110.207" stroke="#0CFEFF" stroke-width="2.40614"/>
<path opacity="0.5" d="M40.4688 23.5898H123.002M156.001 23.5898H230.002M230.002 117.429H156.001M123.002 117.429H40.4688" stroke="#00A7FF" stroke-width="2.40614"/>
<path d="M35.0185 28V34.0294H27.4804L19 44.8824V101.559L27.4804 110H241.155L254.346 91.9118H260V44.8824L246.808 28H35.0185Z" fill="url(#paint0_linear_377_1571)"/>
<g filter="url(#filter0_f_377_1571)">
<path d="M112.138 131.492L118.153 124.273H58L60.4061 127.883H90.4829L91.6859 131.492H112.138Z" fill="#00A7FF"/>
<path d="M166.276 131.492L160.261 124.273H220.414L218.008 127.883H187.931L186.728 131.492H166.276Z" fill="#00A7FF"/>
</g>
<g filter="url(#filter1_f_377_1571)">
<path d="M112.138 129.086L113.341 125.477H60.4062V126.68H92.8891L94.0922 129.086H112.138Z" fill="white"/>
</g>
<g filter="url(#filter2_f_377_1571)">
<path d="M166.276 130.289L163.87 125.477H218.008V126.68H187.931L185.525 130.289H166.276Z" fill="white"/>
</g>
<path d="M112.138 131.492L118.153 124.273H58L60.4061 127.883H90.4829L91.6859 131.492H112.138Z" fill="#00A7FF"/>
<path d="M166.276 131.492L160.261 124.273H220.414L218.008 127.883H187.931L186.728 131.492H166.276Z" fill="#00A7FF"/>
<g filter="url(#filter3_f_377_1571)">
<circle cx="139.795" cy="18.7945" r="4.79452" fill="#0CFEFF"/>
</g>
<circle cx="139.795" cy="18.7945" r="4.79452" fill="#0CFEFF"/>
<g filter="url(#filter4_f_377_1571)">
<circle cx="139.794" cy="18.794" r="3.19635" fill="white"/>
</g>
<g filter="url(#filter5_f_377_1571)">
<circle cx="263.795" cy="31.7945" r="4.79452" fill="#0CFEFF"/>
</g>
<circle cx="263.795" cy="31.7945" r="4.79452" fill="#0CFEFF"/>
<g filter="url(#filter6_f_377_1571)">
<circle cx="263.794" cy="31.794" r="3.19635" fill="white"/>
</g>
<g filter="url(#filter7_f_377_1571)">
<circle cx="18.7945" cy="32.2203" r="4.79452" fill="#0CFEFF"/>
</g>
<circle cx="18.7945" cy="32.2203" r="4.79452" fill="#0CFEFF"/>
<g filter="url(#filter8_f_377_1571)">
<circle cx="18.794" cy="32.2198" r="3.19635" fill="white"/>
</g>
<g filter="url(#filter9_f_377_1571)">
<circle cx="31.2616" cy="117.562" r="1.91781" fill="#0CFEFF"/>
</g>
<circle cx="31.2616" cy="117.562" r="1.91781" fill="#0CFEFF"/>
<g filter="url(#filter10_f_377_1571)">
<circle cx="31.2629" cy="117.564" r="1.27854" fill="white"/>
</g>
<g filter="url(#filter11_f_377_1571)">
<circle cx="139.918" cy="117.562" r="1.91781" fill="#0CFEFF"/>
</g>
<circle cx="139.918" cy="117.562" r="1.91781" fill="#0CFEFF"/>
<g filter="url(#filter12_f_377_1571)">
<circle cx="139.919" cy="117.564" r="1.27854" fill="white"/>
</g>
<g filter="url(#filter13_f_377_1571)">
<circle cx="236.918" cy="116.918" r="1.91781" fill="#0CFEFF"/>
</g>
<circle cx="236.918" cy="116.918" r="1.91781" fill="#0CFEFF"/>
<g filter="url(#filter14_f_377_1571)">
<circle cx="236.919" cy="116.919" r="1.27854" fill="white"/>
</g>
<path d="M28.152 79V64.048H33.24C34.392 64.048 35.344 64.248 36.096 64.648C36.848 65.048 37.4 65.584 37.752 66.256C38.12 66.912 38.304 67.64 38.304 68.44C38.304 69.224 38.128 69.944 37.776 70.6C37.424 71.24 36.88 71.76 36.144 72.16C35.408 72.544 34.48 72.736 33.36 72.736H30.912V79H28.152ZM30.912 70.48H33.168C33.936 70.48 34.52 70.288 34.92 69.904C35.32 69.52 35.52 69.032 35.52 68.44C35.52 67.848 35.32 67.36 34.92 66.976C34.52 66.592 33.944 66.4 33.192 66.4H30.912V70.48ZM42.48 79V64.048H47.208C49.032 64.048 50.368 64.448 51.216 65.248C52.064 66.048 52.488 67.112 52.488 68.44C52.488 68.984 52.368 69.536 52.128 70.096C51.904 70.64 51.576 71.128 51.144 71.56C50.728 71.992 50.24 72.312 49.68 72.52L52.896 79H50.04L47.016 72.784H45.216V79H42.48ZM45.216 70.528H47.4C48.168 70.528 48.744 70.352 49.128 70C49.512 69.632 49.704 69.136 49.704 68.512C49.704 67.936 49.512 67.44 49.128 67.024C48.744 66.608 48.168 66.4 47.4 66.4H45.216V70.528ZM61.848 79.288C60.008 79.288 58.616 78.616 57.672 77.272C56.728 75.928 56.256 74.016 56.256 71.536C56.256 69.12 56.728 67.232 57.672 65.872C58.616 64.512 60.008 63.832 61.848 63.832C63.656 63.832 65.032 64.512 65.976 65.872C66.936 67.232 67.416 69.12 67.416 71.536C67.416 74.016 66.936 75.928 65.976 77.272C65.032 78.616 63.656 79.288 61.848 79.288ZM61.848 77.08C62.744 77.08 63.448 76.624 63.96 75.712C64.472 74.784 64.728 73.384 64.728 71.512C64.728 69.768 64.472 68.424 63.96 67.48C63.448 66.52 62.744 66.04 61.848 66.04C60.92 66.04 60.2 66.52 59.688 67.48C59.192 68.424 58.944 69.768 58.944 71.512C58.944 73.384 59.192 74.784 59.688 75.712C60.2 76.624 60.92 77.08 61.848 77.08ZM76.896 79.264C75.808 79.264 74.808 79 73.896 78.472C73 77.928 72.28 77.088 71.736 75.952C71.208 74.816 70.944 73.368 70.944 71.608C70.944 70.136 71.12 68.904 71.472 67.912C71.84 66.904 72.32 66.104 72.912 65.512C73.504 64.92 74.152 64.496 74.856 64.24C75.576 63.968 76.288 63.832 76.992 63.832C78.112 63.832 79.072 64.088 79.872 64.6C80.688 65.112 81.304 65.832 81.72 66.76L80.016 68.032L79.824 68.152L79.704 67.96C79.72 67.848 79.704 67.736 79.656 67.624C79.624 67.496 79.544 67.32 79.416 67.096C79.064 66.68 78.696 66.4 78.312 66.256C77.944 66.096 77.552 66.016 77.136 66.016C76.528 66.016 75.952 66.224 75.408 66.64C74.88 67.056 74.448 67.672 74.112 68.488C73.792 69.288 73.632 70.288 73.632 71.488C73.632 73.216 73.944 74.576 74.568 75.568C75.208 76.544 76.008 77.032 76.968 77.032C77.56 77.032 78.072 76.904 78.504 76.648C78.936 76.392 79.328 75.968 79.68 75.376L81.552 76.768C80.992 77.68 80.328 78.328 79.56 78.712C78.808 79.08 77.92 79.264 76.896 79.264ZM85.824 79V64.048H95.568V66.256H88.464V70.096H94.296V72.328H88.464V76.792H95.496V79H85.824ZM100.224 79V64.048H109.968V66.256H102.864V70.096H108.696V72.328H102.864V76.792H109.896V79H100.224ZM114.408 79V64.048H118.272C119.584 64.048 120.6 64.232 121.32 64.6C122.056 64.952 122.672 65.456 123.168 66.112C123.664 66.784 124.048 67.584 124.32 68.512C124.608 69.44 124.752 70.48 124.752 71.632C124.72 73.136 124.472 74.448 124.008 75.568C123.544 76.672 122.816 77.52 121.824 78.112C120.848 78.704 119.568 79 117.984 79H114.408ZM117.048 76.888H117.912C118.936 76.888 119.752 76.672 120.36 76.24C120.984 75.808 121.432 75.2 121.704 74.416C121.976 73.632 122.104 72.712 122.088 71.656C122.088 70.552 121.968 69.592 121.728 68.776C121.504 67.96 121.104 67.328 120.528 66.88C119.952 66.432 119.168 66.208 118.176 66.208H117.048V76.888ZM142.968 79V64.048H145.344L148.248 70.912L151.152 64.024H153.528V79H151.176V68.56L148.824 74.056H147.504L145.296 68.584V79H142.968ZM165.576 79L164.544 75.52H160.632L159.576 79H156.888L161.952 63.952H163.248L168.312 79H165.576ZM162.6 68.968L161.208 73.576H163.968L162.6 68.968ZM171.888 64.048H174.72L179.784 73.888L179.64 64.048H182.28V64.264C182.2 64.36 182.144 64.472 182.112 64.6C182.096 64.712 182.088 64.896 182.088 65.152V79H179.568L174.336 68.512V79H171.888V64.048ZM191.4 79.312C189.752 79.312 188.48 78.824 187.584 77.848C186.704 76.872 186.264 75.512 186.264 73.768V64.048H189.168V64.264C189.088 64.36 189.032 64.472 189 64.6C188.984 64.712 188.976 64.896 188.976 65.152V73.792C188.976 74.816 189.152 75.624 189.504 76.216C189.856 76.808 190.496 77.104 191.424 77.104C192.352 77.104 193 76.808 193.368 76.216C193.736 75.624 193.92 74.792 193.92 73.72V64.048H196.56V73.696C196.56 75.616 196.08 77.032 195.12 77.944C194.16 78.856 192.92 79.312 191.4 79.312ZM208.776 79L207.744 75.52H203.832L202.776 79H200.088L205.152 63.952H206.448L211.512 79H208.776ZM205.8 68.968L204.408 73.576H207.168L205.8 68.968ZM215.568 64.048H218.52V64.264C218.424 64.36 218.36 64.472 218.328 64.6C218.312 64.712 218.304 64.896 218.304 65.152V76.792H225.168V79H215.568V64.048ZM229.968 64.048H232.92V64.264C232.824 64.36 232.76 64.472 232.728 64.6C232.712 64.712 232.704 64.896 232.704 65.152V76.792H239.568V79H229.968V64.048ZM247.872 79V73.096L243.408 64.048H246.192L249.288 70.288L252.024 64.048H254.688L250.584 73.12V79H247.872Z" fill="#89D2FF"/>
<defs>
<filter id="filter0_f_377_1571" x="48.3754" y="114.649" width="181.663" height="26.4679" filterUnits="userSpaceOnUse" color-interpolation-filters="sRGB">
<feFlood flood-opacity="0" result="BackgroundImageFix"/>
<feBlend mode="normal" in="SourceGraphic" in2="BackgroundImageFix" result="shape"/>
<feGaussianBlur stdDeviation="4.81228" result="effect1_foregroundBlur_377_1571"/>
</filter>
<filter id="filter1_f_377_1571" x="50.7817" y="115.852" width="72.1827" height="22.8585" filterUnits="userSpaceOnUse" color-interpolation-filters="sRGB">
<feFlood flood-opacity="0" result="BackgroundImageFix"/>
<feBlend mode="normal" in="SourceGraphic" in2="BackgroundImageFix" result="shape"/>
<feGaussianBlur stdDeviation="4.81228" result="effect1_foregroundBlur_377_1571"/>
</filter>
<filter id="filter2_f_377_1571" x="153.898" y="115.504" width="74.0819" height="24.7577" filterUnits="userSpaceOnUse" color-interpolation-filters="sRGB">
<feFlood flood-opacity="0" result="BackgroundImageFix"/>
<feBlend mode="normal" in="SourceGraphic" in2="BackgroundImageFix" result="shape"/>
<feGaussianBlur stdDeviation="4.9863" result="effect1_foregroundBlur_377_1571"/>
</filter>
<filter id="filter3_f_377_1571" x="121.895" y="0.894979" width="35.7999" height="35.7999" filterUnits="userSpaceOnUse" color-interpolation-filters="sRGB">
<feFlood flood-opacity="0" result="BackgroundImageFix"/>
<feBlend mode="normal" in="SourceGraphic" in2="BackgroundImageFix" result="shape"/>
<feGaussianBlur stdDeviation="6.55251" result="effect1_foregroundBlur_377_1571"/>
</filter>
<filter id="filter4_f_377_1571" x="130.205" y="9.20496" width="19.1799" height="19.1799" filterUnits="userSpaceOnUse" color-interpolation-filters="sRGB">
<feFlood flood-opacity="0" result="BackgroundImageFix"/>
<feBlend mode="normal" in="SourceGraphic" in2="BackgroundImageFix" result="shape"/>
<feGaussianBlur stdDeviation="3.19635" result="effect1_foregroundBlur_377_1571"/>
</filter>
<filter id="filter5_f_377_1571" x="245.895" y="13.895" width="35.7999" height="35.7999" filterUnits="userSpaceOnUse" color-interpolation-filters="sRGB">
<feFlood flood-opacity="0" result="BackgroundImageFix"/>
<feBlend mode="normal" in="SourceGraphic" in2="BackgroundImageFix" result="shape"/>
<feGaussianBlur stdDeviation="6.55251" result="effect1_foregroundBlur_377_1571"/>
</filter>
<filter id="filter6_f_377_1571" x="254.205" y="22.205" width="19.1799" height="19.1799" filterUnits="userSpaceOnUse" color-interpolation-filters="sRGB">
<feFlood flood-opacity="0" result="BackgroundImageFix"/>
<feBlend mode="normal" in="SourceGraphic" in2="BackgroundImageFix" result="shape"/>
<feGaussianBlur stdDeviation="3.19635" result="effect1_foregroundBlur_377_1571"/>
</filter>
<filter id="filter7_f_377_1571" x="0.894979" y="14.3208" width="35.7999" height="35.7999" filterUnits="userSpaceOnUse" color-interpolation-filters="sRGB">
<feFlood flood-opacity="0" result="BackgroundImageFix"/>
<feBlend mode="normal" in="SourceGraphic" in2="BackgroundImageFix" result="shape"/>
<feGaussianBlur stdDeviation="6.55251" result="effect1_foregroundBlur_377_1571"/>
</filter>
<filter id="filter8_f_377_1571" x="9.20496" y="22.6307" width="19.1799" height="19.1799" filterUnits="userSpaceOnUse" color-interpolation-filters="sRGB">
<feFlood flood-opacity="0" result="BackgroundImageFix"/>
<feBlend mode="normal" in="SourceGraphic" in2="BackgroundImageFix" result="shape"/>
<feGaussianBlur stdDeviation="3.19635" result="effect1_foregroundBlur_377_1571"/>
</filter>
<filter id="filter9_f_377_1571" x="21.4807" y="107.782" width="19.562" height="19.562" filterUnits="userSpaceOnUse" color-interpolation-filters="sRGB">
<feFlood flood-opacity="0" result="BackgroundImageFix"/>
<feBlend mode="normal" in="SourceGraphic" in2="BackgroundImageFix" result="shape"/>
<feGaussianBlur stdDeviation="3.93151" result="effect1_foregroundBlur_377_1571"/>
</filter>
<filter id="filter10_f_377_1571" x="26.1488" y="112.45" width="10.2298" height="10.2298" filterUnits="userSpaceOnUse" color-interpolation-filters="sRGB">
<feFlood flood-opacity="0" result="BackgroundImageFix"/>
<feBlend mode="normal" in="SourceGraphic" in2="BackgroundImageFix" result="shape"/>
<feGaussianBlur stdDeviation="1.91781" result="effect1_foregroundBlur_377_1571"/>
</filter>
<filter id="filter11_f_377_1571" x="130.137" y="107.782" width="19.562" height="19.562" filterUnits="userSpaceOnUse" color-interpolation-filters="sRGB">
<feFlood flood-opacity="0" result="BackgroundImageFix"/>
<feBlend mode="normal" in="SourceGraphic" in2="BackgroundImageFix" result="shape"/>
<feGaussianBlur stdDeviation="3.93151" result="effect1_foregroundBlur_377_1571"/>
</filter>
<filter id="filter12_f_377_1571" x="134.805" y="112.45" width="10.2298" height="10.2298" filterUnits="userSpaceOnUse" color-interpolation-filters="sRGB">
<feFlood flood-opacity="0" result="BackgroundImageFix"/>
<feBlend mode="normal" in="SourceGraphic" in2="BackgroundImageFix" result="shape"/>
<feGaussianBlur stdDeviation="1.91781" result="effect1_foregroundBlur_377_1571"/>
</filter>
<filter id="filter13_f_377_1571" x="227.137" y="107.137" width="19.562" height="19.562" filterUnits="userSpaceOnUse" color-interpolation-filters="sRGB">
<feFlood flood-opacity="0" result="BackgroundImageFix"/>
<feBlend mode="normal" in="SourceGraphic" in2="BackgroundImageFix" result="shape"/>
<feGaussianBlur stdDeviation="3.93151" result="effect1_foregroundBlur_377_1571"/>
</filter>
<filter id="filter14_f_377_1571" x="231.805" y="111.805" width="10.2298" height="10.2298" filterUnits="userSpaceOnUse" color-interpolation-filters="sRGB">
<feFlood flood-opacity="0" result="BackgroundImageFix"/>
<feBlend mode="normal" in="SourceGraphic" in2="BackgroundImageFix" result="shape"/>
<feGaussianBlur stdDeviation="1.91781" result="effect1_foregroundBlur_377_1571"/>
</filter>
<linearGradient id="paint0_linear_377_1571" x1="144.049" y1="-191.291" x2="112.673" y2="121.14" gradientUnits="userSpaceOnUse">
<stop offset="0.698828" stop-color="#004970"/>
<stop offset="1" stop-color="#0CFEFF" stop-opacity="0"/>
</linearGradient>
</defs>
</svg>
