<svg width="448" height="142" viewBox="0 0 448 142" fill="none" xmlns="http://www.w3.org/2000/svg">
<path d="M15 25.3223V24.4959L16.5081 24H19.2295M52.9091 24H55.3879L57 24.4628V25.3499M57 28.6612V29.4766L55.5439 29.9614H52.7185M19.1602 30H16.5601L15 29.5207V28.6226" stroke="#02FDFC" stroke-width="1.08896"/>
<path d="M14 53.6667V94.5711M433.041 53.6445V94.5489" stroke="#00A7FF" stroke-width="2.40614"/>
<path d="M18.8125 45.2442L29.6401 34.4166H39.2647M412.363 28.8008L429.206 45.6438M429.206 92.5635H421.987L405.144 110.61" stroke="#0CFEFF" stroke-width="2.40614"/>
<path opacity="0.5" d="M40.4688 23.5898H203.864M249.892 23.5898H412.905M395.645 117.429H249.892M207.22 117.429H40.4688" stroke="#00A7FF" stroke-width="2.40614"/>
<path d="M39.2451 28.3828V34.3982H29.6206L18.793 45.2258V101.77L29.6206 110.192H405.143L421.986 92.1455H429.204V45.2258L412.361 28.3828H39.2451Z" fill="url(#paint0_linear_374_1570)"/>
<g filter="url(#filter0_f_374_1570)">
<path d="M200.466 131.492L206.482 124.273H146.328L148.734 127.883H178.811L180.014 131.492H200.466Z" fill="#00A7FF"/>
<path d="M254.604 131.492L248.589 124.273H308.742L306.336 127.883H276.259L275.056 131.492H254.604Z" fill="#00A7FF"/>
</g>
<g filter="url(#filter1_f_374_1570)">
<path d="M200.466 129.086L201.669 125.477H148.734V126.68H181.217L182.42 129.086H200.466Z" fill="white"/>
</g>
<g filter="url(#filter2_f_374_1570)">
<path d="M254.604 130.289L252.198 125.477H306.336V126.68H276.259L273.853 130.289H254.604Z" fill="white"/>
</g>
<path d="M200.466 131.492L206.482 124.273H146.328L148.734 127.883H178.811L180.014 131.492H200.466Z" fill="#00A7FF"/>
<path d="M254.604 131.492L248.589 124.273H308.742L306.336 127.883H276.259L275.056 131.492H254.604Z" fill="#00A7FF"/>
<g filter="url(#filter3_f_374_1570)">
<circle cx="227.837" cy="18.7945" r="4.79452" fill="#0CFEFF"/>
</g>
<circle cx="227.837" cy="18.7945" r="4.79452" fill="#0CFEFF"/>
<g filter="url(#filter4_f_374_1570)">
<circle cx="227.837" cy="18.794" r="3.19635" fill="white"/>
</g>
<g filter="url(#filter5_f_374_1570)">
<circle cx="429.205" cy="32.2203" r="4.79452" fill="#0CFEFF"/>
</g>
<circle cx="429.205" cy="32.2203" r="4.79452" fill="#0CFEFF"/>
<g filter="url(#filter6_f_374_1570)">
<circle cx="429.204" cy="32.2198" r="3.19635" fill="white"/>
</g>
<g filter="url(#filter7_f_374_1570)">
<circle cx="18.7945" cy="32.2203" r="4.79452" fill="#0CFEFF"/>
</g>
<circle cx="18.7945" cy="32.2203" r="4.79452" fill="#0CFEFF"/>
<g filter="url(#filter8_f_374_1570)">
<circle cx="18.794" cy="32.2198" r="3.19635" fill="white"/>
</g>
<g filter="url(#filter9_f_374_1570)">
<circle cx="31.2616" cy="117.562" r="1.91781" fill="#0CFEFF"/>
</g>
<circle cx="31.2616" cy="117.562" r="1.91781" fill="#0CFEFF"/>
<g filter="url(#filter10_f_374_1570)">
<circle cx="31.2629" cy="117.564" r="1.27854" fill="white"/>
</g>
<g filter="url(#filter11_f_374_1570)">
<circle cx="227.836" cy="117.562" r="1.91781" fill="#0CFEFF"/>
</g>
<circle cx="227.836" cy="117.562" r="1.91781" fill="#0CFEFF"/>
<g filter="url(#filter12_f_374_1570)">
<circle cx="227.837" cy="117.564" r="1.27854" fill="white"/>
</g>
<g filter="url(#filter13_f_374_1570)">
<circle cx="403.316" cy="117.562" r="1.91781" fill="#0CFEFF"/>
</g>
<circle cx="403.316" cy="117.562" r="1.91781" fill="#0CFEFF"/>
<g filter="url(#filter14_f_374_1570)">
<circle cx="403.318" cy="117.564" r="1.27854" fill="white"/>
</g>
<path d="M64.775 55V41.8H60.575V39.425H71.9V41.8H67.475V55H64.775ZM81.3 55.3C79.3833 55.3 77.9333 54.6 76.95 53.2C75.9667 51.8 75.475 49.8083 75.475 47.225C75.475 44.7083 75.9667 42.7417 76.95 41.325C77.9333 39.9083 79.3833 39.2 81.3 39.2C83.1833 39.2 84.6167 39.9083 85.6 41.325C86.6 42.7417 87.1 44.7083 87.1 47.225C87.1 49.8083 86.6 51.8 85.6 53.2C84.6167 54.6 83.1833 55.3 81.3 55.3ZM81.3 53C82.2333 53 82.9667 52.525 83.5 51.575C84.0333 50.6083 84.3 49.15 84.3 47.2C84.3 45.3833 84.0333 43.9833 83.5 43C82.9667 42 82.2333 41.5 81.3 41.5C80.3333 41.5 79.5833 42 79.05 43C78.5333 43.9833 78.275 45.3833 78.275 47.2C78.275 49.15 78.5333 50.6083 79.05 51.575C79.5833 52.525 80.3333 53 81.3 53ZM94.775 55V41.8H90.575V39.425H101.9V41.8H97.475V55H94.775ZM114.35 55L113.275 51.375H109.2L108.1 55H105.3L110.575 39.325H111.925L117.2 55H114.35ZM111.25 44.55L109.8 49.35H112.675L111.25 44.55ZM121.425 39.425H124.5V39.65C124.4 39.75 124.333 39.8667 124.3 40C124.283 40.1167 124.275 40.3083 124.275 40.575V52.7H131.425V55H121.425V39.425ZM151.2 55V39.425H156.5C157.7 39.425 158.692 39.6333 159.475 40.05C160.258 40.4667 160.833 41.025 161.2 41.725C161.583 42.4083 161.775 43.1667 161.775 44C161.775 44.8167 161.592 45.5667 161.225 46.25C160.858 46.9167 160.292 47.4583 159.525 47.875C158.758 48.275 157.792 48.475 156.625 48.475H154.075V55H151.2ZM154.075 46.125H156.425C157.225 46.125 157.833 45.925 158.25 45.525C158.667 45.125 158.875 44.6167 158.875 44C158.875 43.3833 158.667 42.875 158.25 42.475C157.833 42.075 157.233 41.875 156.45 41.875H154.075V46.125ZM174.35 55L173.275 51.375H169.2L168.1 55H165.3L170.575 39.325H171.925L177.2 55H174.35ZM171.25 44.55L169.8 49.35H172.675L171.25 44.55ZM186.975 55.275C185.842 55.275 184.8 55 183.85 54.45C182.917 53.8833 182.167 53.0083 181.6 51.825C181.05 50.6417 180.775 49.1333 180.775 47.3C180.775 45.7667 180.958 44.4833 181.325 43.45C181.708 42.4 182.208 41.5667 182.825 40.95C183.442 40.3333 184.117 39.8917 184.85 39.625C185.6 39.3417 186.342 39.2 187.075 39.2C188.242 39.2 189.242 39.4667 190.075 40C190.925 40.5333 191.567 41.2833 192 42.25L190.225 43.575L190.025 43.7L189.9 43.5C189.917 43.3833 189.9 43.2667 189.85 43.15C189.817 43.0167 189.733 42.8333 189.6 42.6C189.233 42.1667 188.85 41.875 188.45 41.725C188.067 41.5583 187.658 41.475 187.225 41.475C186.592 41.475 185.992 41.6917 185.425 42.125C184.875 42.5583 184.425 43.2 184.075 44.05C183.742 44.8833 183.575 45.925 183.575 47.175C183.575 48.975 183.9 50.3917 184.55 51.425C185.217 52.4417 186.05 52.95 187.05 52.95C187.667 52.95 188.2 52.8167 188.65 52.55C189.1 52.2833 189.508 51.8417 189.875 51.225L191.825 52.675C191.242 53.625 190.55 54.3 189.75 54.7C188.967 55.0833 188.042 55.275 186.975 55.275ZM199.725 47.95L198.7 49.3V55H195.925V39.425H198.9V39.65C198.8 39.75 198.742 39.8667 198.725 40C198.708 40.1167 198.7 40.3083 198.7 40.575V45.8L203.875 39.275C204.125 39.3417 204.442 39.3833 204.825 39.4C205.208 39.4167 205.5 39.425 205.7 39.425H207L201.725 45.95L207.3 54.975L204.075 55.1L199.725 47.95ZM211.275 55V39.425H221.425V41.725H214.025V45.725H220.1V48.05H214.025V52.7H221.35V55H211.275ZM229.775 55V41.8H225.575V39.425H236.9V41.8H232.475V55H229.775ZM246.05 55.275C245.017 55.275 244.042 55.125 243.125 54.825C242.225 54.5083 241.475 54.0333 240.875 53.4L242.25 51.075L242.35 50.875L242.575 51C242.608 51.1333 242.65 51.2667 242.7 51.4C242.767 51.5167 242.9 51.6667 243.1 51.85C243.517 52.1667 243.975 52.425 244.475 52.625C244.992 52.825 245.55 52.925 246.15 52.925C246.933 52.925 247.567 52.7583 248.05 52.425C248.55 52.075 248.8 51.5667 248.8 50.9C248.8 50.5667 248.725 50.2583 248.575 49.975C248.425 49.675 248.125 49.375 247.675 49.075C247.242 48.775 246.592 48.425 245.725 48.025C244.658 47.5583 243.808 47.0917 243.175 46.625C242.558 46.1417 242.117 45.625 241.85 45.075C241.583 44.5083 241.45 43.875 241.45 43.175C241.45 42.4083 241.658 41.725 242.075 41.125C242.508 40.525 243.1 40.05 243.85 39.7C244.6 39.35 245.458 39.175 246.425 39.175C248.342 39.175 249.917 39.8417 251.15 41.175L249.5 43.075L249.35 43.25L249.15 43.1C249.133 42.9667 249.1 42.8417 249.05 42.725C249.017 42.5917 248.908 42.425 248.725 42.225C248.408 41.925 248.067 41.725 247.7 41.625C247.35 41.525 246.933 41.475 246.45 41.475C245.767 41.475 245.225 41.6333 244.825 41.95C244.425 42.2667 244.225 42.6333 244.225 43.05C244.225 43.3833 244.3 43.6833 244.45 43.95C244.6 44.2167 244.9 44.5 245.35 44.8C245.817 45.1 246.525 45.4583 247.475 45.875C248.525 46.3583 249.35 46.8333 249.95 47.3C250.55 47.75 250.967 48.25 251.2 48.8C251.45 49.35 251.575 49.9917 251.575 50.725C251.575 51.475 251.383 52.2 251 52.9C250.617 53.6 250.017 54.175 249.2 54.625C248.383 55.0583 247.333 55.275 246.05 55.275ZM271.125 55V39.425H276.05C277.95 39.425 279.342 39.8417 280.225 40.675C281.108 41.5083 281.55 42.6167 281.55 44C281.55 44.5667 281.425 45.1417 281.175 45.725C280.942 46.2917 280.6 46.8 280.15 47.25C279.717 47.7 279.208 48.0333 278.625 48.25L281.975 55H279L275.85 48.525H273.975V55H271.125ZM273.975 46.175H276.25C277.05 46.175 277.65 45.9917 278.05 45.625C278.45 45.2417 278.65 44.725 278.65 44.075C278.65 43.475 278.45 42.9583 278.05 42.525C277.65 42.0917 277.05 41.875 276.25 41.875H273.975V46.175ZM286.275 55V39.425H296.425V41.725H289.025V45.725H295.1V48.05H289.025V52.7H296.35V55H286.275ZM306.975 55.275C305.842 55.275 304.8 55 303.85 54.45C302.917 53.8833 302.167 53.0083 301.6 51.825C301.05 50.6417 300.775 49.1333 300.775 47.3C300.775 45.7667 300.958 44.4833 301.325 43.45C301.708 42.4 302.208 41.5667 302.825 40.95C303.442 40.3333 304.117 39.8917 304.85 39.625C305.6 39.3417 306.342 39.2 307.075 39.2C308.242 39.2 309.242 39.4667 310.075 40C310.925 40.5333 311.567 41.2833 312 42.25L310.225 43.575L310.025 43.7L309.9 43.5C309.917 43.3833 309.9 43.2667 309.85 43.15C309.817 43.0167 309.733 42.8333 309.6 42.6C309.233 42.1667 308.85 41.875 308.45 41.725C308.067 41.5583 307.658 41.475 307.225 41.475C306.592 41.475 305.992 41.6917 305.425 42.125C304.875 42.5583 304.425 43.2 304.075 44.05C303.742 44.8833 303.575 45.925 303.575 47.175C303.575 48.975 303.9 50.3917 304.55 51.425C305.217 52.4417 306.05 52.95 307.05 52.95C307.667 52.95 308.2 52.8167 308.65 52.55C309.1 52.2833 309.508 51.8417 309.875 51.225L311.825 52.675C311.242 53.625 310.55 54.3 309.75 54.7C308.967 55.0833 308.042 55.275 306.975 55.275ZM316.275 55V39.425H326.425V41.725H319.025V45.725H325.1V48.05H319.025V52.7H326.35V55H316.275ZM331.75 55V52.725H334.8V41.7H331.925V39.425H340.525V41.7H337.475V52.725H340.65V55H331.75ZM350.4 55.05L345.4 39.425H348.2L351.475 50.375L354.525 39.425H357.25L352.3 55.05H350.4ZM361.275 55V39.425H371.425V41.725H364.025V45.725H370.1V48.05H364.025V52.7H371.35V55H361.275ZM376.05 55V39.425H380.075C381.442 39.425 382.5 39.6167 383.25 40C384.017 40.3667 384.658 40.8917 385.175 41.575C385.692 42.275 386.092 43.1083 386.375 44.075C386.675 45.0417 386.825 46.125 386.825 47.325C386.792 48.8917 386.533 50.2583 386.05 51.425C385.567 52.575 384.808 53.4583 383.775 54.075C382.758 54.6917 381.425 55 379.775 55H376.05ZM378.8 52.8H379.7C380.767 52.8 381.617 52.575 382.25 52.125C382.9 51.675 383.367 51.0417 383.65 50.225C383.933 49.4083 384.067 48.45 384.05 47.35C384.05 46.2 383.925 45.2 383.675 44.35C383.442 43.5 383.025 42.8417 382.425 42.375C381.825 41.9083 381.008 41.675 379.975 41.675H378.8V52.8Z" fill="#89D2FF"/>
<defs>
<filter id="filter0_f_374_1570" x="136.704" y="114.649" width="181.663" height="26.4679" filterUnits="userSpaceOnUse" color-interpolation-filters="sRGB">
<feFlood flood-opacity="0" result="BackgroundImageFix"/>
<feBlend mode="normal" in="SourceGraphic" in2="BackgroundImageFix" result="shape"/>
<feGaussianBlur stdDeviation="4.81228" result="effect1_foregroundBlur_374_1570"/>
</filter>
<filter id="filter1_f_374_1570" x="139.11" y="115.852" width="72.1827" height="22.8585" filterUnits="userSpaceOnUse" color-interpolation-filters="sRGB">
<feFlood flood-opacity="0" result="BackgroundImageFix"/>
<feBlend mode="normal" in="SourceGraphic" in2="BackgroundImageFix" result="shape"/>
<feGaussianBlur stdDeviation="4.81228" result="effect1_foregroundBlur_374_1570"/>
</filter>
<filter id="filter2_f_374_1570" x="242.227" y="115.504" width="74.0819" height="24.7577" filterUnits="userSpaceOnUse" color-interpolation-filters="sRGB">
<feFlood flood-opacity="0" result="BackgroundImageFix"/>
<feBlend mode="normal" in="SourceGraphic" in2="BackgroundImageFix" result="shape"/>
<feGaussianBlur stdDeviation="4.9863" result="effect1_foregroundBlur_374_1570"/>
</filter>
<filter id="filter3_f_374_1570" x="209.938" y="0.894979" width="35.7999" height="35.7999" filterUnits="userSpaceOnUse" color-interpolation-filters="sRGB">
<feFlood flood-opacity="0" result="BackgroundImageFix"/>
<feBlend mode="normal" in="SourceGraphic" in2="BackgroundImageFix" result="shape"/>
<feGaussianBlur stdDeviation="6.55251" result="effect1_foregroundBlur_374_1570"/>
</filter>
<filter id="filter4_f_374_1570" x="218.248" y="9.20496" width="19.1799" height="19.1799" filterUnits="userSpaceOnUse" color-interpolation-filters="sRGB">
<feFlood flood-opacity="0" result="BackgroundImageFix"/>
<feBlend mode="normal" in="SourceGraphic" in2="BackgroundImageFix" result="shape"/>
<feGaussianBlur stdDeviation="3.19635" result="effect1_foregroundBlur_374_1570"/>
</filter>
<filter id="filter5_f_374_1570" x="411.305" y="14.3208" width="35.7999" height="35.7999" filterUnits="userSpaceOnUse" color-interpolation-filters="sRGB">
<feFlood flood-opacity="0" result="BackgroundImageFix"/>
<feBlend mode="normal" in="SourceGraphic" in2="BackgroundImageFix" result="shape"/>
<feGaussianBlur stdDeviation="6.55251" result="effect1_foregroundBlur_374_1570"/>
</filter>
<filter id="filter6_f_374_1570" x="419.615" y="22.6307" width="19.1799" height="19.1799" filterUnits="userSpaceOnUse" color-interpolation-filters="sRGB">
<feFlood flood-opacity="0" result="BackgroundImageFix"/>
<feBlend mode="normal" in="SourceGraphic" in2="BackgroundImageFix" result="shape"/>
<feGaussianBlur stdDeviation="3.19635" result="effect1_foregroundBlur_374_1570"/>
</filter>
<filter id="filter7_f_374_1570" x="0.894979" y="14.3208" width="35.7999" height="35.7999" filterUnits="userSpaceOnUse" color-interpolation-filters="sRGB">
<feFlood flood-opacity="0" result="BackgroundImageFix"/>
<feBlend mode="normal" in="SourceGraphic" in2="BackgroundImageFix" result="shape"/>
<feGaussianBlur stdDeviation="6.55251" result="effect1_foregroundBlur_374_1570"/>
</filter>
<filter id="filter8_f_374_1570" x="9.20496" y="22.6307" width="19.1799" height="19.1799" filterUnits="userSpaceOnUse" color-interpolation-filters="sRGB">
<feFlood flood-opacity="0" result="BackgroundImageFix"/>
<feBlend mode="normal" in="SourceGraphic" in2="BackgroundImageFix" result="shape"/>
<feGaussianBlur stdDeviation="3.19635" result="effect1_foregroundBlur_374_1570"/>
</filter>
<filter id="filter9_f_374_1570" x="21.4807" y="107.782" width="19.562" height="19.562" filterUnits="userSpaceOnUse" color-interpolation-filters="sRGB">
<feFlood flood-opacity="0" result="BackgroundImageFix"/>
<feBlend mode="normal" in="SourceGraphic" in2="BackgroundImageFix" result="shape"/>
<feGaussianBlur stdDeviation="3.93151" result="effect1_foregroundBlur_374_1570"/>
</filter>
<filter id="filter10_f_374_1570" x="26.1488" y="112.45" width="10.2298" height="10.2298" filterUnits="userSpaceOnUse" color-interpolation-filters="sRGB">
<feFlood flood-opacity="0" result="BackgroundImageFix"/>
<feBlend mode="normal" in="SourceGraphic" in2="BackgroundImageFix" result="shape"/>
<feGaussianBlur stdDeviation="1.91781" result="effect1_foregroundBlur_374_1570"/>
</filter>
<filter id="filter11_f_374_1570" x="218.055" y="107.782" width="19.562" height="19.562" filterUnits="userSpaceOnUse" color-interpolation-filters="sRGB">
<feFlood flood-opacity="0" result="BackgroundImageFix"/>
<feBlend mode="normal" in="SourceGraphic" in2="BackgroundImageFix" result="shape"/>
<feGaussianBlur stdDeviation="3.93151" result="effect1_foregroundBlur_374_1570"/>
</filter>
<filter id="filter12_f_374_1570" x="222.723" y="112.45" width="10.2298" height="10.2298" filterUnits="userSpaceOnUse" color-interpolation-filters="sRGB">
<feFlood flood-opacity="0" result="BackgroundImageFix"/>
<feBlend mode="normal" in="SourceGraphic" in2="BackgroundImageFix" result="shape"/>
<feGaussianBlur stdDeviation="1.91781" result="effect1_foregroundBlur_374_1570"/>
</filter>
<filter id="filter13_f_374_1570" x="393.535" y="107.782" width="19.562" height="19.562" filterUnits="userSpaceOnUse" color-interpolation-filters="sRGB">
<feFlood flood-opacity="0" result="BackgroundImageFix"/>
<feBlend mode="normal" in="SourceGraphic" in2="BackgroundImageFix" result="shape"/>
<feGaussianBlur stdDeviation="3.93151" result="effect1_foregroundBlur_374_1570"/>
</filter>
<filter id="filter14_f_374_1570" x="398.203" y="112.45" width="10.2298" height="10.2298" filterUnits="userSpaceOnUse" color-interpolation-filters="sRGB">
<feFlood flood-opacity="0" result="BackgroundImageFix"/>
<feBlend mode="normal" in="SourceGraphic" in2="BackgroundImageFix" result="shape"/>
<feGaussianBlur stdDeviation="1.91781" result="effect1_foregroundBlur_374_1570"/>
</filter>
<linearGradient id="paint0_linear_374_1570" x1="178.454" y1="-190.397" x2="153.899" y2="122.523" gradientUnits="userSpaceOnUse">
<stop offset="0.698828" stop-color="#004970"/>
<stop offset="1" stop-color="#0CFEFF" stop-opacity="0"/>
</linearGradient>
</defs>
</svg>
