<svg width="448" height="142" viewBox="0 0 448 142" fill="none" xmlns="http://www.w3.org/2000/svg">
<path d="M15 25.3223V24.4959L16.5081 24H19.2295M52.9091 24H55.3879L57 24.4628V25.3499M57 28.6612V29.4766L55.5439 29.9614H52.7185M19.1602 30H16.5601L15 29.5207V28.6226" stroke="#02FDFC" stroke-width="1.08896"/>
<path d="M14 53.6667V94.5711M433.041 53.6445V94.5489" stroke="#00A7FF" stroke-width="2.40614"/>
<path d="M18.8125 45.2442L29.6401 34.4166H39.2647M412.363 28.8008L429.206 45.6438M429.206 92.5635H421.987L405.144 110.61" stroke="#0CFEFF" stroke-width="2.40614"/>
<path opacity="0.5" d="M40.4688 23.5898H203.864M249.892 23.5898H412.905M395.645 117.429H249.892M207.22 117.429H40.4688" stroke="#00A7FF" stroke-width="2.40614"/>
<path d="M39.2451 28.3828V34.3982H29.6206L18.793 45.2258V101.77L29.6206 110.192H405.143L421.986 92.1455H429.204V45.2258L412.361 28.3828H39.2451Z" fill="url(#paint0_linear_408_1605)"/>
<g filter="url(#filter0_f_408_1605)">
<path d="M200.466 131.492L206.482 124.273H146.328L148.734 127.883H178.811L180.014 131.492H200.466Z" fill="#00A7FF"/>
<path d="M254.604 131.492L248.589 124.273H308.742L306.336 127.883H276.259L275.056 131.492H254.604Z" fill="#00A7FF"/>
</g>
<g filter="url(#filter1_f_408_1605)">
<path d="M200.466 129.086L201.669 125.477H148.734V126.68H181.217L182.42 129.086H200.466Z" fill="white"/>
</g>
<g filter="url(#filter2_f_408_1605)">
<path d="M254.604 130.289L252.198 125.477H306.336V126.68H276.259L273.853 130.289H254.604Z" fill="white"/>
</g>
<path d="M200.466 131.492L206.482 124.273H146.328L148.734 127.883H178.811L180.014 131.492H200.466Z" fill="#00A7FF"/>
<path d="M254.604 131.492L248.589 124.273H308.742L306.336 127.883H276.259L275.056 131.492H254.604Z" fill="#00A7FF"/>
<g filter="url(#filter3_f_408_1605)">
<circle cx="227.837" cy="18.7945" r="4.79452" fill="#0CFEFF"/>
</g>
<circle cx="227.837" cy="18.7945" r="4.79452" fill="#0CFEFF"/>
<g filter="url(#filter4_f_408_1605)">
<circle cx="227.837" cy="18.794" r="3.19635" fill="white"/>
</g>
<g filter="url(#filter5_f_408_1605)">
<circle cx="429.205" cy="32.2203" r="4.79452" fill="#0CFEFF"/>
</g>
<circle cx="429.205" cy="32.2203" r="4.79452" fill="#0CFEFF"/>
<g filter="url(#filter6_f_408_1605)">
<circle cx="429.204" cy="32.2198" r="3.19635" fill="white"/>
</g>
<g filter="url(#filter7_f_408_1605)">
<circle cx="18.7945" cy="32.2203" r="4.79452" fill="#0CFEFF"/>
</g>
<circle cx="18.7945" cy="32.2203" r="4.79452" fill="#0CFEFF"/>
<g filter="url(#filter8_f_408_1605)">
<circle cx="18.794" cy="32.2198" r="3.19635" fill="white"/>
</g>
<g filter="url(#filter9_f_408_1605)">
<circle cx="31.2616" cy="117.562" r="1.91781" fill="#0CFEFF"/>
</g>
<circle cx="31.2616" cy="117.562" r="1.91781" fill="#0CFEFF"/>
<g filter="url(#filter10_f_408_1605)">
<circle cx="31.2629" cy="117.564" r="1.27854" fill="white"/>
</g>
<g filter="url(#filter11_f_408_1605)">
<circle cx="227.836" cy="117.562" r="1.91781" fill="#0CFEFF"/>
</g>
<circle cx="227.836" cy="117.562" r="1.91781" fill="#0CFEFF"/>
<g filter="url(#filter12_f_408_1605)">
<circle cx="227.837" cy="117.564" r="1.27854" fill="white"/>
</g>
<g filter="url(#filter13_f_408_1605)">
<circle cx="403.316" cy="117.562" r="1.91781" fill="#0CFEFF"/>
</g>
<circle cx="403.316" cy="117.562" r="1.91781" fill="#0CFEFF"/>
<g filter="url(#filter14_f_408_1605)">
<circle cx="403.318" cy="117.564" r="1.27854" fill="white"/>
</g>
<path d="M56.775 57V43.8H52.575V41.425H63.9V43.8H59.475V57H56.775ZM73.3 57.3C71.3833 57.3 69.9333 56.6 68.95 55.2C67.9667 53.8 67.475 51.8083 67.475 49.225C67.475 46.7083 67.9667 44.7417 68.95 43.325C69.9333 41.9083 71.3833 41.2 73.3 41.2C75.1833 41.2 76.6167 41.9083 77.6 43.325C78.6 44.7417 79.1 46.7083 79.1 49.225C79.1 51.8083 78.6 53.8 77.6 55.2C76.6167 56.6 75.1833 57.3 73.3 57.3ZM73.3 55C74.2333 55 74.9667 54.525 75.5 53.575C76.0333 52.6083 76.3 51.15 76.3 49.2C76.3 47.3833 76.0333 45.9833 75.5 45C74.9667 44 74.2333 43.5 73.3 43.5C72.3333 43.5 71.5833 44 71.05 45C70.5333 45.9833 70.275 47.3833 70.275 49.2C70.275 51.15 70.5333 52.6083 71.05 53.575C71.5833 54.525 72.3333 55 73.3 55ZM86.775 57V43.8H82.575V41.425H93.9V43.8H89.475V57H86.775ZM106.35 57L105.275 53.375H101.2L100.1 57H97.3L102.575 41.325H103.925L109.2 57H106.35ZM103.25 46.55L101.8 51.35H104.675L103.25 46.55ZM113.425 41.425H116.5V41.65C116.4 41.75 116.333 41.8667 116.3 42C116.283 42.1167 116.275 42.3083 116.275 42.575V54.7H123.425V57H113.425V41.425ZM142.8 57V41.425H145.275L148.3 48.575L151.325 41.4H153.8V57H151.35V46.125L148.9 51.85H147.525L145.225 46.15V57H142.8ZM158.275 57V41.425H168.425V43.725H161.025V47.725H167.1V50.05H161.025V54.7H168.35V57H158.275ZM178.05 57.275C177.017 57.275 176.042 57.125 175.125 56.825C174.225 56.5083 173.475 56.0333 172.875 55.4L174.25 53.075L174.35 52.875L174.575 53C174.608 53.1333 174.65 53.2667 174.7 53.4C174.767 53.5167 174.9 53.6667 175.1 53.85C175.517 54.1667 175.975 54.425 176.475 54.625C176.992 54.825 177.55 54.925 178.15 54.925C178.933 54.925 179.567 54.7583 180.05 54.425C180.55 54.075 180.8 53.5667 180.8 52.9C180.8 52.5667 180.725 52.2583 180.575 51.975C180.425 51.675 180.125 51.375 179.675 51.075C179.242 50.775 178.592 50.425 177.725 50.025C176.658 49.5583 175.808 49.0917 175.175 48.625C174.558 48.1417 174.117 47.625 173.85 47.075C173.583 46.5083 173.45 45.875 173.45 45.175C173.45 44.4083 173.658 43.725 174.075 43.125C174.508 42.525 175.1 42.05 175.85 41.7C176.6 41.35 177.458 41.175 178.425 41.175C180.342 41.175 181.917 41.8417 183.15 43.175L181.5 45.075L181.35 45.25L181.15 45.1C181.133 44.9667 181.1 44.8417 181.05 44.725C181.017 44.5917 180.908 44.425 180.725 44.225C180.408 43.925 180.067 43.725 179.7 43.625C179.35 43.525 178.933 43.475 178.45 43.475C177.767 43.475 177.225 43.6333 176.825 43.95C176.425 44.2667 176.225 44.6333 176.225 45.05C176.225 45.3833 176.3 45.6833 176.45 45.95C176.6 46.2167 176.9 46.5 177.35 46.8C177.817 47.1 178.525 47.4583 179.475 47.875C180.525 48.3583 181.35 48.8333 181.95 49.3C182.55 49.75 182.967 50.25 183.2 50.8C183.45 51.35 183.575 51.9917 183.575 52.725C183.575 53.475 183.383 54.2 183 54.9C182.617 55.6 182.017 56.175 181.2 56.625C180.383 57.0583 179.333 57.275 178.05 57.275ZM193.05 57.275C192.017 57.275 191.042 57.125 190.125 56.825C189.225 56.5083 188.475 56.0333 187.875 55.4L189.25 53.075L189.35 52.875L189.575 53C189.608 53.1333 189.65 53.2667 189.7 53.4C189.767 53.5167 189.9 53.6667 190.1 53.85C190.517 54.1667 190.975 54.425 191.475 54.625C191.992 54.825 192.55 54.925 193.15 54.925C193.933 54.925 194.567 54.7583 195.05 54.425C195.55 54.075 195.8 53.5667 195.8 52.9C195.8 52.5667 195.725 52.2583 195.575 51.975C195.425 51.675 195.125 51.375 194.675 51.075C194.242 50.775 193.592 50.425 192.725 50.025C191.658 49.5583 190.808 49.0917 190.175 48.625C189.558 48.1417 189.117 47.625 188.85 47.075C188.583 46.5083 188.45 45.875 188.45 45.175C188.45 44.4083 188.658 43.725 189.075 43.125C189.508 42.525 190.1 42.05 190.85 41.7C191.6 41.35 192.458 41.175 193.425 41.175C195.342 41.175 196.917 41.8417 198.15 43.175L196.5 45.075L196.35 45.25L196.15 45.1C196.133 44.9667 196.1 44.8417 196.05 44.725C196.017 44.5917 195.908 44.425 195.725 44.225C195.408 43.925 195.067 43.725 194.7 43.625C194.35 43.525 193.933 43.475 193.45 43.475C192.767 43.475 192.225 43.6333 191.825 43.95C191.425 44.2667 191.225 44.6333 191.225 45.05C191.225 45.3833 191.3 45.6833 191.45 45.95C191.6 46.2167 191.9 46.5 192.35 46.8C192.817 47.1 193.525 47.4583 194.475 47.875C195.525 48.3583 196.35 48.8333 196.95 49.3C197.55 49.75 197.967 50.25 198.2 50.8C198.45 51.35 198.575 51.9917 198.575 52.725C198.575 53.475 198.383 54.2 198 54.9C197.617 55.6 197.017 56.175 196.2 56.625C195.383 57.0583 194.333 57.275 193.05 57.275ZM211.35 57L210.275 53.375H206.2L205.1 57H202.3L207.575 41.325H208.925L214.2 57H211.35ZM208.25 46.55L206.8 51.35H209.675L208.25 46.55ZM223.9 57.275C222.6 57.275 221.475 56.9417 220.525 56.275C219.592 55.6083 218.875 54.675 218.375 53.475C217.875 52.275 217.625 50.875 217.625 49.275C217.625 47.625 217.833 46.275 218.25 45.225C218.683 44.1583 219.225 43.3333 219.875 42.75C220.542 42.15 221.233 41.7417 221.95 41.525C222.667 41.2917 223.308 41.175 223.875 41.175C224.892 41.175 225.842 41.4167 226.725 41.9C227.625 42.3667 228.308 43.0333 228.775 43.9L227.125 45.525L226.975 45.7L226.8 45.525C226.783 45.3917 226.75 45.2667 226.7 45.15C226.667 45.0167 226.567 44.8417 226.4 44.625C226.117 44.2917 225.783 44.025 225.4 43.825C225.033 43.625 224.55 43.525 223.95 43.525C223.333 43.525 222.75 43.7 222.2 44.05C221.667 44.4 221.233 44.9833 220.9 45.8C220.583 46.6 220.425 47.675 220.425 49.025C220.425 51.025 220.742 52.5167 221.375 53.5C222.025 54.4833 222.867 54.975 223.9 54.975C224.317 54.975 224.725 54.925 225.125 54.825C225.542 54.7083 225.925 54.5 226.275 54.2V51.325H223.7V48.975H228.825V55.65C228.075 56.25 227.283 56.675 226.45 56.925C225.617 57.1583 224.767 57.275 223.9 57.275ZM233.275 57V41.425H243.425V43.725H236.025V47.725H242.1V50.05H236.025V54.7H243.35V57H233.275ZM253.05 57.275C252.017 57.275 251.042 57.125 250.125 56.825C249.225 56.5083 248.475 56.0333 247.875 55.4L249.25 53.075L249.35 52.875L249.575 53C249.608 53.1333 249.65 53.2667 249.7 53.4C249.767 53.5167 249.9 53.6667 250.1 53.85C250.517 54.1667 250.975 54.425 251.475 54.625C251.992 54.825 252.55 54.925 253.15 54.925C253.933 54.925 254.567 54.7583 255.05 54.425C255.55 54.075 255.8 53.5667 255.8 52.9C255.8 52.5667 255.725 52.2583 255.575 51.975C255.425 51.675 255.125 51.375 254.675 51.075C254.242 50.775 253.592 50.425 252.725 50.025C251.658 49.5583 250.808 49.0917 250.175 48.625C249.558 48.1417 249.117 47.625 248.85 47.075C248.583 46.5083 248.45 45.875 248.45 45.175C248.45 44.4083 248.658 43.725 249.075 43.125C249.508 42.525 250.1 42.05 250.85 41.7C251.6 41.35 252.458 41.175 253.425 41.175C255.342 41.175 256.917 41.8417 258.15 43.175L256.5 45.075L256.35 45.25L256.15 45.1C256.133 44.9667 256.1 44.8417 256.05 44.725C256.017 44.5917 255.908 44.425 255.725 44.225C255.408 43.925 255.067 43.725 254.7 43.625C254.35 43.525 253.933 43.475 253.45 43.475C252.767 43.475 252.225 43.6333 251.825 43.95C251.425 44.2667 251.225 44.6333 251.225 45.05C251.225 45.3833 251.3 45.6833 251.45 45.95C251.6 46.2167 251.9 46.5 252.35 46.8C252.817 47.1 253.525 47.4583 254.475 47.875C255.525 48.3583 256.35 48.8333 256.95 49.3C257.55 49.75 257.967 50.25 258.2 50.8C258.45 51.35 258.575 51.9917 258.575 52.725C258.575 53.475 258.383 54.2 258 54.9C257.617 55.6 257.017 56.175 256.2 56.625C255.383 57.0583 254.333 57.275 253.05 57.275ZM278.125 57V41.425H283.05C284.95 41.425 286.342 41.8417 287.225 42.675C288.108 43.5083 288.55 44.6167 288.55 46C288.55 46.5667 288.425 47.1417 288.175 47.725C287.942 48.2917 287.6 48.8 287.15 49.25C286.717 49.7 286.208 50.0333 285.625 50.25L288.975 57H286L282.85 50.525H280.975V57H278.125ZM280.975 48.175H283.25C284.05 48.175 284.65 47.9917 285.05 47.625C285.45 47.2417 285.65 46.725 285.65 46.075C285.65 45.475 285.45 44.9583 285.05 44.525C284.65 44.0917 284.05 43.875 283.25 43.875H280.975V48.175ZM293.275 57V41.425H303.425V43.725H296.025V47.725H302.1V50.05H296.025V54.7H303.35V57H293.275ZM313.975 57.275C312.842 57.275 311.8 57 310.85 56.45C309.917 55.8833 309.167 55.0083 308.6 53.825C308.05 52.6417 307.775 51.1333 307.775 49.3C307.775 47.7667 307.958 46.4833 308.325 45.45C308.708 44.4 309.208 43.5667 309.825 42.95C310.442 42.3333 311.117 41.8917 311.85 41.625C312.6 41.3417 313.342 41.2 314.075 41.2C315.242 41.2 316.242 41.4667 317.075 42C317.925 42.5333 318.567 43.2833 319 44.25L317.225 45.575L317.025 45.7L316.9 45.5C316.917 45.3833 316.9 45.2667 316.85 45.15C316.817 45.0167 316.733 44.8333 316.6 44.6C316.233 44.1667 315.85 43.875 315.45 43.725C315.067 43.5583 314.658 43.475 314.225 43.475C313.592 43.475 312.992 43.6917 312.425 44.125C311.875 44.5583 311.425 45.2 311.075 46.05C310.742 46.8833 310.575 47.925 310.575 49.175C310.575 50.975 310.9 52.3917 311.55 53.425C312.217 54.4417 313.05 54.95 314.05 54.95C314.667 54.95 315.2 54.8167 315.65 54.55C316.1 54.2833 316.508 53.8417 316.875 53.225L318.825 54.675C318.242 55.625 317.55 56.3 316.75 56.7C315.967 57.0833 315.042 57.275 313.975 57.275ZM323.275 57V41.425H333.425V43.725H326.025V47.725H332.1V50.05H326.025V54.7H333.35V57H323.275ZM338.75 57V54.725H341.8V43.7H338.925V41.425H347.525V43.7H344.475V54.725H347.65V57H338.75ZM357.4 57.05L352.4 41.425H355.2L358.475 52.375L361.525 41.425H364.25L359.3 57.05H357.4ZM368.275 57V41.425H378.425V43.725H371.025V47.725H377.1V50.05H371.025V54.7H378.35V57H368.275ZM383.05 57V41.425H387.075C388.442 41.425 389.5 41.6167 390.25 42C391.017 42.3667 391.658 42.8917 392.175 43.575C392.692 44.275 393.092 45.1083 393.375 46.075C393.675 47.0417 393.825 48.125 393.825 49.325C393.792 50.8917 393.533 52.2583 393.05 53.425C392.567 54.575 391.808 55.4583 390.775 56.075C389.758 56.6917 388.425 57 386.775 57H383.05ZM385.8 54.8H386.7C387.767 54.8 388.617 54.575 389.25 54.125C389.9 53.675 390.367 53.0417 390.65 52.225C390.933 51.4083 391.067 50.45 391.05 49.35C391.05 48.2 390.925 47.2 390.675 46.35C390.442 45.5 390.025 44.8417 389.425 44.375C388.825 43.9083 388.008 43.675 386.975 43.675H385.8V54.8Z" fill="#89D2FF"/>
<defs>
<filter id="filter0_f_408_1605" x="136.704" y="114.649" width="181.663" height="26.4679" filterUnits="userSpaceOnUse" color-interpolation-filters="sRGB">
<feFlood flood-opacity="0" result="BackgroundImageFix"/>
<feBlend mode="normal" in="SourceGraphic" in2="BackgroundImageFix" result="shape"/>
<feGaussianBlur stdDeviation="4.81228" result="effect1_foregroundBlur_408_1605"/>
</filter>
<filter id="filter1_f_408_1605" x="139.11" y="115.852" width="72.1827" height="22.8585" filterUnits="userSpaceOnUse" color-interpolation-filters="sRGB">
<feFlood flood-opacity="0" result="BackgroundImageFix"/>
<feBlend mode="normal" in="SourceGraphic" in2="BackgroundImageFix" result="shape"/>
<feGaussianBlur stdDeviation="4.81228" result="effect1_foregroundBlur_408_1605"/>
</filter>
<filter id="filter2_f_408_1605" x="242.227" y="115.504" width="74.0819" height="24.7577" filterUnits="userSpaceOnUse" color-interpolation-filters="sRGB">
<feFlood flood-opacity="0" result="BackgroundImageFix"/>
<feBlend mode="normal" in="SourceGraphic" in2="BackgroundImageFix" result="shape"/>
<feGaussianBlur stdDeviation="4.9863" result="effect1_foregroundBlur_408_1605"/>
</filter>
<filter id="filter3_f_408_1605" x="209.938" y="0.894979" width="35.7999" height="35.7999" filterUnits="userSpaceOnUse" color-interpolation-filters="sRGB">
<feFlood flood-opacity="0" result="BackgroundImageFix"/>
<feBlend mode="normal" in="SourceGraphic" in2="BackgroundImageFix" result="shape"/>
<feGaussianBlur stdDeviation="6.55251" result="effect1_foregroundBlur_408_1605"/>
</filter>
<filter id="filter4_f_408_1605" x="218.248" y="9.20496" width="19.1799" height="19.1799" filterUnits="userSpaceOnUse" color-interpolation-filters="sRGB">
<feFlood flood-opacity="0" result="BackgroundImageFix"/>
<feBlend mode="normal" in="SourceGraphic" in2="BackgroundImageFix" result="shape"/>
<feGaussianBlur stdDeviation="3.19635" result="effect1_foregroundBlur_408_1605"/>
</filter>
<filter id="filter5_f_408_1605" x="411.305" y="14.3208" width="35.7999" height="35.7999" filterUnits="userSpaceOnUse" color-interpolation-filters="sRGB">
<feFlood flood-opacity="0" result="BackgroundImageFix"/>
<feBlend mode="normal" in="SourceGraphic" in2="BackgroundImageFix" result="shape"/>
<feGaussianBlur stdDeviation="6.55251" result="effect1_foregroundBlur_408_1605"/>
</filter>
<filter id="filter6_f_408_1605" x="419.615" y="22.6307" width="19.1799" height="19.1799" filterUnits="userSpaceOnUse" color-interpolation-filters="sRGB">
<feFlood flood-opacity="0" result="BackgroundImageFix"/>
<feBlend mode="normal" in="SourceGraphic" in2="BackgroundImageFix" result="shape"/>
<feGaussianBlur stdDeviation="3.19635" result="effect1_foregroundBlur_408_1605"/>
</filter>
<filter id="filter7_f_408_1605" x="0.894979" y="14.3208" width="35.7999" height="35.7999" filterUnits="userSpaceOnUse" color-interpolation-filters="sRGB">
<feFlood flood-opacity="0" result="BackgroundImageFix"/>
<feBlend mode="normal" in="SourceGraphic" in2="BackgroundImageFix" result="shape"/>
<feGaussianBlur stdDeviation="6.55251" result="effect1_foregroundBlur_408_1605"/>
</filter>
<filter id="filter8_f_408_1605" x="9.20496" y="22.6307" width="19.1799" height="19.1799" filterUnits="userSpaceOnUse" color-interpolation-filters="sRGB">
<feFlood flood-opacity="0" result="BackgroundImageFix"/>
<feBlend mode="normal" in="SourceGraphic" in2="BackgroundImageFix" result="shape"/>
<feGaussianBlur stdDeviation="3.19635" result="effect1_foregroundBlur_408_1605"/>
</filter>
<filter id="filter9_f_408_1605" x="21.4807" y="107.782" width="19.562" height="19.562" filterUnits="userSpaceOnUse" color-interpolation-filters="sRGB">
<feFlood flood-opacity="0" result="BackgroundImageFix"/>
<feBlend mode="normal" in="SourceGraphic" in2="BackgroundImageFix" result="shape"/>
<feGaussianBlur stdDeviation="3.93151" result="effect1_foregroundBlur_408_1605"/>
</filter>
<filter id="filter10_f_408_1605" x="26.1488" y="112.45" width="10.2298" height="10.2298" filterUnits="userSpaceOnUse" color-interpolation-filters="sRGB">
<feFlood flood-opacity="0" result="BackgroundImageFix"/>
<feBlend mode="normal" in="SourceGraphic" in2="BackgroundImageFix" result="shape"/>
<feGaussianBlur stdDeviation="1.91781" result="effect1_foregroundBlur_408_1605"/>
</filter>
<filter id="filter11_f_408_1605" x="218.055" y="107.782" width="19.562" height="19.562" filterUnits="userSpaceOnUse" color-interpolation-filters="sRGB">
<feFlood flood-opacity="0" result="BackgroundImageFix"/>
<feBlend mode="normal" in="SourceGraphic" in2="BackgroundImageFix" result="shape"/>
<feGaussianBlur stdDeviation="3.93151" result="effect1_foregroundBlur_408_1605"/>
</filter>
<filter id="filter12_f_408_1605" x="222.723" y="112.45" width="10.2298" height="10.2298" filterUnits="userSpaceOnUse" color-interpolation-filters="sRGB">
<feFlood flood-opacity="0" result="BackgroundImageFix"/>
<feBlend mode="normal" in="SourceGraphic" in2="BackgroundImageFix" result="shape"/>
<feGaussianBlur stdDeviation="1.91781" result="effect1_foregroundBlur_408_1605"/>
</filter>
<filter id="filter13_f_408_1605" x="393.535" y="107.782" width="19.562" height="19.562" filterUnits="userSpaceOnUse" color-interpolation-filters="sRGB">
<feFlood flood-opacity="0" result="BackgroundImageFix"/>
<feBlend mode="normal" in="SourceGraphic" in2="BackgroundImageFix" result="shape"/>
<feGaussianBlur stdDeviation="3.93151" result="effect1_foregroundBlur_408_1605"/>
</filter>
<filter id="filter14_f_408_1605" x="398.203" y="112.45" width="10.2298" height="10.2298" filterUnits="userSpaceOnUse" color-interpolation-filters="sRGB">
<feFlood flood-opacity="0" result="BackgroundImageFix"/>
<feBlend mode="normal" in="SourceGraphic" in2="BackgroundImageFix" result="shape"/>
<feGaussianBlur stdDeviation="1.91781" result="effect1_foregroundBlur_408_1605"/>
</filter>
<linearGradient id="paint0_linear_408_1605" x1="178.454" y1="-190.397" x2="153.899" y2="122.523" gradientUnits="userSpaceOnUse">
<stop offset="0.698828" stop-color="#004970"/>
<stop offset="1" stop-color="#0CFEFF" stop-opacity="0"/>
</linearGradient>
</defs>
</svg>
