<svg width="50" height="30" viewBox="0 0 50 30" fill="none" xmlns="http://www.w3.org/2000/svg">
<path fill-rule="evenodd" clip-rule="evenodd" d="M0.656926 13.8238C6.9869 5.41758 15.5653 0.242188 25.0248 0.242188C34.4843 0.242188 43.0627 5.41758 49.3927 13.8339C49.9092 14.5226 49.9092 15.4848 49.3927 16.1735C43.0627 24.5797 34.4843 29.7551 25.0248 29.7551C15.5653 29.7551 6.9869 24.5797 0.656926 16.1633C0.1404 15.4746 0.1404 14.5125 0.656926 13.8238ZM14.6335 14.3201C14.2385 20.6095 19.424 25.7849 25.7034 25.3899C30.8788 25.0557 35.0819 20.8526 35.4161 15.6772C35.8111 9.38774 30.6256 4.21235 24.3462 4.60734C19.1607 4.93143 14.9576 9.13454 14.6335 14.3201Z" fill="#7AFEFF"/>
<path d="M25.3894 20.5893C22.0067 20.8019 19.2114 18.0168 19.4342 14.634C19.6063 11.8387 21.875 9.58017 24.6703 9.39786C28.0531 9.18518 30.8484 11.9704 30.6256 15.3531C30.4433 18.1586 28.1746 20.4171 25.3894 20.5893Z" fill="#00B76A"/>
</svg>
